<?xml version="1.0" encoding="utf-8"?>
<!-- Generator: Adobe Illustrator 16.0.4, SVG Export Plug-In . SVG Version: 6.00 Build 0)  -->
<!DOCTYPE svg PUBLIC "-//W3C//DTD SVG 1.1//EN" "http://www.w3.org/Graphics/SVG/1.1/DTD/svg11.dtd">
<svg version="1.1" id="Layer_1" xmlns="http://www.w3.org/2000/svg" xmlns:xlink="http://www.w3.org/1999/xlink" x="0px" y="0px"
	 width="24px" height="24px" viewBox="0 0 24 24" enable-background="new 0 0 24 24" xml:space="preserve">
<g>
	<g>
		<path fill="#F7B632" d="M23.385,5.095c0-2.588-2.098-4.686-4.686-4.686H5.07c-2.588,0-4.686,2.098-4.686,4.686v13.629
			c0,2.588,2.098,4.686,4.686,4.686h13.629c2.588,0,4.686-2.098,4.686-4.686V5.095z"/>
	</g>
	<g>
		<path fill="#FFFFFF" d="M21.261,10.812c-0.095-0.178-0.314-0.249-0.492-0.153l-1.996,1.041c-0.177,0.091-0.248,0.314-0.154,0.491
			c0.064,0.124,0.191,0.194,0.324,0.194c0.056,0,0.112-0.013,0.167-0.039l1.995-1.041C21.284,11.212,21.354,10.992,21.261,10.812z"
			/>
		<path fill="#FFFFFF" d="M16.928,9.123c0.093,0,0.184-0.036,0.255-0.104l1.744-1.702c0.142-0.14,0.146-0.371,0.007-0.515
			c-0.145-0.145-0.374-0.148-0.518-0.008l-1.742,1.702c-0.145,0.14-0.146,0.373-0.009,0.516C16.737,9.085,16.833,9.123,16.928,9.123
			z"/>
		<path fill="#FFFFFF" d="M13.693,7.168C13.741,7.188,13.791,7.2,13.842,7.2c0.139,0,0.272-0.081,0.333-0.219l0.944-2.146
			c0.081-0.185-0.005-0.4-0.188-0.479c-0.184-0.081-0.397,0.002-0.48,0.186l-0.943,2.147C13.425,6.871,13.509,7.086,13.693,7.168z"
			/>
		<path fill="#FFFFFF" d="M10.519,7.861c-0.216,0-0.383,0.059-0.5,0.177C9.925,8.134,9.856,8.304,9.844,8.479
			c-0.156,1.381-0.979,4.146-2.522,5.689l-0.489,0.489c-0.285,0.284-0.341,0.767-0.143,1.124l-0.228,0.227
			c-0.287,0.285-0.444,0.672-0.444,1.079c0,0.409,0.157,0.791,0.444,1.079l0.492,0.49c0.287,0.288,0.671,0.448,1.08,0.448
			c0.407,0,0.791-0.16,1.078-0.448l0.228-0.225c0.31,0.174,0.733,0.15,1.013-0.051l2.119,2.115c0.155,0.157,0.367,0.242,0.59,0.242
			s0.433-0.085,0.589-0.24l0.491-0.493c0.457-0.459,0.457-1.209,0-1.67c-0.186-0.183-0.506-0.183-0.691,0l-0.12,0.124
			c-0.017,0.018-0.034,0.009-0.042,0.009c-0.004-0.024,0.038-0.116,0.059-0.161c0.093-0.191,0.246-0.517-0.064-0.829
			c-0.12-0.119-0.258-0.183-0.408-0.183c-0.156,0-0.297,0.064-0.412,0.118c-0.056,0.028-0.133,0.062-0.16,0.066
			c-0.003-0.026,0.05-0.121,0.072-0.162c0.088-0.159,0.212-0.389,0.082-0.631c1.257-0.712,2.892-1.267,4.185-1.409
			c0.201-0.017,0.336-0.071,0.442-0.177c0.614-0.617-0.438-2.597-2.452-4.611C13.06,8.919,11.405,7.861,10.519,7.861z
			 M12.776,18.094c-0.093,0.205-0.229,0.519,0.063,0.809c0.251,0.254,0.68,0.254,0.932,0l0.012-0.011
			c0.128,0.214,0.096,0.489-0.087,0.673l-0.49,0.489c-0.076,0.078-0.214,0.078-0.293,0l-2.106-2.109l0.147-0.144
			c0.247-0.251,0.539-0.491,0.847-0.706c-0.003,0.01-0.009,0.018-0.012,0.026c-0.085,0.189-0.226,0.506,0.069,0.801
			c0.252,0.253,0.679,0.253,0.935,0c0.016-0.018,0.031-0.012,0.044-0.006C12.841,17.942,12.798,18.041,12.776,18.094z M7.076,16.865
			l-0.244,0.247c-0.129,0.128-0.129,0.313,0,0.443c0.061,0.062,0.141,0.096,0.221,0.096s0.16-0.035,0.222-0.098l0.246-0.244
			c0.062-0.064,0.096-0.143,0.096-0.223c0-0.035-0.007-0.072-0.021-0.103c0.086,0.093,0.178,0.187,0.265,0.275
			c0.301,0.298,0.647,0.598,0.949,0.815l-0.139,0.14c-0.169,0.17-0.397,0.263-0.637,0.263c-0.241,0-0.468-0.093-0.637-0.263
			l-0.49-0.491c-0.352-0.351-0.352-0.923,0-1.272l0.138-0.14c0.113,0.156,0.248,0.327,0.394,0.495
			C7.321,16.743,7.175,16.766,7.076,16.865z M12.814,11.407c0.243,0,0.47,0.093,0.636,0.262c0.312,0.313,0.354,0.791,0.108,1.146
			c-0.215-0.194-0.428-0.389-0.646-0.609c-0.206-0.203-0.406-0.421-0.604-0.643C12.456,11.461,12.631,11.407,12.814,11.407z
			 M13.896,11.227c-0.29-0.29-0.674-0.449-1.081-0.449c-0.332,0-0.649,0.105-0.912,0.302c-1.155-1.431-1.538-2.481-1.442-2.598
			c0.008-0.003,0.025-0.012,0.066-0.012c0.431,0,2.021,0.824,3.66,2.464c1.842,1.843,2.611,3.566,2.451,3.725
			c0,0-0.01,0.011-0.056,0.011c-0.312,0-1.302-0.45-2.536-1.449C14.499,12.632,14.439,11.772,13.896,11.227z M12.472,12.65
			c0.966,0.967,1.994,1.765,2.855,2.22c-1.539,0.381-3.546,1.217-4.818,2.485l-0.489,0.489c-0.045,0.046-0.102,0.068-0.175,0.068
			c-0.444,0-1.239-0.796-1.539-1.096c-0.191-0.191-0.549-0.548-0.804-0.9c-0.199-0.275-0.4-0.641-0.228-0.815l0.489-0.488
			c1.271-1.271,2.107-3.282,2.488-4.817C10.707,10.655,11.505,11.685,12.472,12.65z"/>
	</g>
	<text transform="matrix(1 0 0 1 3.9521 8.0923)" fill="#FFFFFF" font-family="'Montserrat-SemiBold'" font-size="10.5332">+</text>
</g>
</svg>
