<?xml version="1.0" encoding="utf-8"?>
<!-- Generator: Adobe Illustrator 16.0.0, SVG Export Plug-In . SVG Version: 6.00 Build 0)  -->
<!DOCTYPE svg PUBLIC "-//W3C//DTD SVG 1.1//EN" "http://www.w3.org/Graphics/SVG/1.1/DTD/svg11.dtd">
<svg version="1.1" id="Layer_1" xmlns="http://www.w3.org/2000/svg" xmlns:xlink="http://www.w3.org/1999/xlink" x="0px" y="0px"
	 width="72.627px" height="25.424px" viewBox="0 0 72.627 25.424" enable-background="new 0 0 72.627 25.424" xml:space="preserve">
<rect x="-126.646" y="-782.911" fill-rule="evenodd" clip-rule="evenodd" fill="#FFFFFF" width="218.955" height="216.967"/>
<rect x="364.354" y="-782.911" fill-rule="evenodd" clip-rule="evenodd" fill="#FFFFFF" width="218.955" height="216.967"/>
<rect x="610.354" y="-780.911" fill-rule="evenodd" clip-rule="evenodd" fill="#FFFFFF" width="218.955" height="216.967"/>
<rect x="842.354" y="-780.911" fill-rule="evenodd" clip-rule="evenodd" fill="#FFFFFF" width="218.955" height="216.967"/>
<rect x="1079.906" y="-780.911" fill-rule="evenodd" clip-rule="evenodd" fill="#FFFFFF" width="218.954" height="216.967"/>
<rect x="1079.906" y="-474.911" fill-rule="evenodd" clip-rule="evenodd" fill="#FFFFFF" width="218.954" height="216.967"/>
<rect x="842.354" y="-472.911" fill-rule="evenodd" clip-rule="evenodd" fill="#FFFFFF" width="218.955" height="216.967"/>
<rect x="610.354" y="-472.911" fill-rule="evenodd" clip-rule="evenodd" fill="#FFFFFF" width="218.955" height="216.967"/>
<rect x="364.354" y="-474.911" fill-rule="evenodd" clip-rule="evenodd" fill="#FFFFFF" width="218.955" height="216.967"/>
<rect x="-126.646" y="-474.911" fill-rule="evenodd" clip-rule="evenodd" fill="#FFFFFF" width="218.955" height="216.967"/>
<text transform="matrix(1 0 0 1 -65.8711 -594.1372)" fill="#D6E1F1" font-family="'Montserrat-Bold'" font-size="15.6737" letter-spacing="1">PROJECTS</text>
<text transform="matrix(1 0 0 1 640.0264 -593.0249)" fill="#D6E1F1" font-family="'Montserrat-Bold'" font-size="15.6737">CALL FOR ACTION</text>
<text transform="matrix(1 0 0 1 422.2812 -593.0249)" fill="#D6E1F1" font-family="'Montserrat-Bold'" font-size="15.6737" letter-spacing="1">CONTACTS</text>
<text transform="matrix(1 0 0 1 920.0928 -593.0249)" fill="#D6E1F1" font-family="'Montserrat-Bold'" font-size="15.6737" letter-spacing="1">INBOX</text>
<g>
	<path fill="#D6E1F1" d="M480.51-674.503l-0.746-0.238l-0.079-0.751c0.66-2.251,0.67-4.179,0.67-6.068v-22.619
		c0-11.913-9.591-21.605-21.5-21.605c-11.913,0-21.5,9.692-21.5,21.605v22.619c0,1.854,0.517,3.822,1.167,6.016l0.323,0.754
		l-0.699,0.239c-5.832,1.855-11.063,5.497-15.179,10.531c-6.106,7.57-9.456,17.634-9.456,28.333c0-0.004,0.008-0.006,0.01-0.006
		c0.01,0,0.023,0.062,0.027,0.121l0.009,0.129l-0.046,0.6c0.01,1.343,1.197,2.931,2.657,2.931h86.371
		c1.46,0,2.646-1.588,2.646-3.045c-0.006,0.039-0.017-0.204-0.026-0.271l-0.009-0.19l0.046-0.335
		C505.195-653.842,495.047-669.854,480.51-674.503z M442.354-704.18c0-8.995,7.006-16.313,16-16.313c8.997,0,16,7.318,16,16.313
		v22.619c0,8.995-7.003,16.313-16,16.313c-8.994,0-16-7.318-16-16.313V-704.18z M418.995-637.911l0.061-0.905
		c0.604-8.5,3.385-16.068,8.049-21.846c3.68-4.508,8.354-7.652,13.518-9.073l0.554-0.157l0.322,0.47
		c4.05,5.927,10.726,9.464,17.856,9.464c7.123,0,13.794-3.535,17.846-9.454l0.324-0.473l0.551,0.153
		c11.811,3.265,20.489,15.716,21.597,30.914l0.062,0.907H418.995z"/>
	<path fill="#D6E1F1" d="M506.857-687.969l-0.749-0.24l-0.259-0.753c0.664-2.235,0.505-4.217,0.505-6.059v-22.616
		c0-5.681-1.81-11.237-5.813-15.244c-4.09-4.101-9.284-6.359-15.067-6.359c-6.896,0-13.1,3.179-17.233,8.72
		c-0.424,0.566-0.54,1.261-0.438,1.958c0.103,0.698,0.503,1.315,1.073,1.739c1.146,0.857,2.867,0.604,3.704-0.531
		c2.987-4,7.937-6.386,13.227-6.386c4.433,0,8.177,1.634,11.143,4.6c3.013,3.013,4.406,7.207,4.406,11.507v22.613
		c0,2.586-0.268,5.068-1.459,7.373c-1.721,3.444-4.45,6.154-7.989,7.623c-1.34,0.56-1.896,2.114-1.344,3.465
		c0.413,0.984,1.412,1.625,2.48,1.625c0.355,0,0.726-0.07,1.032-0.203c3.76-1.563,7.015-4.241,9.402-7.748l0.328-0.474l0.557,0.151
		c11.856,3.243,20.556,15.924,21.645,31.196l0.062,1.1h-12.074c-1.46,0-2.646,1.043-2.646,2.502c0,1.457,1.187,2.498,2.646,2.498
		h14.081c0.456,0,0.906-0.247,1.419-0.573l0.184-0.134c1.109-0.36,1.855-1.38,1.855-2.502
		C531.526-667.326,521.379-683.314,506.857-687.969z"/>
</g>
<g>
	<path fill="#D6E1F1" d="M778.124-705.1c-0.691-1.326-2.327-1.84-3.652-1.148l-14.826,7.733c-1.325,0.691-1.839,2.326-1.147,3.652
		c0.482,0.926,1.425,1.456,2.401,1.456c0.423,0,0.851-0.099,1.251-0.308l14.825-7.732
		C778.302-702.139,778.815-703.774,778.124-705.1z"/>
	<path fill="#D6E1F1" d="M745.945-717.65c0.682,0,1.364-0.256,1.893-0.77l12.943-12.642c1.068-1.044,1.089-2.759,0.045-3.829
		c-1.046-1.069-2.758-1.091-3.83-0.045l-12.943,12.642c-1.068,1.044-1.089,2.759-0.045,3.829
		C744.538-717.922,745.241-717.65,745.945-717.65z"/>
	<path fill="#D6E1F1" d="M721.922-732.166c0.355,0.156,0.725,0.23,1.089,0.23c1.041,0,2.034-0.604,2.479-1.618l7.013-15.935
		c0.603-1.369-0.019-2.967-1.388-3.569c-1.369-0.6-2.968,0.018-3.568,1.388l-7.013,15.935
		C719.932-734.366,720.553-732.768,721.922-732.166z"/>
	<path fill="#D6E1F1" d="M698.333-727.017c-1.585,0-2.833,0.442-3.708,1.317c-0.699,0.701-1.198,1.964-1.298,3.274
		c-1.162,10.258-7.275,30.8-18.733,42.255l-3.644,3.643c-2.107,2.106-2.529,5.681-1.05,8.338l-1.681,1.682
		c-2.14,2.138-3.319,4.987-3.317,8.02c0,3.033,1.179,5.881,3.319,8.02l3.642,3.645c2.139,2.139,4.987,3.316,8.021,3.316
		c3.032,0,5.881-1.178,8.02-3.316l1.68-1.68c2.288,1.278,5.442,1.115,7.54-0.379l15.72,15.718c1.166,1.168,2.721,1.812,4.378,1.812
		c1.656,0,3.211-0.643,4.376-1.81l3.643-3.644c3.418-3.419,3.418-8.982,0-12.401c-1.369-1.363-3.75-1.36-5.113,0.001l-0.911,0.91
		c-0.131,0.131-0.252,0.068-0.314,0.063c-0.026-0.182,0.298-0.86,0.453-1.187c0.684-1.438,1.829-3.844-0.489-6.159
		c-0.894-0.895-1.914-1.349-3.031-1.349c-1.16,0-2.21,0.478-3.061,0.866c-0.416,0.19-0.987,0.452-1.182,0.505
		c-0.027-0.188,0.367-0.915,0.534-1.225c0.635-1.17,1.565-2.885,0.615-4.668c9.338-5.3,21.472-9.398,31.075-10.482
		c1.484-0.117,2.496-0.519,3.281-1.302c4.571-4.571-3.259-19.297-18.215-34.254C717.202-719.169,704.925-727.017,698.333-727.017z
		 M715.098-651.023c-0.674,1.535-1.692,3.855,0.476,6.02c1.879,1.877,5.058,1.876,6.936,0l0.081-0.082
		c0.941,1.591,0.708,3.637-0.64,4.986l-3.646,3.642c-0.576,0.58-1.591,0.581-2.17,0l-15.655-15.656l1.084-1.086
		c1.856-1.856,4.016-3.649,6.302-5.242c-0.029,0.07-0.061,0.138-0.089,0.203c-0.629,1.406-1.681,3.762,0.513,5.952
		c1.879,1.877,5.056,1.879,6.938-0.002c0.128-0.129,0.238-0.089,0.322-0.039C715.59-652.142,715.271-651.416,715.098-651.023z
		 M672.772-660.136l-1.823,1.824c-0.949,0.952-0.949,2.336,0.001,3.294c0.463,0.46,1.047,0.713,1.646,0.713
		c0.601,0,1.185-0.254,1.646-0.716l1.823-1.822c0.461-0.462,0.715-1.047,0.715-1.648c0-0.264-0.05-0.526-0.145-0.774
		c0.645,0.707,1.306,1.399,1.966,2.059c2.221,2.221,4.81,4.445,7.042,6.056l-1.034,1.034c-1.26,1.26-2.939,1.954-4.728,1.954
		s-3.467-0.694-4.729-1.954l-3.642-3.644c-2.604-2.607-2.604-6.849,0.001-9.455l1.031-1.033c0.84,1.162,1.843,2.419,2.924,3.669
		C674.597-661.047,673.515-660.875,672.772-660.136z M715.386-700.674c1.803,0,3.486,0.69,4.74,1.942
		c2.316,2.316,2.618,5.874,0.801,8.503c-1.6-1.445-3.176-2.895-4.793-4.512c-1.537-1.534-3.014-3.141-4.506-4.792
		C712.721-700.271,714.034-700.674,715.386-700.674z M723.419-702.022c-2.152-2.154-5.008-3.34-8.04-3.34
		c-2.437,0-4.813,0.792-6.756,2.244c-8.582-10.621-11.44-18.421-10.701-19.289c0.033-0.034,0.177-0.095,0.486-0.095
		c3.186,0,14.992,6.118,27.184,18.307c13.676,13.678,19.39,26.493,18.212,27.67c0,0.001-0.096,0.074-0.429,0.074
		c-2.327,0-9.673-3.343-18.844-10.764C727.905-691.585,727.466-697.976,723.419-702.022z M712.843-691.446
		c7.181,7.184,14.816,13.109,21.204,16.486c-11.41,2.831-26.345,9.035-35.774,18.467l-3.643,3.645
		c-0.332,0.331-0.753,0.492-1.287,0.492c-3.309,0-9.221-5.915-11.448-8.143c-1.419-1.418-4.062-4.059-5.961-6.687
		c-1.479-2.05-2.976-4.763-1.691-6.048l3.643-3.643c9.438-9.436,15.642-24.37,18.471-35.776
		C699.733-706.262,705.66-698.626,712.843-691.446z"/>
</g>
<g>
	<path fill="#D6E1F1" d="M1.207-674.548l-7.932,0.136c1.505-3.224,1.836-6.102,0.988-8.575c-0.971-2.824-3.479-5.103-7.454-6.773
		l-0.266-0.071c-4.788-0.583-8.565,0.905-11.246,4.581c-2.048,3.79-2.215,7.451-0.501,10.906l-7.059,0.178l-0.003-7.937
		c0.117-1.635,0.056-2.952-0.184-4.027l-0.093-0.416l-0.365,0.024c-0.696-0.419-1.417-0.389-2.142-0.389h-0.467l-0.299,0.114
		c-1.898,2.282-4.034,3.267-6.528,3.267l-0.146-0.063c-2.462-1.014-4.033-2.354-4.669-3.921c-0.573-1.411-0.427-3.157,0.436-5.159
		c3.765-4.176,7.223-4.048,10.906,0.406l0.299,0.355h0.469c0.872,0,1.622-0.232,2.226-0.688l0.399,0.305l-0.089-18.616h-41.091
		l-0.267-0.408c-0.561,0.419-0.989,0.618-1.272,1.191l-0.383,0.059l-0.117,76.374v0.41l0.567,0.291
		c0.43,0.434,1.028,0.734,1.505,0.893l76.705,0.051l1.436-1.122l0.238-1.828L4.73-674.201L1.207-674.548z M-51.451-685.926
		l-0.319,0.167c3.445,6.246,8.125,8.192,14.125,5.64v5.703c-2,0.097-0.59-0.495-1.472-0.495h-11.059l-0.195,0.282
		c-0.687,0.136-1.818,0.547-2.373,0.96l-0.902,0.43v2.339l0.952,0.295c2.794,1.83,4.237,4.093,3.888,6.917
		c-0.865,2.626-2.279,4.237-4.575,4.919l-0.172,0.003c-3.152,0-5.241-1.272-6.446-3.889c-0.827-3.521,0.035-6.115,3.084-7.928
		l0.27-0.29v-2.483l-0.317-0.276c-0.183-0.091-0.337-0.281-0.705-0.557l-0.215-0.205l-12.806,0.233l-0.607-33.374l33.65-0.231v8.686
		c-3-1.672-7.109-1.404-10.533,0.776l0.062,0.104C-51.999-694.673-52.989-690.543-51.451-685.926z M-64.608-661.527
		c0.86,2.775,3.161,5.117,6.836,6.897l0.252,0.098c5.039,0.943,9.034-0.54,11.958-4.462c2.039-3.774,2.213-7.917,0.523-10.917h5.504
		c1.019,0,1.888,0.05,1.888,0.135v13.05l1.212,1.643l0.697,0.083c0.807,0.135,1.564,0.125,2.131-0.016l0.398-0.088l0.24-0.292
		c1.542-2.113,3.324-3.139,5.42-3.139c0.403,0,0.832,0.039,1.112,0.077c3.053,1.049,4.644,2.918,4.857,5.714
		c-0.308,3.033-1.736,4.964-4.223,5.865c-3.081,0.573-5.399-0.341-7.131-2.841l-0.258-0.373l-2.481-0.275l-1.374,1.309l-0.601,1.534
		v9.271c0,0.577,0.763,2.342,0.725,2.342h-33.71c-0.089,0-0.098-1.868-0.022-2.531l-0.235-31.469h7.351
		C-65.003-666.911-65.363-663.968-64.608-661.527z M-18.839-670.05c0.525-0.395,0.932-0.774,1.209-1.19l0.243-0.35l-0.514-2.067
		l-0.284-0.209c-2.372-1.779-3.623-3.573-3.716-5.338c-0.089-1.677,0.861-3.475,2.826-5.346l0.461-0.173
		c0.622-0.356,1.149-0.585,1.571-0.684l0.251-0.003c3.347,0,5.519,1.412,6.635,4.315c0.544,3.317-0.578,5.715-3.427,7.328
		l-0.416,0.235l-0.077,0.47c-0.132,0.793-0.126,1.457,0.016,2.029l0.103,0.414l0.369,0.212c0.757,0.433,1.537,0.652,2.318,0.652
		c0.199,0-0.04-0.014,0.041-0.032l10.584-0.225v31.76c0,0.574,0.416,1.113,0.375,1.611l-32.21,0.232l0.105-4.681
		c-0.058-0.815-0.014-1.546,0.026-2.189c6.757,2.918,11.87,0.779,14.938-6.118l0.084-0.237c0.822-4.802-0.492-8.674-3.919-11.509
		l-0.33-0.099c-3.754-2.131-8.068-2.448-11.068-0.937v-5.184c0-1.025,0.31-0.547,0.393-2.547h13.149L-18.839-670.05z"/>
	<path fill="#D6E1F1" d="M35.748-715.947L10.167-741.53c-0.112-0.113-1.128-1.101-2.539-1.101c-0.832,0-1.625,0.352-2.294,1.019
		l-6.847,6.849c-1.505-3.877-4.282-6.288-8.274-7.175l-0.17-0.022c-5.224-0.255-9,1.836-11.174,6.187l-0.067,0.169
		c-1.979,6.844,0.191,11.741,6.277,14.25l-7.322,7.32l12.575,12.543l0.33,0.047c0.676,0.092,1.237,0.084,1.715-0.01l0.43-0.086
		l1.104-1.829l-0.05-0.352c-0.414-2.895-0.045-5.03,1.098-6.348c1.117-1.286,3.087-1.903,5.831-1.84l0.445,0.2
		c0.693,0.191,1.23,0.403,1.598,0.633c2.516,2.413,3.112,5.004,1.822,7.916c-1.975,2.747-4.439,3.635-7.606,2.759l-0.456-0.126
		l-0.386,0.275c-0.659,0.468-1.126,0.943-1.43,1.451l-0.216,0.364l0.11,0.408c0.288,1.063,0.838,1.902,1.538,2.414l8.669,8.325
		l2.43,2.43l29.006-29.007L35.748-715.947z M9.113-701.373c1.312-2.684,1.149-6.069-0.481-10.064l-0.139-0.238
		c-2.537-3.244-5.625-4.889-9.174-4.889c-0.61,0-1.245,0.05-2.017,0.178c-4.595,1.371-7.28,3.945-8.009,7.667l-5.188-5.161
		l5.626-5.628c1.21-1.049,2.125-2.051,2.716-2.978l0.232-0.361l-0.104-0.417c-0.196-0.788-0.556-1.447-1.07-1.959l-0.33-0.33
		l-0.464,0.042c-2.989,0.278-5.338-0.481-7.11-2.32c-1.026-2.461-1.212-4.5-0.553-6.06c0.594-1.403,1.919-2.522,3.946-3.329
		c2.805-0.143,4.864,0.445,6.054,1.754c1.176,1.293,1.634,3.397,1.363,6.251l-0.045,0.468l0.333,0.333
		c0.617,0.614,1.308,0.98,2.059,1.087l0.497,0.072l10.294-10.405l23.305,22.979L7.249-691.075l-4.924-4.926
		C5.683-697.215,7.963-699.018,9.113-701.373z"/>
</g>
<path fill="#D6E1F1" d="M995.87-722.464c-1.415-3.174-3.534-3.621-6.922-4.398c-0.202-0.048-1.741-0.049-1.945-0.049
	c-26.352,0-46.902,0-73.257,0c-1.13,0-2.331,0.058-3.382,0.614c-2.731,1.467-4.363,3.479-5.041,6.512
	c-0.043,0.201,0.067,36.955,0.067,55.28c0,0.879,0.348,2.583,0.73,3.421c1.438,3.161,3.896,4.373,7.299,5.106
	c0.173,0.034,0.089,0.026,0.258,0.026c26.354,0,46.931,0.213,73.283,0.213c0.562,0,2.565-0.142,3.114-0.337
	c3.707-1.313,5.605-4.836,5.605-7.836h0.674c0-19,0-36.557,0-54.88C996.354-719.641,996.228-721.653,995.87-722.464z
	 M915.884-723.866c25.092-0.021,43.887-0.021,68.973,0c1.01,0,2.278-0.018,3.543,0.162c-0.383,0.447-0.562,0.685-0.759,0.9
	c-9.899,10.831-19.799,21.656-29.694,32.477c-1.014,1.115-2.01,2.239-3.077,3.299c-4.09,4.075-4.521,4.147-8.486-0.022
	c-5.011-5.271-9.864-10.689-14.771-16.049c-5.969-6.518-11.936-13.046-17.898-19.57c-0.223-0.245-0.432-0.514-0.877-1.041
	C914.114-723.888,914.872-723.866,915.884-723.866z M909.667-663.433c-0.151-0.987-0.079-1.904-0.083-2.894
	c-0.027-17.126-0.027-34.247,0-51.364c0-0.935,0.253-1.87,0.431-3.063c9.714,10.623,19.21,21,28.766,31.452
	c-9.503,8.679-18.975,17.333-28.445,25.985C910.229-663.331,909.771-663.419,909.667-663.433z M988.005-660.229
	c-1.062,0.121-2.119,0.357-3.182,0.357c-24.905,0.022-43.508,0.022-68.414,0c-1.046,0-2.089-0.22-3.128-0.337
	c-0.016-0.11-0.028-0.219-0.036-0.328c9.395-8.578,18.791-17.154,28.271-25.819c3.15,3.96,3.92,6.502,9.112,6.493
	c5.163-0.013,5.923-2.494,9.084-6.506c9.489,8.663,18.898,17.245,28.304,25.835C988.013-660.438,988.01-660.332,988.005-660.229z
	 M991.661-666.367c-0.005,1-0.283,1.997-0.479,3.282c-9.722-8.876-19.194-17.528-28.719-26.217
	c9.538-10.435,19.026-20.816,28.515-31.189c0.1,0.008,0.204,0.013,0.31,0.017c0.127,0.948,0.374,1.896,0.374,2.845
	C991.684-700.543,991.684-683.453,991.661-666.367z"/>
<text transform="matrix(1 0 0 1 -65.8711 -286.1377)" fill="#010101" font-family="'Montserrat-Bold'" font-size="15.6737" letter-spacing="1">PROJECTS</text>
<text transform="matrix(1 0 0 1 640.0264 -285.0244)" fill="#010101" font-family="'Montserrat-Bold'" font-size="15.6737">CALL FOR ACTION</text>
<text transform="matrix(1 0 0 1 422.2812 -285.0244)" fill="#010101" font-family="'Montserrat-Bold'" font-size="15.6737" letter-spacing="1">CONTACTS</text>
<g>
	<path fill="#010101" d="M480.51-366.503l-0.746-0.238l-0.079-0.752c0.66-2.251,0.67-4.179,0.67-6.067v-22.619
		c0-11.913-9.591-21.605-21.5-21.605c-11.913,0-21.5,9.692-21.5,21.605v22.619c0,1.854,0.517,3.821,1.167,6.016l0.323,0.755
		l-0.699,0.238c-5.832,1.855-11.063,5.498-15.179,10.531c-6.106,7.57-9.456,17.635-9.456,28.334c0-0.004,0.008-0.006,0.01-0.006
		c0.01,0,0.023,0.062,0.027,0.121l0.009,0.129l-0.046,0.6c0.01,1.344,1.197,2.932,2.657,2.932h86.371
		c1.46,0,2.646-1.588,2.646-3.045c-0.006,0.038-0.017-0.205-0.026-0.271l-0.009-0.189l0.046-0.336
		C505.195-345.842,495.047-361.854,480.51-366.503z M442.354-396.18c0-8.995,7.006-16.313,16-16.313c8.997,0,16,7.318,16,16.313
		v22.619c0,8.995-7.003,16.313-16,16.313c-8.994,0-16-7.318-16-16.313V-396.18z M418.995-329.911l0.061-0.905
		c0.604-8.499,3.385-16.068,8.049-21.846c3.68-4.508,8.354-7.652,13.518-9.073l0.554-0.156l0.322,0.47
		c4.05,5.927,10.726,9.464,17.856,9.464c7.123,0,13.794-3.535,17.846-9.453l0.324-0.474l0.551,0.153
		c11.811,3.264,20.489,15.716,21.597,30.913l0.062,0.907H418.995z"/>
	<path fill="#010101" d="M506.857-379.969l-0.749-0.239l-0.259-0.754c0.664-2.234,0.505-4.217,0.505-6.059v-22.615
		c0-5.681-1.81-11.237-5.813-15.244c-4.09-4.101-9.284-6.359-15.067-6.359c-6.896,0-13.1,3.179-17.233,8.72
		c-0.424,0.566-0.54,1.261-0.438,1.958c0.103,0.697,0.503,1.315,1.073,1.738c1.146,0.857,2.867,0.605,3.704-0.53
		c2.987-4,7.937-6.386,13.227-6.386c4.433,0,8.177,1.635,11.143,4.6c3.013,3.013,4.406,7.207,4.406,11.507v22.612
		c0,2.587-0.268,5.068-1.459,7.373c-1.721,3.444-4.45,6.154-7.989,7.623c-1.34,0.561-1.896,2.115-1.344,3.465
		c0.413,0.984,1.412,1.626,2.48,1.626c0.355,0,0.726-0.07,1.032-0.202c3.76-1.563,7.015-4.242,9.402-7.748l0.328-0.475l0.557,0.151
		c11.856,3.243,20.556,15.924,21.645,31.196l0.062,1.1h-12.074c-1.46,0-2.646,1.043-2.646,2.502c0,1.457,1.187,2.498,2.646,2.498
		h14.081c0.456,0,0.906-0.247,1.419-0.573l0.184-0.134c1.109-0.361,1.855-1.381,1.855-2.503
		C531.526-359.325,521.379-375.314,506.857-379.969z"/>
</g>
<g>
	<path fill="#010101" d="M778.124-397.101c-0.691-1.326-2.327-1.84-3.652-1.147l-14.826,7.733c-1.325,0.691-1.839,2.326-1.147,3.652
		c0.482,0.926,1.425,1.455,2.401,1.455c0.423,0,0.851-0.099,1.251-0.308l14.825-7.732
		C778.302-394.14,778.815-395.774,778.124-397.101z"/>
	<path fill="#010101" d="M745.945-409.649c0.682,0,1.364-0.256,1.893-0.771l12.943-12.642c1.068-1.045,1.089-2.759,0.045-3.828
		c-1.046-1.07-2.758-1.092-3.83-0.046l-12.943,12.642c-1.068,1.045-1.089,2.759-0.045,3.828
		C744.538-409.923,745.241-409.649,745.945-409.649z"/>
	<path fill="#010101" d="M721.922-424.166c0.355,0.155,0.725,0.229,1.089,0.229c1.041,0,2.034-0.604,2.479-1.617l7.013-15.936
		c0.603-1.368-0.019-2.967-1.388-3.568c-1.369-0.6-2.968,0.018-3.568,1.389l-7.013,15.935
		C719.932-426.366,720.553-424.769,721.922-424.166z"/>
	<path fill="#010101" d="M698.333-419.017c-1.585,0-2.833,0.441-3.708,1.316c-0.699,0.701-1.198,1.964-1.298,3.273
		c-1.162,10.258-7.275,30.801-18.733,42.256l-3.644,3.643c-2.107,2.107-2.529,5.682-1.05,8.338l-1.681,1.682
		c-2.14,2.139-3.319,4.988-3.317,8.021c0,3.033,1.179,5.882,3.319,8.02l3.642,3.645c2.139,2.139,4.987,3.316,8.021,3.316
		c3.032,0,5.881-1.178,8.02-3.316l1.68-1.68c2.288,1.278,5.442,1.115,7.54-0.38l15.72,15.719c1.166,1.168,2.721,1.811,4.378,1.811
		c1.656,0,3.211-0.643,4.376-1.809l3.643-3.645c3.418-3.419,3.418-8.981,0-12.4c-1.369-1.363-3.75-1.36-5.113,0.001l-0.911,0.91
		c-0.131,0.131-0.252,0.067-0.314,0.063c-0.026-0.183,0.298-0.86,0.453-1.188c0.684-1.438,1.829-3.844-0.489-6.159
		c-0.894-0.896-1.914-1.349-3.031-1.349c-1.16,0-2.21,0.478-3.061,0.865c-0.416,0.19-0.987,0.452-1.182,0.506
		c-0.027-0.188,0.367-0.915,0.534-1.225c0.635-1.171,1.565-2.885,0.615-4.668c9.338-5.301,21.472-9.398,31.075-10.482
		c1.484-0.117,2.496-0.52,3.281-1.303c4.571-4.57-3.259-19.297-18.215-34.254C717.202-411.169,704.925-419.017,698.333-419.017z
		 M715.098-343.023c-0.674,1.535-1.692,3.854,0.476,6.021c1.879,1.877,5.058,1.876,6.936-0.001l0.081-0.082
		c0.941,1.591,0.708,3.638-0.64,4.986l-3.646,3.642c-0.576,0.58-1.591,0.581-2.17,0l-15.655-15.656l1.084-1.086
		c1.856-1.855,4.016-3.649,6.302-5.242c-0.029,0.07-0.061,0.138-0.089,0.203c-0.629,1.406-1.681,3.762,0.513,5.951
		c1.879,1.877,5.056,1.879,6.938-0.002c0.128-0.13,0.238-0.09,0.322-0.039C715.59-344.142,715.271-343.416,715.098-343.023z
		 M672.772-352.136l-1.823,1.823c-0.949,0.952-0.949,2.337,0.001,3.294c0.463,0.461,1.047,0.714,1.646,0.714
		c0.601,0,1.185-0.255,1.646-0.716l1.823-1.822c0.461-0.462,0.715-1.047,0.715-1.648c0-0.264-0.05-0.525-0.145-0.774
		c0.645,0.706,1.306,1.399,1.966,2.06c2.221,2.221,4.81,4.444,7.042,6.056l-1.034,1.034c-1.26,1.26-2.939,1.953-4.728,1.953
		s-3.467-0.693-4.729-1.953l-3.642-3.645c-2.604-2.607-2.604-6.85,0.001-9.455l1.031-1.033c0.84,1.162,1.843,2.419,2.924,3.67
		C674.597-353.047,673.515-352.874,672.772-352.136z M715.386-392.674c1.803,0,3.486,0.69,4.74,1.942
		c2.316,2.316,2.618,5.873,0.801,8.504c-1.6-1.445-3.176-2.895-4.793-4.513c-1.537-1.534-3.014-3.142-4.506-4.792
		C712.721-392.271,714.034-392.674,715.386-392.674z M723.419-394.022c-2.152-2.154-5.008-3.34-8.04-3.34
		c-2.437,0-4.813,0.793-6.756,2.244c-8.582-10.621-11.44-18.421-10.701-19.289c0.033-0.033,0.177-0.095,0.486-0.095
		c3.186,0,14.992,6.118,27.184,18.308c13.676,13.678,19.39,26.492,18.212,27.67c0,0-0.096,0.074-0.429,0.074
		c-2.327,0-9.673-3.344-18.844-10.765C727.905-383.585,727.466-389.976,723.419-394.022z M712.843-383.446
		c7.181,7.184,14.816,13.109,21.204,16.486c-11.41,2.831-26.345,9.035-35.774,18.467l-3.643,3.645
		c-0.332,0.332-0.753,0.492-1.287,0.492c-3.309,0-9.221-5.914-11.448-8.143c-1.419-1.418-4.062-4.059-5.961-6.686
		c-1.479-2.051-2.976-4.764-1.691-6.049l3.643-3.643c9.438-9.436,15.642-24.369,18.471-35.776
		C699.733-398.263,705.66-390.626,712.843-383.446z"/>
</g>
<g>
	<path fill="#010101" d="M1.207-366.548l-7.932,0.135c1.505-3.223,1.836-6.102,0.988-8.574c-0.971-2.824-3.479-5.103-7.454-6.773
		l-0.266-0.07c-4.788-0.584-8.565,0.904-11.246,4.58c-2.048,3.79-2.215,7.451-0.501,10.906l-7.059,0.178l-0.003-7.937
		c0.117-1.636,0.056-2.952-0.184-4.026l-0.093-0.416l-0.365,0.023c-0.696-0.419-1.417-0.389-2.142-0.389h-0.467l-0.299,0.114
		c-1.898,2.282-4.034,3.267-6.528,3.267l-0.146-0.062c-2.462-1.014-4.033-2.354-4.669-3.921c-0.573-1.411-0.427-3.157,0.436-5.159
		c3.765-4.176,7.223-4.048,10.906,0.406l0.299,0.355h0.469c0.872,0,1.622-0.232,2.226-0.688l0.399,0.305l-0.089-18.616h-41.091
		l-0.267-0.408c-0.561,0.419-0.989,0.617-1.272,1.191l-0.383,0.059l-0.117,76.373v0.41l0.567,0.29
		c0.43,0.434,1.028,0.734,1.505,0.894l76.705,0.051l1.436-1.122l0.238-1.828L4.73-366.2L1.207-366.548z M-51.451-377.926
		l-0.319,0.167c3.445,6.245,8.125,8.191,14.125,5.64v5.702c-2,0.098-0.59-0.494-1.472-0.494h-11.059l-0.195,0.282
		c-0.687,0.136-1.818,0.547-2.373,0.96l-0.902,0.43v2.34l0.952,0.295c2.794,1.83,4.237,4.094,3.888,6.918
		c-0.865,2.626-2.279,4.236-4.575,4.918l-0.172,0.004c-3.152,0-5.241-1.271-6.446-3.889c-0.827-3.521,0.035-6.115,3.084-7.928
		l0.27-0.291v-2.482l-0.317-0.276c-0.183-0.091-0.337-0.28-0.705-0.557l-0.215-0.205l-12.806,0.233l-0.607-33.375l33.65-0.23v8.686
		c-3-1.673-7.109-1.404-10.533,0.775l0.062,0.104C-51.999-386.673-52.989-382.544-51.451-377.926z M-64.608-353.527
		c0.86,2.775,3.161,5.116,6.836,6.897l0.252,0.098c5.039,0.943,9.034-0.539,11.958-4.462c2.039-3.774,2.213-7.917,0.523-10.917
		h5.504c1.019,0,1.888,0.05,1.888,0.135v13.051l1.212,1.643l0.697,0.083c0.807,0.135,1.564,0.124,2.131-0.016l0.398-0.088
		l0.24-0.292c1.542-2.112,3.324-3.139,5.42-3.139c0.403,0,0.832,0.039,1.112,0.077c3.053,1.049,4.644,2.918,4.857,5.714
		c-0.308,3.033-1.736,4.965-4.223,5.865c-3.081,0.572-5.399-0.342-7.131-2.842l-0.258-0.373l-2.481-0.275l-1.374,1.31l-0.601,1.534
		v9.271c0,0.576,0.763,2.342,0.725,2.342h-33.71c-0.089,0-0.098-1.867-0.022-2.531l-0.235-31.469h7.351
		C-65.003-358.911-65.363-355.968-64.608-353.527z M-18.839-362.05c0.525-0.395,0.932-0.774,1.209-1.19l0.243-0.35l-0.514-2.067
		l-0.284-0.209c-2.372-1.779-3.623-3.573-3.716-5.338c-0.089-1.678,0.861-3.475,2.826-5.347l0.461-0.173
		c0.622-0.356,1.149-0.586,1.571-0.684l0.251-0.004c3.347,0,5.519,1.412,6.635,4.314c0.544,3.318-0.578,5.716-3.427,7.328
		l-0.416,0.235l-0.077,0.47c-0.132,0.793-0.126,1.457,0.016,2.029l0.103,0.414l0.369,0.211c0.757,0.434,1.537,0.652,2.318,0.652
		c0.199,0-0.04-0.014,0.041-0.032l10.584-0.225v31.761c0,0.574,0.416,1.112,0.375,1.611l-32.21,0.232l0.105-4.682
		c-0.058-0.814-0.014-1.545,0.026-2.189c6.757,2.919,11.87,0.779,14.938-6.117l0.084-0.237c0.822-4.802-0.492-8.675-3.919-11.509
		l-0.33-0.1c-3.754-2.131-8.068-2.447-11.068-0.937v-5.185c0-1.025,0.31-0.547,0.393-2.547h13.149L-18.839-362.05z"/>
	<path fill="#010101" d="M35.748-407.947L10.167-433.53c-0.112-0.112-1.128-1.101-2.539-1.101c-0.832,0-1.625,0.353-2.294,1.019
		l-6.847,6.85c-1.505-3.877-4.282-6.289-8.274-7.176l-0.17-0.022c-5.224-0.255-9,1.837-11.174,6.187l-0.067,0.17
		c-1.979,6.844,0.191,11.74,6.277,14.25l-7.322,7.32l12.575,12.543l0.33,0.047c0.676,0.092,1.237,0.084,1.715-0.011l0.43-0.087
		l1.104-1.828l-0.05-0.352c-0.414-2.896-0.045-5.031,1.098-6.349c1.117-1.286,3.087-1.903,5.831-1.84l0.445,0.2
		c0.693,0.191,1.23,0.402,1.598,0.633c2.516,2.413,3.112,5.004,1.822,7.916c-1.975,2.746-4.439,3.635-7.606,2.759l-0.456-0.126
		l-0.386,0.275c-0.659,0.467-1.126,0.942-1.43,1.45l-0.216,0.364l0.11,0.408c0.288,1.062,0.838,1.901,1.538,2.413l8.669,8.325
		l2.43,2.43l29.006-29.006L35.748-407.947z M9.113-393.372c1.312-2.685,1.149-6.07-0.481-10.064l-0.139-0.238
		c-2.537-3.244-5.625-4.889-9.174-4.889c-0.61,0-1.245,0.05-2.017,0.178c-4.595,1.371-7.28,3.945-8.009,7.668l-5.188-5.162
		l5.626-5.628c1.21-1.05,2.125-2.051,2.716-2.978l0.232-0.361l-0.104-0.416c-0.196-0.788-0.556-1.447-1.07-1.96l-0.33-0.329
		l-0.464,0.041c-2.989,0.278-5.338-0.48-7.11-2.319c-1.026-2.462-1.212-4.499-0.553-6.06c0.594-1.404,1.919-2.523,3.946-3.329
		c2.805-0.143,4.864,0.445,6.054,1.754c1.176,1.294,1.634,3.397,1.363,6.251l-0.045,0.469l0.333,0.332
		c0.617,0.613,1.308,0.98,2.059,1.088l0.497,0.071l10.294-10.405l23.305,22.98L7.249-383.075l-4.924-4.926
		C5.683-389.216,7.963-391.019,9.113-393.372z"/>
</g>
<text transform="matrix(1 0 0 1 920.0928 -285.0244)" fill="#010101" font-family="'Montserrat-Bold'" font-size="15.6737" letter-spacing="1">INBOX</text>
<path fill="#010101" d="M995.87-414.464c-1.415-3.174-3.534-3.621-6.922-4.398c-0.202-0.049-1.741-0.049-1.945-0.049
	c-26.352,0-46.902,0-73.257,0c-1.13,0-2.331,0.059-3.382,0.614c-2.731,1.468-4.363,3.479-5.041,6.513
	c-0.043,0.201,0.067,36.954,0.067,55.279c0,0.879,0.348,2.583,0.73,3.422c1.438,3.16,3.896,4.372,7.299,5.105
	c0.173,0.034,0.089,0.026,0.258,0.026c26.354,0,46.931,0.214,73.283,0.214c0.562,0,2.565-0.143,3.114-0.338
	c3.707-1.312,5.605-4.836,5.605-7.836h0.674c0-19,0-36.557,0-54.88C996.354-411.641,996.228-413.653,995.87-414.464z
	 M915.884-415.866c25.092-0.021,43.887-0.021,68.973,0c1.01,0,2.278-0.018,3.543,0.162c-0.383,0.447-0.562,0.685-0.759,0.9
	c-9.899,10.83-19.799,21.655-29.694,32.477c-1.014,1.115-2.01,2.238-3.077,3.299c-4.09,4.075-4.521,4.148-8.486-0.021
	c-5.011-5.271-9.864-10.689-14.771-16.049c-5.969-6.518-11.936-13.047-17.898-19.57c-0.223-0.244-0.432-0.514-0.877-1.04
	C914.114-415.888,914.872-415.866,915.884-415.866z M909.667-355.433c-0.151-0.986-0.079-1.904-0.083-2.895
	c-0.027-17.126-0.027-34.246,0-51.363c0-0.936,0.253-1.87,0.431-3.063c9.714,10.623,19.21,21.001,28.766,31.452
	c-9.503,8.68-18.975,17.332-28.445,25.984C910.229-355.331,909.771-355.419,909.667-355.433z M988.005-352.229
	c-1.062,0.121-2.119,0.357-3.182,0.357c-24.905,0.022-43.508,0.022-68.414,0c-1.046,0-2.089-0.221-3.128-0.337
	c-0.016-0.11-0.028-0.22-0.036-0.327c9.395-8.578,18.791-17.154,28.271-25.82c3.15,3.961,3.92,6.503,9.112,6.494
	c5.163-0.014,5.923-2.494,9.084-6.506c9.489,8.662,18.898,17.244,28.304,25.834C988.013-352.438,988.01-352.331,988.005-352.229z
	 M991.661-358.366c-0.005,1-0.283,1.996-0.479,3.281c-9.722-8.876-19.194-17.528-28.719-26.217
	c9.538-10.435,19.026-20.816,28.515-31.189c0.1,0.008,0.204,0.014,0.31,0.018c0.127,0.948,0.374,1.896,0.374,2.846
	C991.684-392.544,991.684-375.453,991.661-358.366z"/>
<text transform="matrix(1 0 0 1 1159.2178 -285.0254)" fill="#010101" font-family="'Montserrat-Bold'" font-size="15.6737" letter-spacing="1">IDEAS</text>
<g>
	<path fill="#010101" d="M1186.479-387.196c0.285,0,0.575-0.06,0.851-0.182c1.043-0.473,1.514-1.699,1.042-2.746l-1.215-2.701
		c-0.47-1.049-1.698-1.514-2.746-1.043c-1.044,0.471-1.513,1.699-1.044,2.746l1.215,2.701
		C1184.927-387.652,1185.685-387.196,1186.479-387.196z"/>
	<path fill="#010101" d="M1247.124-432.554c-0.6-1.263-2.072-1.851-3.377-1.35l-54.544,21.006c-0.722-0.372-1.476-0.666-2.253-0.9
		c-0.017-0.092-0.021-0.18-0.053-0.271l-3.846-12.434c-0.309-1.001-1.18-1.729-2.221-1.862c-1.033-0.128-2.064,0.358-2.614,1.254
		l-10.503,17.102c-0.065,0.108-0.11,0.224-0.16,0.331l-8.481,2.97c-8.989,3.142-16.187,10.015-19.739,18.845l-11.932,29.637
		c-0.45,1.121-0.094,2.401,0.866,3.133l39.637,30.051c0.47,0.358,1.042,0.545,1.613,0.545c0.372,0,0.748-0.079,1.095-0.236
		c0.893-0.398,1.496-1.257,1.572-2.232l2.058-26.354c0.115-1.473-0.987-2.759-2.463-2.873c-1.474-0.111-2.759,0.987-2.87,2.456
		l-1.676,21.473l-34.106-25.858l11.17-27.74c2.978-7.403,9.009-13.162,16.542-15.797l19.781-6.921
		c3.313-1.157,6.998,0.058,8.975,2.955l21.703,31.847c2.648,3.888,2.864,8.85,0.562,12.95l-2.235,3.987
		c-1.368,2.435-4.38,3.338-6.861,2.057l-28.843-14.92c-1.73-0.895-2.867-2.59-3.031-4.537l-1.434-16.821
		c-0.127-1.472-1.414-2.569-2.893-2.438c-1.473,0.126-2.566,1.421-2.438,2.894l1.431,16.82c0.324,3.787,2.532,7.09,5.905,8.836
		l28.844,14.916c5.058,2.616,11.199,0.777,13.987-4.19l2.235-3.987c3.301-5.882,2.99-13-0.809-18.578l-17.194-25.232l47.507-27.059
		C1247.245-429.776,1247.728-431.29,1247.124-432.554z M1178.855-413.631l-3.356,1.175l4.188-6.826l1.568,5.066
		C1180.449-414.096,1179.644-413.909,1178.855-413.631z M1195.503-406.458l-1.486-2.181c-0.069-0.103-0.148-0.197-0.221-0.294
		l18.688-7.199L1195.503-406.458z"/>
</g>
<text transform="matrix(1 0 0 1 1159.2178 -591.0254)" fill="#D6E1F1" font-family="'Montserrat-Bold'" font-size="15.6737" letter-spacing="1">IDEAS</text>
<g>
	<path fill="#D6E1F1" d="M1186.479-693.196c0.285,0,0.575-0.06,0.851-0.182c1.043-0.472,1.514-1.7,1.042-2.746l-1.215-2.702
		c-0.47-1.048-1.698-1.514-2.746-1.042c-1.044,0.471-1.513,1.699-1.044,2.746l1.215,2.702
		C1184.927-693.652,1185.685-693.196,1186.479-693.196z"/>
	<path fill="#D6E1F1" d="M1247.124-738.554c-0.6-1.263-2.072-1.851-3.377-1.35l-54.544,21.005c-0.722-0.372-1.476-0.666-2.253-0.9
		c-0.017-0.092-0.021-0.18-0.053-0.271l-3.846-12.434c-0.309-1.001-1.18-1.729-2.221-1.863c-1.033-0.128-2.064,0.359-2.614,1.254
		l-10.503,17.102c-0.065,0.108-0.11,0.224-0.16,0.331l-8.481,2.97c-8.989,3.142-16.187,10.014-19.739,18.845l-11.932,29.637
		c-0.45,1.121-0.094,2.401,0.866,3.133l39.637,30.051c0.47,0.358,1.042,0.544,1.613,0.544c0.372,0,0.748-0.079,1.095-0.236
		c0.893-0.399,1.496-1.257,1.572-2.233l2.058-26.354c0.115-1.473-0.987-2.758-2.463-2.873c-1.474-0.111-2.759,0.988-2.87,2.457
		l-1.676,21.473l-34.106-25.859l11.17-27.74c2.978-7.403,9.009-13.162,16.542-15.797l19.781-6.92
		c3.313-1.157,6.998,0.057,8.975,2.955l21.703,31.847c2.648,3.888,2.864,8.85,0.562,12.95l-2.235,3.987
		c-1.368,2.435-4.38,3.338-6.861,2.057l-28.843-14.92c-1.73-0.896-2.867-2.59-3.031-4.538l-1.434-16.821
		c-0.127-1.472-1.414-2.569-2.893-2.438c-1.473,0.125-2.566,1.421-2.438,2.894l1.431,16.82c0.324,3.788,2.532,7.09,5.905,8.836
		l28.844,14.916c5.058,2.617,11.199,0.778,13.987-4.19l2.235-3.987c3.301-5.882,2.99-13-0.809-18.579l-17.194-25.232l47.507-27.058
		C1247.245-735.776,1247.728-737.29,1247.124-738.554z M1178.855-719.631l-3.356,1.175l4.188-6.827l1.568,5.067
		C1180.449-720.096,1179.644-719.909,1178.855-719.631z M1195.503-712.458l-1.486-2.181c-0.069-0.103-0.148-0.197-0.221-0.294
		l18.688-7.199L1195.503-712.458z"/>
</g>
<path fill="#25272E" d="M1019.164-141.456c-5.118,0-9.269,4.148-9.269,9.267c0,1.896,0.57,3.653,1.546,5.121l-6.168,6.17
	c-0.633,0.633-0.633,1.658,0,2.294c0.316,0.313,0.732,0.475,1.148,0.475c0.415,0,0.828-0.161,1.146-0.475l6.117-6.12
	c1.535,1.131,3.426,1.805,5.479,1.805c5.118,0,9.269-4.148,9.269-9.27C1028.433-137.308,1024.282-141.456,1019.164-141.456z
	 M1019.164-126.318c-3.242,0-5.87-2.628-5.87-5.871c0-3.24,2.628-5.868,5.87-5.868s5.87,2.628,5.87,5.868
	C1025.034-128.946,1022.406-126.318,1019.164-126.318z"/>
<g id="R3oGOx.tif_2_">
	<g>
		<g>
			<path fill-rule="evenodd" clip-rule="evenodd" fill="#D6E1F1" d="M395.646-21.656c1.024,0.583,2.046,1.166,3.07,1.749
				c0.445,0.255,0.89,0.513,1.33,0.769c0.456,0.266,0.562,0.644,0.302,1.094c-0.139,0.247-0.279,0.496-0.431,0.742
				c-0.223,0.363-0.616,0.466-0.989,0.252c-1.401-0.806-2.805-1.617-4.205-2.429c-0.396-0.229-0.498-0.612-0.278-1.014
				c0.11-0.199,0.233-0.39,0.337-0.592c0.131-0.267,0.313-0.472,0.6-0.571C395.471-21.656,395.559-21.656,395.646-21.656z"/>
			<path fill-rule="evenodd" clip-rule="evenodd" fill="#D6E1F1" d="M377.951-1.187c0.106-0.173,0.259-0.226,0.462-0.226
				c1.779,0.008,3.561,0.003,5.34,0.006c0.356,0,0.449,0.094,0.449,0.457c0,0.185,0.002,0.366,0,0.551
				c-0.005,0.249-0.125,0.375-0.373,0.393c-0.051,0.004-0.102,0.003-0.153,0.003c-1.731,0-3.457-0.003-5.187,0.003
				c-0.219,0-0.404-0.032-0.538-0.22C377.951-0.542,377.951-0.864,377.951-1.187z"/>
			<path fill-rule="evenodd" clip-rule="evenodd" fill="#D6E1F1" d="M399.255-15.179c-0.027,0.067-0.061,0.214-0.131,0.337
				c-2.387,4.137-4.771,8.273-7.17,12.404c-0.11,0.193-0.326,0.372-0.532,0.459c-1.576,0.651-3.163,1.277-4.745,1.91
				c-0.322,0.127-0.494,0.03-0.545-0.307c-0.246-1.688-0.49-3.375-0.733-5.065c-0.036-0.255,0.009-0.492,0.14-0.718
				c2.386-4.131,4.77-8.26,7.156-12.39c0.248-0.433,0.629-0.536,1.06-0.288c1.71,0.982,3.415,1.97,5.121,2.954
				C399.114-15.741,399.247-15.539,399.255-15.179z M396.871-14.584c-0.018-0.29-0.142-0.498-0.427-0.665
				c-0.676-0.393-1.355-0.785-2.035-1.175c-0.438-0.254-0.82-0.149-1.076,0.291c-0.305,0.526-0.605,1.054-0.912,1.578
				c-1.432,2.481-2.863,4.96-4.295,7.441c-0.266,0.457-0.166,0.828,0.289,1.093c0.681,0.393,1.354,0.785,2.034,1.175
				c0.401,0.229,0.794,0.129,1.022-0.261c1.755-3.038,3.508-6.076,5.259-9.114C396.795-14.332,396.824-14.464,396.871-14.584z"/>
		</g>
	</g>
</g>
<rect x="835.442" y="-140.687" fill-rule="evenodd" clip-rule="evenodd" fill="#FFFFFF" width="30.045" height="30.043"/>
<rect x="887.208" y="-140.687" fill-rule="evenodd" clip-rule="evenodd" fill="#FFFFFF" width="30.043" height="30.043"/>
<path fill-rule="evenodd" clip-rule="evenodd" fill="#25272E" d="M857.644-131.476c-0.367,0.15-0.663,0.256-0.943,0.393
	c-0.57,0.275-1.05,0.256-1.602-0.154c-1.294-0.963-3.327-0.467-4.193,1.029c-0.354,0.617-0.434,1.271-0.379,1.957
	c0.016,0.203-0.027,0.25-0.248,0.228c-1.671-0.175-3.166-0.771-4.484-1.813c-0.515-0.406-0.967-0.879-1.457-1.354
	c-0.493,1.154-0.529,2.246,0.181,3.291c0.116,0.172,0.269,0.316,0.398,0.479c0.046,0.057,0.13,0.115,0.085,0.195
	c-0.056,0.098-0.16,0.046-0.237,0.025c-0.2-0.053-0.397-0.117-0.592-0.189c-0.222-0.082-0.298-0.019-0.259,0.216
	c0.189,1.142,0.777,1.995,1.816,2.528c0.111,0.059,0.246,0.082,0.369,0.261c-0.246,0-0.445-0.001-0.646,0
	c-0.413,0.003-0.472,0.088-0.27,0.454c0.389,0.713,1.004,1.166,1.744,1.462c0.232,0.091,0.467,0.169,0.721,0.259
	c-1.236,0.951-2.661,1.152-4.15,1.18c0.07,0.164,0.159,0.189,0.234,0.23c2.223,1.195,4.537,1.414,6.961,0.699
	c3.037-0.897,5.673-4.09,5.863-7.949c0.021-0.408,0.131-0.735,0.431-1.017c0.278-0.261,0.528-0.551,0.788-0.831
	c0.07-0.077,0.202-0.166,0.139-0.271c-0.066-0.114-0.195-0.018-0.293,0.013c-0.188,0.061-0.371,0.127-0.559,0.184
	c-0.115,0.033-0.27,0.102-0.34,0.008c-0.09-0.119,0.072-0.207,0.143-0.291C857.157-130.606,857.452-130.953,857.644-131.476z"/>
<rect x="785.458" y="-140.687" fill-rule="evenodd" clip-rule="evenodd" fill="#FFFFFF" width="30.043" height="30.043"/>
<g>
	<path fill-rule="evenodd" clip-rule="evenodd" fill="#25272E" d="M895.688-130.678c4.353,0,8.583,0,12.954,0
		c-0.208,0.245-0.313,0.39-0.437,0.515c-1.696,1.707-3.39,3.411-5.089,5.113c-0.72,0.721-1.146,0.724-1.87,0.002
		c-1.734-1.727-3.462-3.459-5.191-5.189C895.956-130.337,895.874-130.455,895.688-130.678z"/>
	<path fill-rule="evenodd" clip-rule="evenodd" fill="#25272E" d="M895.717-120.652c1.55-1.535,2.983-2.952,4.459-4.412
		c0.573,0.428,1.001,1.251,1.972,1.265c0.986,0.014,1.438-0.775,1.977-1.215c1.473,1.461,2.916,2.889,4.402,4.362
		C904.282-120.652,900.054-120.652,895.717-120.652z"/>
	<path fill-rule="evenodd" clip-rule="evenodd" fill="#25272E" d="M909.183-129.793c0,2.695,0,5.536,0,8.367
		c-1.416-1.45-2.816-2.882-4.185-4.28C906.321-126.999,907.769-128.413,909.183-129.793z"/>
	<path fill-rule="evenodd" clip-rule="evenodd" fill="#25272E" d="M899.35-125.568c-1.308,1.288-2.745,2.698-4.195,4.126
		c0-2.793,0-5.633,0-8.4C896.538-128.434,897.954-126.992,899.35-125.568z"/>
</g>
<g id="_x34_qj3gc.tif_28_">
	<g>
		<path fill="#25272E" d="M801.87-122.82c0.413,0.505,0.486,1.072,0.477,1.664s-0.008,1.185-0.004,1.778
			c0.002,0.337,0.162,0.467,0.49,0.407c0.107-0.018,0.215-0.059,0.318-0.097c3.391-1.286,5.425-4.832,4.827-8.404
			c-0.696-4.156-4.62-6.968-8.778-6.291c-3.625,0.592-6.339,3.639-6.422,7.307c-0.061,2.686,1.021,4.866,3.201,6.448
			c0.572,0.413,1.246,0.691,1.889,0.996c0.336,0.157,0.621,0.035,0.639-0.24c0.031-0.485,0.009-0.973,0.009-1.407
			c-0.37,0-0.692,0.016-1.014-0.004c-0.751-0.042-1.319-0.357-1.616-1.092c-0.174-0.433-0.443-0.796-0.85-1.051
			c-0.107-0.068-0.182-0.193-0.271-0.29c0.017-0.041,0.032-0.082,0.048-0.122c0.223,0.018,0.455,0,0.662,0.061
			c0.409,0.119,0.664,0.434,0.889,0.779c0.464,0.717,1.201,0.953,1.98,0.636c0.08-0.034,0.166-0.111,0.201-0.19
			c0.128-0.289,0.238-0.586,0.355-0.888c0-0.003-0.018-0.022-0.035-0.024c-0.066-0.016-0.133-0.021-0.199-0.031
			c-0.689-0.114-1.336-0.32-1.921-0.729c-1.294-0.902-1.646-3.609-0.61-4.835c0.137-0.163,0.124-0.312,0.117-0.51
			c-0.02-0.482,0.019-0.971,0.049-1.453c0.022-0.321,0.242-0.392,0.497-0.293c0.505,0.197,0.997,0.432,1.501,0.637
			c0.133,0.053,0.293,0.1,0.426,0.073c1.131-0.247,2.258-0.249,3.389-0.001c0.133,0.027,0.295-0.017,0.427-0.069
			c0.524-0.211,1.038-0.448,1.564-0.651c0.22-0.086,0.374,0.008,0.439,0.26c0.135,0.518,0.188,1.029,0.059,1.555
			c-0.026,0.105-0.024,0.261,0.035,0.334c0.568,0.706,0.712,1.516,0.667,2.394c-0.084,1.63-0.925,2.731-2.438,3.14
			C802.558-122.943,802.237-122.896,801.87-122.82z"/>
		<path fill-rule="evenodd" clip-rule="evenodd" fill="#25272E" d="M801.87-122.82c0.367-0.075,0.688-0.123,0.998-0.206
			c1.513-0.408,2.354-1.51,2.438-3.14c0.045-0.878-0.099-1.688-0.667-2.394c-0.06-0.073-0.062-0.229-0.035-0.334
			c0.129-0.525,0.076-1.037-0.059-1.555c-0.065-0.252-0.22-0.346-0.439-0.26c-0.526,0.203-1.04,0.44-1.564,0.651
			c-0.132,0.053-0.294,0.097-0.427,0.069c-1.131-0.248-2.258-0.246-3.389,0.001c-0.133,0.026-0.293-0.021-0.426-0.073
			c-0.504-0.205-0.996-0.439-1.501-0.637c-0.255-0.099-0.475-0.028-0.497,0.293c-0.03,0.482-0.068,0.971-0.049,1.453
			c0.007,0.197,0.02,0.347-0.117,0.51c-1.035,1.226-0.684,3.933,0.61,4.835c0.585,0.409,1.231,0.615,1.921,0.729
			c0.066,0.01,0.133,0.016,0.199,0.031c0.018,0.002,0.035,0.021,0.035,0.024c-0.117,0.302-0.228,0.599-0.355,0.888
			c-0.035,0.079-0.121,0.156-0.201,0.19c-0.779,0.317-1.517,0.081-1.98-0.636c-0.225-0.346-0.479-0.66-0.889-0.779
			c-0.207-0.061-0.439-0.043-0.662-0.061c-0.016,0.04-0.031,0.081-0.048,0.122c0.089,0.097,0.163,0.222,0.271,0.29
			c0.406,0.255,0.676,0.618,0.85,1.051c0.297,0.734,0.865,1.05,1.616,1.092c0.321,0.02,0.644,0.004,1.014,0.004
			c0,0.435,0.022,0.922-0.009,1.407c-0.018,0.275-0.303,0.397-0.639,0.24c-0.643-0.305-1.316-0.583-1.889-0.996
			c-2.18-1.582-3.262-3.763-3.201-6.448c0.083-3.668,2.797-6.715,6.422-7.307c4.158-0.677,8.082,2.135,8.778,6.291
			c0.598,3.572-1.437,7.118-4.827,8.404c-0.104,0.038-0.211,0.079-0.318,0.097c-0.328,0.06-0.488-0.07-0.49-0.407
			c-0.004-0.594-0.006-1.187,0.004-1.778S802.283-122.315,801.87-122.82z"/>
	</g>
</g>
<g>
	<path fill="#25272E" d="M-148.934-150.688h29.853v7.696h-18.688v5.73h17.336v7.351h-17.336v7.107h19.229v8.163h-30.394V-150.688z"
		/>
	<path fill="#25272E" d="M-112.393-114.641v-36.048h18.563c3.444,0,6.075,0.296,7.895,0.885c1.819,0.592,3.286,1.685,4.401,3.284
		c1.115,1.597,1.672,3.545,1.672,5.839c0,2.001-0.426,3.727-1.279,5.177s-2.025,2.627-3.519,3.527
		c-0.95,0.574-2.255,1.051-3.911,1.427c1.326,0.444,2.293,0.888,2.899,1.33c0.409,0.294,1.003,0.926,1.781,1.896
		c0.778,0.967,1.298,1.714,1.561,2.238l5.395,10.445h-12.587l-5.954-11.017c-0.754-1.425-1.426-2.351-2.017-2.777
		c-0.803-0.557-1.713-0.837-2.729-0.837h-0.982v14.631H-112.393z M-101.204-136.082h4.696c0.508,0,1.491-0.163,2.951-0.491
		c0.737-0.147,1.339-0.524,1.807-1.132c0.467-0.605,0.701-1.303,0.701-2.091c0-1.163-0.369-2.057-1.107-2.681
		c-0.737-0.621-2.123-0.934-4.155-0.934h-4.893V-136.082z"/>
	<path fill="#25272E" d="M-71.295-150.688h29.852v7.696h-18.688v5.73h17.336v7.351h-17.336v7.107h19.229v8.163h-30.393V-150.688z"/>
	<path fill="#25272E" d="M-35.273-150.688h11.14v12.615h12.171v-12.615h11.189v36.048h-11.189v-14.582h-12.171v14.582h-11.14
		V-150.688z"/>
	<path fill="#25272E" d="M5.014-150.688h10.58l3.809,20.181l5.576-20.181H35.52l5.589,20.153l3.812-20.153h10.526l-7.946,36.048
		H36.577l-6.322-22.695l-6.298,22.695H13.033L5.014-150.688z"/>
	<path fill="#25272E" d="M103.967-150.688h10.4l13.574,19.944v-19.944h10.5v36.048h-10.5l-13.5-19.793v19.793h-10.475V-150.688z"/>
	<g>
		<path fill="none" d="M95.438-132.57c0,10.924-7.525,16.833-16.987,16.833c-9.46,0-17.098-5.71-17.098-16.634
			c0-10.923,8.375-16.922,17.837-16.922C88.646-149.293,95.438-143.493,95.438-132.57z"/>
		<text transform="matrix(-0.6939 0.7201 -0.7201 -0.6939 90.5347 -122.2324)"><tspan x="0" y="0" fill="#72BE9B" font-family="'AvenirNext-Medium'" font-size="6.2974"> </tspan><tspan x="1.87" y="0.021" fill="#72BE9B" font-family="'AvenirNext-Medium'" font-size="6.2974" rotate="8.186"> </tspan><tspan x="3.684" y="0.289" fill="#72BE9B" font-family="'AvenirNext-Medium'" font-size="6.2974" rotate="16.712">(</tspan><tspan x="5.777" y="0.85" fill="#72BE9B" font-family="'AvenirNext-Medium'" font-size="6.2974" rotate="28.217">3</tspan><tspan x="9.157" y="2.69" fill="#72BE9B" font-family="'AvenirNext-Medium'" font-size="6.2974" rotate="40.612">8</tspan><tspan x="12.15" y="5.356" fill="#72BE9B" font-family="'AvenirNext-Medium'" font-size="6.2974" rotate="49.984">°</tspan><tspan x="13.942" y="7.425" fill="#72BE9B" font-family="'AvenirNext-Medium'" font-size="6.2974" rotate="60.053">4</tspan><tspan x="15.856" y="10.738" fill="#72BE9B" font-family="'AvenirNext-Medium'" font-size="6.2974" rotate="73.801">3</tspan><tspan x="16.826" y="14.498" fill="#72BE9B" font-family="'AvenirNext-Medium'" font-size="6.2974" rotate="85.647">.</tspan><tspan x="17.063" y="16.238" fill="#72BE9B" font-family="'AvenirNext-Medium'" font-size="6.2974" rotate="98.103">0</tspan><tspan x="16.538" y="19.905" fill="#72BE9B" font-family="'AvenirNext-Medium'" font-size="6.2974" rotate="114">0</tspan><tspan x="14.962" y="23.379" fill="#72BE9B" font-family="'AvenirNext-Medium'" font-size="6.2974" rotate="127.804">0</tspan><tspan x="12.551" y="26.454" fill="#72BE9B" font-family="'AvenirNext-Medium'" font-size="6.2974" rotate="139.199">2</tspan><tspan x="9.475" y="28.97" fill="#72BE9B" font-family="'AvenirNext-Medium'" font-size="6.2974" rotate="148.856">’</tspan><tspan x="7.836" y="29.937" fill="#72BE9B" font-family="'AvenirNext-Medium'" font-size="6.2974" rotate="156.099"> </tspan><tspan x="6.389" y="30.783" fill="#72BE9B" font-family="'AvenirNext-Medium'" font-size="6.2974" rotate="169.512">N</tspan><tspan x="1.541" y="31.476" fill="#72BE9B" font-family="'AvenirNext-Medium'" font-size="6.2974" rotate="-176.789">,</tspan><tspan x="-0.429" y="31.339" fill="#72BE9B" font-family="'AvenirNext-Medium'" font-size="6.2974" rotate="-169.086"> </tspan><tspan x="-2.179" y="31.082" fill="#72BE9B" font-family="'AvenirNext-Medium'" font-size="6.2974" rotate="-158.646">9</tspan><tspan x="-5.771" y="29.653" fill="#72BE9B" font-family="'AvenirNext-Medium'" font-size="6.2974" rotate="-146.071">9</tspan><tspan x="-9.021" y="27.376" fill="#72BE9B" font-family="'AvenirNext-Medium'" font-size="6.2974" rotate="-136.294">°</tspan><tspan x="-11.037" y="25.499" fill="#72BE9B" font-family="'AvenirNext-Medium'" font-size="6.2974" rotate="-126.727">7</tspan><tspan x="-13.322" y="22.269" fill="#72BE9B" font-family="'AvenirNext-Medium'" font-size="6.2974" rotate="-116.742">.</tspan><tspan x="-14.224" y="20.692" fill="#72BE9B" font-family="'AvenirNext-Medium'" font-size="6.2974" rotate="-105.053">9</tspan><tspan x="-15.195" y="17.152" fill="#72BE9B" font-family="'AvenirNext-Medium'" font-size="6.2974" rotate="-88.09">9</tspan><tspan x="-15.069" y="13.457" fill="#72BE9B" font-family="'AvenirNext-Medium'" font-size="6.2974" rotate="-71.265">9</tspan><tspan x="-13.829" y="9.879" fill="#72BE9B" font-family="'AvenirNext-Medium'" font-size="6.2974" rotate="-56.956">8</tspan><tspan x="-11.538" y="6.565" fill="#72BE9B" font-family="'AvenirNext-Medium'" font-size="6.2974" rotate="-48.271">’</tspan><tspan x="-10.233" y="5.122" fill="#72BE9B" font-family="'AvenirNext-Medium'" font-size="6.2974" rotate="-43.147"> </tspan><tspan x="-9.131" y="3.744" fill="#72BE9B" font-family="'AvenirNext-Medium'" font-size="6.2974" rotate="-31.305">W</tspan><tspan x="-3.712" y="0.76" fill="#72BE9B" font-family="'AvenirNext-Medium'" font-size="6.2974" rotate="-15.675">)</tspan></text>
	</g>
</g>
<g>
	<path fill="#FFFFFF" d="M689.567-119.178c0,4.385-3.555,7.939-7.939,7.939h-50.244c-4.385,0-7.939-3.555-7.939-7.939v-19.973
		c0-4.385,3.555-7.939,7.939-7.939h50.244c4.385,0,7.939,3.555,7.939,7.939V-119.178z"/>
	<path fill="#FCB832" d="M684.956-122.263c0,4.044-3.277,7.324-7.322,7.324h-13.803c-4.045,0-7.324-3.28-7.324-7.324v-13.805
		c0-4.043,3.279-7.321,7.324-7.321h13.803c4.045,0,7.322,3.278,7.322,7.321V-122.263z"/>
	<text transform="matrix(1 0 0 1 630.4775 -125.665)" fill="#FCB832" font-family="'Montserrat-Regular'" font-size="8.932">MAP</text>
</g>
<g id="_x31_hnWo8_25_">
	<g>
		<path fill="#FFFFFF" d="M1126.861-139.988c0.232,0,0.462,0,0.693,0c0.109,0.034,0.219,0.069,0.328,0.101
			c0.977,0.286,1.711,0.854,2.095,1.824c0.214,0.541,0.521,1.025,0.911,1.456c0.424,0.466,0.906,0.844,1.562,0.917
			c0.819,0.091,1.61-0.026,2.367-0.354c0.946-0.406,1.87-0.332,2.749,0.163c1.23,0.691,1.775,2.353,1.224,3.653
			c-0.261,0.613-0.423,1.245-0.427,1.914c-0.002,0.535,0.064,1.045,0.391,1.5c0.529,0.743,1.246,1.234,2.078,1.569
			c0.589,0.234,1.053,0.621,1.354,1.169c0.211,0.383,0.338,0.812,0.502,1.222c0,0.231,0,0.462,0,0.691
			c-0.035,0.118-0.07,0.235-0.105,0.352c-0.293,0.967-0.856,1.692-1.816,2.074c-0.613,0.241-1.154,0.598-1.618,1.063
			c-0.39,0.391-0.697,0.835-0.757,1.406c-0.087,0.817,0.024,1.611,0.355,2.367c0.219,0.495,0.289,1.005,0.229,1.541
			c-0.264,2.355-2.631,3.079-4.137,2.399c-0.609-0.275-1.254-0.396-1.922-0.398c-0.642-0.001-1.207,0.182-1.691,0.624
			c-0.57,0.521-0.994,1.137-1.275,1.852c-0.232,0.592-0.625,1.052-1.172,1.352c-0.383,0.21-0.814,0.339-1.223,0.503
			c-0.231,0-0.461,0-0.693,0c-0.115-0.035-0.234-0.07-0.352-0.105c-0.963-0.293-1.671-0.861-2.08-1.811
			c-0.195-0.456-0.465-0.891-0.766-1.286c-0.43-0.568-0.969-1.017-1.72-1.098c-0.812-0.086-1.597,0.031-2.343,0.356
			c-0.505,0.22-1.023,0.293-1.565,0.229c-2.3-0.275-3.044-2.565-2.394-4.089c0.267-0.622,0.413-1.266,0.412-1.941
			c0-0.51-0.081-0.996-0.393-1.426c-0.533-0.735-1.246-1.234-2.079-1.568c-0.587-0.236-1.05-0.626-1.353-1.171
			c-0.212-0.384-0.338-0.814-0.502-1.225c0-0.229,0-0.46,0-0.691c0.016-0.046,0.035-0.089,0.047-0.136
			c0.272-1.112,0.893-1.918,1.988-2.337c0.592-0.226,1.097-0.597,1.537-1.049c0.38-0.392,0.672-0.835,0.727-1.396
			c0.08-0.811-0.023-1.599-0.357-2.343c-0.318-0.715-0.323-1.444-0.101-2.169c0.497-1.619,2.399-2.471,3.964-1.789
			c0.619,0.27,1.266,0.413,1.942,0.41c0.51-0.002,0.996-0.082,1.425-0.393c0.748-0.537,1.238-1.263,1.576-2.104
			c0.168-0.413,0.434-0.748,0.761-1.046C1125.703-139.625,1126.273-139.824,1126.861-139.988z M1127.206-130.188
			c-3.112,0-5.673,2.555-5.683,5.672c-0.008,3.125,2.555,5.695,5.682,5.693c3.124-0.001,5.697-2.578,5.685-5.693
			C1132.877-127.634,1130.316-130.19,1127.206-130.188z"/>
	</g>
</g>
<g>
	<path fill="#A8B1AA" d="M2.062,0.274l68.604,0.123c0.958,0,1.813-0.143,1.813,1.912l-0.082,22.598H0.328V2.227
		C0.328,1.212,0.428,0.274,2.062,0.274"/>
	<path fill="#010101" d="M1.359,0.616h69.908c0.41,0,0.744,0.334,0.744,0.744c0,0,0,9.562,0,16.477H22.046
		c-1.831,3.312-5.358,5.561-9.407,5.561c-4.052,0-7.579-2.245-9.41-5.561H0.612c0-6.915,0-16.477,0-16.477
		C0.612,0.95,0.949,0.616,1.359,0.616L1.359,0.616z M71.268,0H1.359C0.609,0,0,0.614,0,1.36v23.758c0,0.17,0.135,0.306,0.308,0.306
		h72.012c0.17,0,0.308-0.136,0.308-0.306V1.36C72.627,0.614,72.018,0,71.268,0"/>
	<path fill="#FFFFFF" d="M20.892,11.835c0.003,4.559-3.688,8.256-8.247,8.258c-4.559,0.004-8.256-3.691-8.259-8.248
		c0-0.003,0-0.008,0-0.01c0-4.558,3.691-8.255,8.25-8.258c4.559-0.002,8.256,3.689,8.256,8.248
		C20.892,11.829,20.892,11.831,20.892,11.835"/>
	<path fill="#010101" d="M16.723,10.915c-0.237-0.516-0.583-0.773-1.04-0.773c-0.85,0-1.277,0.562-1.277,1.684
		c0,1.125,0.428,1.686,1.277,1.686c0.554,0,0.938-0.273,1.16-0.82l1.181,0.616c-0.548,0.979-1.377,1.466-2.476,1.466
		c-0.85,0-1.529-0.26-2.042-0.781c-0.51-0.52-0.765-1.238-0.765-2.156c0-0.9,0.258-1.613,0.776-2.144s1.181-0.794,1.983-0.794
		c1.163,0,1.995,0.459,2.499,1.377L16.723,10.915L16.723,10.915z M11.282,10.915c-0.234-0.516-0.589-0.773-1.061-0.773
		c-0.835,0-1.254,0.562-1.254,1.684c0,1.125,0.419,1.686,1.254,1.686c0.548,0,0.943-0.273,1.178-0.82l1.16,0.616
		c-0.554,0.979-1.38,1.466-2.484,1.466c-0.85,0-1.529-0.26-2.042-0.781c-0.513-0.52-0.771-1.238-0.771-2.156
		c0-0.9,0.267-1.613,0.794-2.144s1.187-0.794,1.972-0.794c1.166,0,2.001,0.459,2.508,1.377L11.282,10.915L11.282,10.915z
		 M7.21,6.345c-1.547,1.564-2.32,3.393-2.32,5.492c0,2.102,0.768,3.916,2.297,5.447c1.532,1.529,3.354,2.295,5.47,2.295
		s3.955-0.771,5.517-2.318c1.485-1.436,2.227-3.244,2.227-5.424c0-2.162-0.756-3.996-2.265-5.504
		c-1.506-1.508-3.331-2.26-5.479-2.26S8.695,4.829,7.21,6.345L7.21,6.345z M19.351,5.114c1.828,1.828,2.742,4.07,2.742,6.721
		s-0.896,4.87-2.695,6.65c-1.91,1.881-4.166,2.816-6.771,2.816c-2.569,0-4.787-0.93-6.647-2.791
		c-1.863-1.863-2.792-4.088-2.792-6.676s0.929-4.827,2.792-6.721c1.813-1.83,4.028-2.746,6.647-2.746
		C15.278,2.368,17.52,3.284,19.351,5.114"/>
	<path fill="#FFFFFF" d="M37.828,9.217c0,3.589-2.909,6.499-6.501,6.499c-3.589,0-6.498-2.91-6.498-6.499
		c0-3.591,2.909-6.499,6.498-6.499C34.919,2.718,37.828,5.626,37.828,9.217"/>
	<path fill="#010101" d="M33.208,7.335c0-0.251-0.202-0.455-0.451-0.455h-2.871c-0.252,0-0.454,0.204-0.454,0.455v2.871h0.8v3.399
		h2.177v-3.399h0.8V7.335"/>
	<path fill="#010101" d="M32.3,5.521c0,0.543-0.437,0.983-0.979,0.983c-0.545,0-0.981-0.44-0.981-0.983
		c0-0.539,0.437-0.98,0.981-0.98C31.863,4.54,32.3,4.981,32.3,5.521"/>
	<path fill-rule="evenodd" clip-rule="evenodd" fill="#010101" d="M31.33,3.316c1.591,0,2.944,0.562,4.058,1.687
		c1.125,1.109,1.688,2.467,1.688,4.072c0,1.611-0.551,2.951-1.652,4.016c-1.16,1.146-2.525,1.721-4.093,1.721
		c-1.57,0-2.924-0.568-4.061-1.703s-1.702-2.479-1.702-4.033c0-1.558,0.574-2.916,1.72-4.072C28.389,3.879,29.736,3.316,31.33,3.316
		L31.33,3.316z M31.31,2.056c-1.942,0-3.589,0.678-4.937,2.034c-1.38,1.403-2.071,3.065-2.071,4.985
		c0,1.916,0.691,3.564,2.071,4.946c1.383,1.38,3.029,2.069,4.937,2.069c1.934,0,3.609-0.693,5.024-2.087
		c1.339-1.323,2.004-2.966,2.004-4.929c0-1.967-0.68-3.629-2.036-4.985C34.942,2.733,33.278,2.056,31.31,2.056"/>
	<path fill="#FFFFFF" d="M29.232,23.145c0.085,0,0.167-0.007,0.246-0.024c0.079-0.016,0.149-0.045,0.208-0.084
		c0.062-0.039,0.108-0.092,0.146-0.161c0.032-0.065,0.053-0.151,0.053-0.257c0-0.207-0.059-0.353-0.176-0.44
		c-0.117-0.089-0.27-0.13-0.46-0.13h-0.964v1.097H29.232L29.232,23.145z M29.18,21.445c0.158,0,0.287-0.038,0.39-0.114
		c0.1-0.074,0.149-0.195,0.149-0.361c0-0.094-0.015-0.172-0.05-0.232c-0.035-0.059-0.076-0.105-0.135-0.137
		c-0.056-0.035-0.12-0.061-0.193-0.074c-0.073-0.012-0.149-0.018-0.229-0.018h-0.826v0.937H29.18L29.18,21.445z M29.291,19.822
		c0.19,0,0.366,0.018,0.524,0.052c0.158,0.031,0.293,0.088,0.404,0.166c0.114,0.075,0.199,0.178,0.264,0.305
		c0.059,0.127,0.094,0.285,0.094,0.473c0,0.2-0.047,0.369-0.141,0.5c-0.091,0.139-0.229,0.246-0.407,0.333
		c0.249,0.071,0.434,0.198,0.554,0.375c0.126,0.177,0.185,0.393,0.185,0.644c0,0.203-0.038,0.377-0.12,0.525
		c-0.076,0.148-0.185,0.268-0.316,0.361s-0.284,0.162-0.454,0.209c-0.17,0.043-0.346,0.065-0.527,0.065h-1.948v-4.008H29.291"/>
	<polyline fill="#FFFFFF" points="30.923,19.822 31.913,19.822 32.851,21.407 33.782,19.822 34.767,19.822 33.278,22.292 
		33.278,23.83 32.394,23.83 32.394,22.271 30.923,19.822 	"/>
	<path fill="#FFFFFF" d="M59.578,22.841c0.05,0.093,0.111,0.168,0.193,0.229c0.079,0.057,0.176,0.1,0.284,0.128
		c0.105,0.026,0.217,0.04,0.334,0.04c0.079,0,0.164-0.006,0.252-0.018c0.091-0.016,0.173-0.041,0.252-0.076
		c0.079-0.039,0.144-0.088,0.196-0.152c0.053-0.069,0.079-0.15,0.079-0.251c0-0.11-0.035-0.198-0.105-0.265
		c-0.067-0.068-0.158-0.123-0.27-0.168c-0.114-0.047-0.24-0.084-0.384-0.118c-0.141-0.034-0.284-0.071-0.431-0.112
		c-0.149-0.035-0.296-0.082-0.437-0.137c-0.141-0.057-0.27-0.126-0.381-0.213c-0.111-0.084-0.202-0.193-0.272-0.32
		c-0.07-0.131-0.103-0.287-0.103-0.471c0-0.207,0.044-0.383,0.132-0.535c0.085-0.152,0.202-0.275,0.343-0.381
		c0.144-0.1,0.302-0.175,0.483-0.225c0.179-0.049,0.36-0.072,0.536-0.072c0.211,0,0.413,0.023,0.604,0.072
		c0.193,0.045,0.366,0.121,0.513,0.227c0.152,0.105,0.27,0.238,0.357,0.402c0.088,0.162,0.132,0.359,0.132,0.593h-0.853
		c-0.009-0.122-0.035-0.22-0.076-0.298c-0.044-0.078-0.1-0.141-0.173-0.186c-0.07-0.045-0.149-0.078-0.243-0.096
		c-0.088-0.02-0.19-0.029-0.299-0.029c-0.07,0-0.141,0.01-0.211,0.022c-0.07,0.017-0.135,0.04-0.193,0.079
		c-0.056,0.039-0.105,0.086-0.144,0.143c-0.035,0.055-0.056,0.125-0.056,0.213c0,0.076,0.018,0.143,0.047,0.188
		c0.029,0.051,0.088,0.096,0.176,0.139c0.091,0.039,0.208,0.082,0.363,0.123s0.36,0.094,0.609,0.156
		c0.076,0.016,0.179,0.043,0.311,0.08c0.135,0.039,0.267,0.102,0.396,0.191c0.132,0.084,0.243,0.2,0.34,0.342
		c0.094,0.145,0.144,0.328,0.144,0.555c0,0.183-0.035,0.354-0.108,0.512c-0.07,0.158-0.179,0.291-0.316,0.404
		c-0.141,0.116-0.313,0.205-0.521,0.268c-0.208,0.065-0.448,0.1-0.721,0.1c-0.223,0-0.437-0.029-0.645-0.082
		c-0.208-0.058-0.39-0.141-0.551-0.258c-0.158-0.115-0.284-0.264-0.378-0.445c-0.094-0.181-0.138-0.392-0.135-0.641h0.855
		C59.505,22.634,59.528,22.746,59.578,22.841"/>
	<path fill="#FFFFFF" d="M64.594,22.282l-0.504-1.471h-0.012l-0.521,1.471H64.594L64.594,22.282z M64.544,19.822l1.5,4.008h-0.917
		l-0.302-0.892h-1.5l-0.313,0.892h-0.888l1.518-4.008H64.544"/>
	<polyline fill="#FFFFFF" points="43.89,19.822 45.565,22.513 45.571,22.513 45.571,19.822 46.4,19.822 46.4,23.83 45.519,23.83 
		43.849,21.147 43.84,21.147 43.84,23.83 43.014,23.83 43.014,19.822 43.89,19.822 	"/>
	<path fill="#FFFFFF" d="M49.746,20.89c-0.053-0.083-0.12-0.158-0.196-0.223c-0.079-0.061-0.17-0.111-0.27-0.146
		c-0.097-0.036-0.199-0.055-0.311-0.055c-0.199,0-0.366,0.039-0.504,0.118c-0.138,0.075-0.252,0.177-0.337,0.306
		s-0.152,0.275-0.188,0.441c-0.038,0.164-0.059,0.336-0.059,0.512c0,0.166,0.021,0.33,0.059,0.488
		c0.035,0.158,0.103,0.305,0.188,0.432c0.085,0.125,0.199,0.229,0.337,0.307c0.138,0.075,0.305,0.111,0.504,0.111
		c0.27,0,0.48-0.078,0.633-0.246c0.152-0.162,0.246-0.382,0.278-0.65h0.853c-0.023,0.251-0.079,0.479-0.176,0.68
		c-0.091,0.203-0.217,0.375-0.369,0.518c-0.152,0.144-0.331,0.25-0.539,0.325c-0.205,0.076-0.431,0.116-0.68,0.116
		c-0.305,0-0.583-0.057-0.826-0.162c-0.246-0.107-0.454-0.258-0.621-0.441c-0.17-0.188-0.299-0.408-0.39-0.661
		c-0.091-0.251-0.135-0.524-0.135-0.815c0-0.299,0.044-0.58,0.135-0.834c0.091-0.258,0.22-0.482,0.39-0.672
		c0.167-0.193,0.375-0.344,0.621-0.449c0.243-0.111,0.521-0.164,0.826-0.164c0.223,0,0.431,0.033,0.627,0.098
		s0.372,0.154,0.527,0.277c0.155,0.122,0.284,0.27,0.387,0.451c0.1,0.18,0.164,0.387,0.19,0.619h-0.853
		C49.831,21.067,49.799,20.976,49.746,20.89"/>
	<path fill="#FFFFFF" d="M69.343,9.069c0.006,3.535-2.859,6.406-6.398,6.41c-3.539,0.002-6.41-2.863-6.413-6.402
		c0-0.002,0-0.006,0-0.008c0-3.537,2.865-6.41,6.404-6.41c3.536-0.004,6.407,2.861,6.407,6.399
		C69.343,9.062,69.343,9.065,69.343,9.069"/>
	<path fill="#010101" d="M62.912,3.313c1.591,0,2.944,0.562,4.058,1.684c1.122,1.113,1.685,2.469,1.685,4.072
		c0,1.613-0.548,2.953-1.652,4.02c-1.157,1.145-2.522,1.717-4.09,1.717c-1.57,0-2.924-0.566-4.058-1.703
		c-1.137-1.133-1.705-2.479-1.705-4.033c0-1.557,0.574-2.912,1.72-4.072C59.971,3.876,61.318,3.313,62.912,3.313L62.912,3.313z
		 M62.895,2.05c-1.945,0-3.589,0.681-4.937,2.035c-1.383,1.404-2.074,3.064-2.074,4.984c0,1.918,0.691,3.568,2.074,4.947
		c1.38,1.381,3.026,2.072,4.937,2.072c1.931,0,3.606-0.697,5.024-2.09c1.333-1.32,2.001-2.965,2.001-4.93
		c0-1.967-0.677-3.626-2.039-4.984C66.524,2.73,64.86,2.05,62.895,2.05"/>
	<path fill="#010101" d="M59.783,8.079c0.278-1.768,1.523-2.711,3.082-2.711c2.238,0,3.604,1.627,3.604,3.793
		c0,2.117-1.45,3.76-3.642,3.76c-1.503,0-2.851-0.926-3.097-2.744h1.767c0.053,0.943,0.665,1.275,1.541,1.275
		c0.999,0,1.646-0.928,1.646-2.342c0-1.487-0.56-2.273-1.611-2.273c-0.771,0-1.436,0.281-1.576,1.242l0.513-0.005l-1.389,1.394
		l-1.392-1.394L59.783,8.079"/>
	<path fill="#FFFFFF" d="M53.64,9.069c0.003,3.605-2.918,6.529-6.524,6.533c-3.606,0.002-6.53-2.918-6.533-6.525
		c0-0.002,0-0.006,0-0.008c-0.003-3.607,2.918-6.531,6.524-6.533c3.606-0.004,6.53,2.918,6.533,6.522
		C53.64,9.062,53.64,9.065,53.64,9.069"/>
	<path fill="#010101" d="M47.118,3.313c-1.591,0-2.936,0.562-4.04,1.684c-0.299,0.305-0.56,0.621-0.779,0.949l2.684,1.195
		c0.24-0.744,0.946-1.197,1.805-1.246V4.812h0.809v1.084c0.554,0.025,1.163,0.176,1.761,0.643l-0.92,0.949
		c-0.34-0.242-0.771-0.414-1.201-0.414c-0.349,0-0.841,0.109-0.841,0.547c0,0.068,0.023,0.125,0.064,0.178l1.503,0.67
		c0.39,0.174,0.759,0.34,1.128,0.503l3.598,1.6c0.117-0.47,0.176-0.972,0.176-1.501c0-1.604-0.562-2.959-1.685-4.072
		C50.065,3.876,48.712,3.313,47.118,3.313L47.118,3.313z M41.672,7.185c-0.211,0.591-0.313,1.219-0.313,1.885
		c0,1.555,0.568,2.9,1.702,4.033c1.137,1.137,2.49,1.703,4.058,1.703c1.57,0,2.936-0.572,4.096-1.717
		c0.387-0.379,0.706-0.787,0.958-1.23l-2.646-1.178c-0.179,0.891-0.973,1.49-1.931,1.562v1.082h-0.809v-1.082
		c-0.785-0.01-1.547-0.332-2.13-0.84l0.967-0.975c0.466,0.438,0.932,0.633,1.567,0.633c0.413,0,0.867-0.158,0.867-0.695
		c0-0.189-0.073-0.324-0.188-0.424l-1.503-0.666c-0.413-0.188-0.762-0.342-1.11-0.498L41.672,7.185L41.672,7.185z M47.101,2.05
		c1.969,0,3.633,0.681,4.989,2.035c1.359,1.358,2.039,3.018,2.039,4.984c0,1.965-0.668,3.609-2.001,4.93
		c-1.418,1.393-3.094,2.09-5.027,2.09c-1.907,0-3.554-0.691-4.934-2.072c-1.383-1.379-2.074-3.029-2.074-4.947
		c0-1.92,0.691-3.58,2.074-4.984C43.512,2.73,45.158,2.05,47.101,2.05"/>
</g>
<g>
	<path fill="#FFFFFF" d="M455.343-122.678c0,4.383-3.555,7.939-7.939,7.939h-50.244c-4.384,0-7.939-3.557-7.939-7.939v-19.975
		c0-4.383,3.556-7.939,7.939-7.939h50.244c4.385,0,7.939,3.557,7.939,7.939V-122.678z"/>
	<path fill="#FCB832" d="M450.731-125.763c0,4.043-3.277,7.322-7.322,7.322h-13.803c-4.045,0-7.324-3.279-7.324-7.322v-13.805
		c0-4.043,3.279-7.322,7.324-7.322h13.803c4.045,0,7.322,3.279,7.322,7.322V-125.763z"/>
	<text transform="matrix(1 0 0 1 396.252 -129.1641)" fill="#FCB832" font-family="'Montserrat-Regular'" font-size="8.932">YES</text>
</g>
<g>
	<g>
		<path fill="#FFFFFF" stroke="#FFFFFF" stroke-width="0.75" stroke-miterlimit="1" d="M677.525-5.206h4.129l-8.449,12.289
			l9.073,13.01h-4.368l-7.201-10.322l-7.44,10.322h-4.225l9.217-13.01l-8.593-12.289h4.32l6.721,9.602L677.525-5.206z"/>
	</g>
</g>
<path fill="#FFFFFF" stroke="#FFFFFF" stroke-width="2" stroke-linecap="round" stroke-linejoin="round" stroke-miterlimit="1" d="
	M583.202-6.549c-0.75-3.167-2.969-2.389-4.593-2.76c-0.094-0.021-0.041,0.397-0.141,0.397c-12.62,0-22.228,0-34.851,0
	c-0.541,0-1.479-0.22-1.98,0.046c-1.311,0.707-2.305,1.3-2.605,3.54c-0.064,0.469,0.322,0.104,0.322,0.196
	c0,8.777,0,17.553,0,26.327c0,0.422,0.301,1.44,0.369,1.874c0.248,1.625,1.057,4.017,3.787,4.017c0.084,0,0.027,0,0.107,0
	c12.623,0,22.23,0,34.851,0c0.27,0,2.255-0.882,2.519-0.979c1.775-0.629,2.197-3.806,2.197-4.425c0-8.777,0.124-17.761,0.124-26.536
	C583.309-5.258,583.3-6.136,583.202-6.549z M544.53-7.359c12.016-0.01,21.019-0.01,33.033,0c0.483,0,0.969,0.129,1.576,0.216
	c-0.186,0.216-0.27,0.327-0.365,0.433c-4.741,5.187-9.481,10.372-14.222,15.553c-0.486,0.533-0.962,1.074-1.472,1.58
	c-1.961,1.953-2.167,1.988-4.066-0.008c-2.401-2.527-4.725-5.121-7.074-7.688c-2.859-3.123-5.717-6.249-8.572-9.373
	c-0.108-0.117-0.207-0.245-0.42-0.498C543.56-7.23,544.045-7.359,544.53-7.359z M541.599,21.76
	c-0.072-0.473-0.207-0.947-0.209-1.422c-0.012-8.204-0.012-16.402,0-24.6c0-0.45,0.123-0.896,0.206-1.469
	c4.652,5.09,9.199,10.059,13.778,15.064c-4.553,4.156-9.088,8.301-13.623,12.447C541.7,21.772,541.648,21.768,541.599,21.76z
	 M578.949,23.26c-0.509,0.057-1.014,0.17-1.524,0.17c-11.929,0.012-20.838,0.012-32.766,0c-0.5,0-1.001-0.105-1.498-0.16
	c-0.008-0.055-0.014-0.105-0.018-0.158c4.499-4.109,8.999-8.217,13.54-12.366c1.511,1.897,1.876,3.114,4.365,3.11
	c2.473-0.006,2.836-1.194,4.351-3.117c4.545,4.15,9.051,8.262,13.555,12.375C578.954,23.16,578.952,23.211,578.949,23.26z
	 M580.7,20.319c-0.002,0.479-0.135,0.955-0.23,1.57c-4.654-4.251-9.191-8.396-13.754-12.556c4.568-4.999,9.113-9.971,13.657-14.938
	c0.048,0.004,0.097,0.007,0.147,0.008c0.061,0.455,0.18,0.91,0.18,1.363C580.71,3.949,580.71,12.134,580.7,20.319z"/>
<g>
	<path fill="#FFFFFF" d="M29.274,192.419c-0.055-0.093-0.111-0.185-0.152-0.282l-0.572-1.328c-0.919-2.127-1.838-4.254-2.729-6.391
		c-0.28-0.674-0.729-0.976-1.489-0.976c-1.123,0.011-2.243,0.013-3.363,0.013l-3.848-0.004l-0.252-0.01
		c-0.117,0-0.291,0.014-0.436,0.133c-0.263,0.211-0.62,0.501-0.654,0.888c-0.033,0.38,0.352,0.708,0.679,0.914
		c0.163,0.105,0.343,0.117,0.466,0.117l0.307-0.011l3.455,0.005c1.022,0,2.045-0.003,3.086-0.012c0.269,0,0.334,0.044,0.438,0.293
		c0.591,1.429,1.201,2.848,1.812,4.267l0.872,2.035l-2.929-0.002l-1.801,0.002l-0.723-0.003c-1.115,0-1.244,0.265-1.562,1.284
		c-0.052,0.164-0.111,0.355-0.186,0.578c-0.389,1.161-1.295,1.83-2.486,1.832l-2.852,0.004l-2.859-0.001
		c-1.404-0.003-2.233-0.604-2.685-1.954c-0.063-0.193-0.116-0.36-0.161-0.507c-0.322-1.032-0.482-1.236-1.598-1.236l-5.406,0.003
		l0.459-1.075c0.765-1.793,1.529-3.585,2.312-5.356c0.038-0.055,0.196-0.139,0.267-0.139c1.234-0.019,2.47-0.019,3.706-0.019
		l1.711-0.001l0.276,0.006c0.162,0,0.368-0.016,0.551-0.133c0.225-0.146,0.603-0.498,0.6-0.893
		c-0.003-0.285-0.193-0.568-0.586-0.873c-0.164-0.125-0.361-0.141-0.516-0.141l-3.666,0.007c-0.869,0-1.738-0.003-2.637-0.012
		c-0.69,0-1.137,0.311-1.405,0.974c-0.575,1.424-1.177,2.806-1.845,4.335c-0.418,0.961-0.848,1.916-1.277,2.871l-0.447,0.999
		l-0.034,11.388h30.31v-11.331L29.274,192.419z M1.165,201.876v-7.796l3.022,0.006c0.776,0,1.553-0.004,2.366-0.02
		c0.207,0,0.244,0,0.324,0.287c0.492,1.768,1.662,2.888,3.473,3.33c0.305,0.076,0.619,0.085,0.891,0.086
		c1.963,0.005,3.926,0.005,5.889,0.005c2.137-0.005,3.814-1.216,4.486-3.24l0.137-0.423h5.631v7.765H1.165z"/>
	<path fill="#FFFFFF" d="M9.959,187.21c-0.255,0-0.491,0.114-0.7,0.335c-0.252,0.266-0.568,0.816,0.141,1.533l3.402,3.451
		c0.182,0.184,0.469,0.429,0.85,0.429c0.389,0,0.684-0.255,0.872-0.446c0.667-0.682,1.33-1.367,1.992-2.051l1.423-1.467
		c0.758-0.779,0.265-1.379,0.095-1.544c-0.255-0.249-0.511-0.3-0.681-0.3c-0.295,0-0.584,0.145-0.863,0.434
		c-0.46,0.481-0.923,0.959-1.386,1.437l-0.454,0.469l-0.003-2.192c-0.007-4.118-0.018-10.341,0.018-12.474
		c-0.011-0.7-0.265-1.518-0.948-1.56c-0.275-0.068-1.078-0.074-1.078,1.565c0,2.341,0,11.771-0.002,14.584l-0.119-0.116
		c-0.568-0.551-1.127-1.091-1.679-1.635C10.642,187.469,10.337,187.21,9.959,187.21z"/>
</g>
<g>
	<path fill="#FFFFFF" d="M29.274,293.786c-0.055-0.093-0.111-0.185-0.152-0.282l-0.572-1.328c-0.919-2.127-1.838-4.254-2.729-6.391
		c-0.28-0.674-0.729-0.976-1.489-0.976c-1.123,0.011-2.243,0.013-3.363,0.013l-3.848-0.004l-0.252-0.01
		c-0.117,0-0.291,0.014-0.436,0.133c-0.263,0.211-0.62,0.501-0.654,0.888c-0.033,0.38,0.352,0.708,0.679,0.914
		c0.163,0.105,0.343,0.117,0.466,0.117l0.307-0.011l3.455,0.005c1.022,0,2.045-0.003,3.086-0.012c0.269,0,0.334,0.044,0.438,0.293
		c0.591,1.429,1.201,2.848,1.812,4.267l0.872,2.035l-2.929-0.002l-1.801,0.002l-0.723-0.003c-1.115,0-1.244,0.265-1.562,1.284
		c-0.052,0.164-0.111,0.355-0.186,0.578c-0.389,1.161-1.295,1.83-2.486,1.832l-2.852,0.004l-2.859-0.001
		c-1.404-0.003-2.233-0.604-2.685-1.954c-0.063-0.193-0.116-0.36-0.161-0.507c-0.322-1.032-0.482-1.236-1.598-1.236l-5.406,0.003
		l0.459-1.075c0.765-1.793,1.529-3.585,2.312-5.356c0.038-0.055,0.196-0.139,0.267-0.139c1.234-0.019,2.47-0.019,3.706-0.019
		l1.711-0.001l0.276,0.006c0.162,0,0.368-0.016,0.551-0.133c0.225-0.146,0.603-0.498,0.6-0.893
		c-0.003-0.285-0.193-0.568-0.586-0.873c-0.164-0.125-0.361-0.141-0.516-0.141l-3.666,0.007c-0.869,0-1.738-0.003-2.637-0.012
		c-0.69,0-1.137,0.311-1.405,0.974c-0.575,1.424-1.177,2.806-1.845,4.335c-0.418,0.961-0.848,1.916-1.277,2.871l-0.447,0.999
		l-0.034,11.388h30.31v-11.331L29.274,293.786z M1.165,303.243v-7.796l3.022,0.006c0.776,0,1.553-0.004,2.366-0.02
		c0.207,0,0.244,0,0.324,0.287c0.492,1.768,1.662,2.888,3.473,3.33c0.305,0.076,0.619,0.085,0.891,0.086
		c1.963,0.005,3.926,0.005,5.889,0.005c2.137-0.005,3.814-1.216,4.486-3.24l0.137-0.423h5.631v7.765H1.165z"/>
	<path fill="#FFFFFF" d="M10.263,281.682c0.294,0,0.582-0.145,0.862-0.434c0.46-0.48,0.923-0.957,1.384-1.436l0.456-0.47
		l0.003,2.167c0.008,3.93,0.018,9.871-0.01,11.916c-0.012,0.062-0.109,0.605,0.207,0.99c0.122,0.149,0.351,0.326,0.748,0.338
		c0.037,0.008,0.09,0.016,0.152,0.016c0.24,0,0.459-0.1,0.617-0.279c0.197-0.221,0.293-0.546,0.293-0.99
		c0-2.34,0-11.297,0.004-14.081l0.118,0.117c0.569,0.551,1.126,1.091,1.679,1.634c0.196,0.193,0.501,0.452,0.879,0.452
		c0.255,0,0.49-0.114,0.7-0.335c0.252-0.266,0.568-0.816-0.141-1.533l-3.403-3.451c-0.182-0.184-0.469-0.429-0.85-0.429
		c-0.388,0-0.682,0.255-0.871,0.446c-0.666,0.682-1.33,1.367-1.992,2.051l-1.422,1.467c-0.76,0.779-0.266,1.379-0.096,1.544
		C9.836,281.631,10.093,281.682,10.263,281.682z"/>
</g>
<g>
	<path fill-rule="evenodd" clip-rule="evenodd" fill="#FFFFFF" d="M23.819,396.896c-0.272,0.252-0.361,0.516-0.36,0.879
		c0.011,4.67,0.009,9.34,0.007,14.01c-0.001,1.181-0.902,2.072-2.088,2.072c-6.673,0.002-13.347,0.004-20.021,0
		c-1.321,0-2.177-0.848-2.179-2.172c-0.002-6.631-0.002-13.262-0.001-19.893c0-1.395,0.829-2.224,2.224-2.224
		c4.532-0.003,9.066-0.009,13.598,0.011c0.539,0.002,0.955-0.094,1.317-0.532c0.37-0.456,0.825-0.844,1.241-1.263
		c0.061-0.062,0.118-0.132,0.215-0.238c-0.164,0-0.266,0-0.369,0c-5.406,0-10.814-0.004-16.222,0
		c-2.222,0.001-4.024,1.797-4.025,4.015c-0.003,6.769-0.003,13.536-0.001,20.304c0.001,1.751,1.143,3.297,2.819,3.828
		c0.217,0.068,0.438,0.126,0.657,0.189c7.125,0,14.255,0,21.381,0c0.057-0.022,0.111-0.055,0.17-0.064
		c1.921-0.356,3.31-2.035,3.309-3.986c-0.002-5.385,0-10.772,0.001-16.158c0-0.122,0-0.242,0-0.444
		C24.894,395.833,24.373,396.384,23.819,396.896z"/>
	<path fill-rule="evenodd" clip-rule="evenodd" fill="#FFFFFF" d="M27.196,383.951c-0.24-0.229-0.626-0.306-0.947-0.453
		c-0.294,0-0.588,0-0.885,0c-0.529,0.156-1,0.406-1.398,0.805c-5.288,5.299-10.582,10.587-15.869,15.884
		c-0.172,0.173-0.324,0.394-0.414,0.621c-0.699,1.734-1.375,3.48-2.068,5.22c-0.178,0.439-0.167,0.846,0.173,1.196
		c0.353,0.363,0.767,0.376,1.222,0.193c1.708-0.68,3.425-1.345,5.129-2.036c0.282-0.115,0.562-0.296,0.779-0.51
		c5.135-5.119,10.258-10.254,15.393-15.375c0.533-0.533,1.045-1.063,1.23-1.825c0-0.294,0-0.591,0-0.886
		C29.16,385.51,28.081,384.806,27.196,383.951z M27.191,387.718c-4.837,4.84-9.688,9.663-14.499,14.525
		c-0.848,0.858-1.742,1.558-2.909,1.894c-0.476,0.14-0.931,0.362-1.458,0.57c0.424-1.064,0.819-2.068,1.224-3.067
		c0.032-0.083,0.118-0.147,0.185-0.214c5.217-5.218,10.436-10.434,15.653-15.652c0.343-0.344,0.485-0.34,0.833,0.014
		c0.32,0.319,0.639,0.642,0.963,0.961C27.624,387.189,27.624,387.285,27.191,387.718z"/>
</g>
<g>
	<path fill="#D6E1F1" d="M204.464,192.419c-0.055-0.093-0.111-0.185-0.152-0.282l-0.573-1.328c-0.919-2.127-1.837-4.254-2.729-6.391
		c-0.279-0.674-0.729-0.976-1.489-0.976c-1.122,0.011-2.243,0.013-3.363,0.013l-3.847-0.004l-0.252-0.01
		c-0.117,0-0.291,0.014-0.437,0.133c-0.263,0.211-0.62,0.501-0.653,0.888c-0.033,0.38,0.352,0.708,0.678,0.914
		c0.163,0.105,0.344,0.117,0.467,0.117l0.306-0.011l3.456,0.005c1.021,0,2.045-0.003,3.086-0.012c0.268,0,0.334,0.044,0.438,0.293
		c0.591,1.429,1.201,2.848,1.812,4.267l0.871,2.035l-2.928-0.002l-1.802,0.002l-0.722-0.003c-1.115,0-1.244,0.265-1.563,1.284
		c-0.052,0.164-0.111,0.355-0.185,0.578c-0.39,1.161-1.295,1.83-2.487,1.832l-2.851,0.004l-2.859-0.001
		c-1.404-0.003-2.234-0.604-2.686-1.954c-0.062-0.193-0.115-0.36-0.16-0.507c-0.322-1.032-0.482-1.236-1.599-1.236l-5.405,0.003
		l0.459-1.075c0.764-1.793,1.529-3.585,2.311-5.356c0.039-0.055,0.197-0.139,0.268-0.139c1.234-0.019,2.469-0.019,3.705-0.019
		l1.711-0.001l0.277,0.006c0.161,0,0.367-0.016,0.551-0.133c0.225-0.146,0.602-0.498,0.6-0.893
		c-0.004-0.285-0.193-0.568-0.586-0.873c-0.164-0.125-0.362-0.141-0.516-0.141l-3.667,0.007c-0.868,0-1.737-0.003-2.637-0.012
		c-0.69,0-1.137,0.311-1.405,0.974c-0.575,1.424-1.176,2.806-1.844,4.335c-0.419,0.961-0.848,1.916-1.277,2.871l-0.448,0.999
		l-0.034,11.388h30.31v-11.331L204.464,192.419z M176.354,201.876v-7.796l3.021,0.006c0.777,0,1.553-0.004,2.366-0.02
		c0.208,0,0.245,0,0.325,0.287c0.492,1.768,1.661,2.888,3.472,3.33c0.305,0.076,0.62,0.085,0.891,0.086
		c1.963,0.005,3.926,0.005,5.889,0.005c2.138-0.005,3.814-1.216,4.487-3.24l0.136-0.423h5.631v7.765H176.354z"/>
	<path fill="#D6E1F1" d="M185.147,187.21c-0.254,0-0.49,0.114-0.699,0.335c-0.252,0.266-0.568,0.816,0.141,1.533l3.402,3.451
		c0.182,0.184,0.469,0.429,0.85,0.429c0.389,0,0.683-0.255,0.871-0.446c0.667-0.682,1.33-1.367,1.992-2.051l1.423-1.467
		c0.759-0.779,0.265-1.379,0.095-1.544c-0.254-0.249-0.511-0.3-0.681-0.3c-0.294,0-0.583,0.145-0.862,0.434
		c-0.461,0.481-0.924,0.959-1.387,1.437l-0.453,0.469l-0.004-2.192c-0.007-4.118-0.018-10.341,0.018-12.474
		c-0.01-0.7-0.265-1.518-0.947-1.56c-0.275-0.068-1.078-0.074-1.078,1.565c0,2.341,0,11.771-0.003,14.584l-0.118-0.116
		c-0.568-0.551-1.127-1.091-1.68-1.635C185.831,187.469,185.526,187.21,185.147,187.21z"/>
</g>
<g>
	<path fill="#D6E1F1" d="M204.464,293.786c-0.055-0.093-0.111-0.185-0.152-0.282l-0.573-1.328c-0.919-2.127-1.837-4.254-2.729-6.391
		c-0.279-0.674-0.729-0.976-1.489-0.976c-1.122,0.011-2.243,0.013-3.363,0.013l-3.847-0.004l-0.252-0.01
		c-0.117,0-0.291,0.014-0.437,0.133c-0.263,0.211-0.62,0.501-0.653,0.888c-0.033,0.38,0.352,0.708,0.678,0.914
		c0.163,0.105,0.344,0.117,0.467,0.117l0.306-0.011l3.456,0.005c1.021,0,2.045-0.003,3.086-0.012c0.268,0,0.334,0.044,0.438,0.293
		c0.591,1.429,1.201,2.848,1.812,4.267l0.871,2.035l-2.928-0.002l-1.802,0.002l-0.722-0.003c-1.115,0-1.244,0.265-1.563,1.284
		c-0.052,0.164-0.111,0.355-0.185,0.578c-0.39,1.161-1.295,1.83-2.487,1.832l-2.851,0.004l-2.859-0.001
		c-1.404-0.003-2.234-0.604-2.686-1.954c-0.062-0.193-0.115-0.36-0.16-0.507c-0.322-1.032-0.482-1.236-1.599-1.236l-5.405,0.003
		l0.459-1.075c0.764-1.793,1.529-3.585,2.311-5.356c0.039-0.055,0.197-0.139,0.268-0.139c1.234-0.019,2.469-0.019,3.705-0.019
		l1.711-0.001l0.277,0.006c0.161,0,0.367-0.016,0.551-0.133c0.225-0.146,0.602-0.498,0.6-0.893
		c-0.004-0.285-0.193-0.568-0.586-0.873c-0.164-0.125-0.362-0.141-0.516-0.141l-3.667,0.007c-0.868,0-1.737-0.003-2.637-0.012
		c-0.69,0-1.137,0.311-1.405,0.974c-0.575,1.424-1.176,2.806-1.844,4.335c-0.419,0.961-0.848,1.916-1.277,2.871l-0.448,0.999
		l-0.034,11.388h30.31v-11.331L204.464,293.786z M176.354,303.243v-7.796l3.021,0.006c0.777,0,1.553-0.004,2.366-0.02
		c0.208,0,0.245,0,0.325,0.287c0.492,1.768,1.661,2.888,3.472,3.33c0.305,0.076,0.62,0.085,0.891,0.086
		c1.963,0.005,3.926,0.005,5.889,0.005c2.138-0.005,3.814-1.216,4.487-3.24l0.136-0.423h5.631v7.765H176.354z"/>
	<path fill="#D6E1F1" d="M185.451,281.682c0.294,0,0.583-0.145,0.862-0.434c0.461-0.48,0.924-0.957,1.385-1.436l0.455-0.47
		l0.004,2.167c0.007,3.93,0.018,9.871-0.011,11.916c-0.012,0.062-0.108,0.605,0.208,0.99c0.121,0.149,0.35,0.326,0.747,0.338
		c0.038,0.008,0.091,0.016,0.152,0.016c0.24,0,0.46-0.1,0.618-0.279c0.196-0.221,0.293-0.546,0.293-0.99
		c0-2.34,0-11.297,0.003-14.081l0.118,0.117c0.57,0.551,1.127,1.091,1.68,1.634c0.195,0.193,0.5,0.452,0.879,0.452
		c0.254,0,0.49-0.114,0.699-0.335c0.252-0.266,0.568-0.816-0.141-1.533l-3.402-3.451c-0.182-0.184-0.469-0.429-0.85-0.429
		c-0.389,0-0.683,0.255-0.871,0.446c-0.667,0.682-1.33,1.367-1.992,2.051l-1.423,1.467c-0.759,0.779-0.265,1.379-0.095,1.544
		C185.024,281.631,185.281,281.682,185.451,281.682z"/>
</g>
<g>
	<path fill-rule="evenodd" clip-rule="evenodd" fill="#D6E1F1" d="M199.009,396.896c-0.273,0.252-0.362,0.516-0.361,0.879
		c0.011,4.67,0.01,9.34,0.008,14.01c-0.002,1.181-0.902,2.072-2.089,2.072c-6.673,0.002-13.347,0.004-20.021,0
		c-1.32,0-2.176-0.848-2.178-2.172c-0.003-6.631-0.003-13.262-0.002-19.893c0-1.395,0.83-2.224,2.225-2.224
		c4.531-0.003,9.065-0.009,13.598,0.011c0.539,0.002,0.955-0.094,1.316-0.532c0.371-0.456,0.825-0.844,1.241-1.263
		c0.062-0.062,0.118-0.132,0.216-0.238c-0.164,0-0.266,0-0.369,0c-5.407,0-10.815-0.004-16.223,0
		c-2.222,0.001-4.023,1.797-4.025,4.015c-0.002,6.769-0.002,13.536-0.001,20.304c0.001,1.751,1.143,3.297,2.819,3.828
		c0.217,0.068,0.438,0.126,0.658,0.189c7.125,0,14.254,0,21.381,0c0.056-0.022,0.111-0.055,0.17-0.064
		c1.92-0.356,3.309-2.035,3.308-3.986c-0.001-5.385,0-10.772,0.001-16.158c0-0.122,0-0.242,0-0.444
		C200.082,395.833,199.562,396.384,199.009,396.896z"/>
	<path fill-rule="evenodd" clip-rule="evenodd" fill="#D6E1F1" d="M202.385,383.951c-0.24-0.229-0.626-0.306-0.946-0.453
		c-0.295,0-0.589,0-0.885,0c-0.53,0.156-1,0.406-1.398,0.805c-5.289,5.299-10.582,10.587-15.869,15.884
		c-0.173,0.173-0.325,0.394-0.414,0.621c-0.699,1.734-1.376,3.48-2.068,5.22c-0.178,0.439-0.168,0.846,0.172,1.196
		c0.354,0.363,0.767,0.376,1.223,0.193c1.707-0.68,3.424-1.345,5.128-2.036c0.282-0.115,0.562-0.296,0.779-0.51
		c5.136-5.119,10.259-10.254,15.393-15.375c0.533-0.533,1.046-1.063,1.23-1.825c0-0.294,0-0.591,0-0.886
		C204.349,385.51,203.27,384.806,202.385,383.951z M202.38,387.718c-4.836,4.84-9.688,9.663-14.498,14.525
		c-0.849,0.858-1.742,1.558-2.91,1.894c-0.476,0.14-0.93,0.362-1.457,0.57c0.424-1.064,0.818-2.068,1.223-3.067
		c0.033-0.083,0.119-0.147,0.186-0.214c5.216-5.218,10.436-10.434,15.652-15.652c0.344-0.344,0.485-0.34,0.834,0.014
		c0.319,0.319,0.639,0.642,0.963,0.961C202.812,387.189,202.812,387.285,202.38,387.718z"/>
</g>
<g>
	<rect x="364.568" y="173.242" fill="#72BE9B" width="56.526" height="56.527"/>
	<g id="R3oGOx.tif_58_">
		<g>
			<path fill-rule="evenodd" clip-rule="evenodd" fill="#FFFFFF" d="M401.127,187.758c1.396,0.797,2.795,1.594,4.195,2.391
				c0.608,0.352,1.215,0.7,1.821,1.053c0.622,0.362,0.765,0.881,0.409,1.493c-0.189,0.341-0.383,0.68-0.588,1.017
				c-0.302,0.498-0.844,0.639-1.354,0.346c-1.914-1.102-3.834-2.212-5.745-3.324c-0.545-0.309-0.686-0.834-0.384-1.383
				c0.149-0.273,0.319-0.534,0.459-0.809c0.18-0.365,0.426-0.646,0.82-0.783C400.883,187.758,401.003,187.758,401.127,187.758z"/>
			<path fill-rule="evenodd" clip-rule="evenodd" fill="#FFFFFF" d="M406.057,196.615c-0.035,0.092-0.079,0.293-0.174,0.462
				c-3.266,5.654-6.527,11.312-9.808,16.957c-0.153,0.267-0.442,0.511-0.728,0.628c-2.155,0.893-4.324,1.748-6.488,2.612
				c-0.439,0.176-0.677,0.042-0.744-0.419c-0.337-2.306-0.668-4.611-1-6.926c-0.052-0.346,0.007-0.674,0.188-0.98
				c3.264-5.646,6.521-11.295,9.786-16.938c0.34-0.595,0.861-0.736,1.447-0.396c2.338,1.341,4.669,2.692,7.002,4.038
				C405.866,195.848,406.049,196.123,406.057,196.615z M402.799,197.429c-0.023-0.396-0.196-0.68-0.583-0.909
				c-0.926-0.537-1.854-1.074-2.783-1.607c-0.603-0.346-1.122-0.205-1.472,0.398c-0.415,0.721-0.83,1.439-1.244,2.158
				c-1.961,3.394-3.917,6.78-5.875,10.176c-0.362,0.624-0.227,1.128,0.395,1.492c0.928,0.538,1.856,1.072,2.783,1.607
				c0.547,0.313,1.086,0.176,1.394-0.357c2.402-4.152,4.8-8.307,7.194-12.461C402.693,197.774,402.736,197.592,402.799,197.429z"/>
		</g>
		<g>
			<path fill="#FFFFFF" d="M379.06,202.658v3.445h-2.235v-3.445h-3.422v-2.235h3.422v-3.44h2.235v3.44h3.442v2.235H379.06z"/>
		</g>
	</g>
</g>
<g>
	<rect x="539.025" y="173.242" fill="#FFFFFF" width="56.526" height="56.527"/>
	<g id="R3oGOx.tif_59_">
		<g>
			<path fill-rule="evenodd" clip-rule="evenodd" fill="#D6E1F1" d="M575.584,187.758c1.396,0.797,2.795,1.594,4.195,2.391
				c0.608,0.352,1.215,0.7,1.821,1.053c0.622,0.362,0.765,0.881,0.409,1.493c-0.189,0.341-0.383,0.68-0.588,1.017
				c-0.302,0.498-0.844,0.639-1.354,0.346c-1.914-1.102-3.834-2.212-5.745-3.324c-0.545-0.309-0.686-0.834-0.384-1.383
				c0.149-0.273,0.319-0.534,0.459-0.809c0.18-0.365,0.426-0.646,0.82-0.783C575.34,187.758,575.46,187.758,575.584,187.758z"/>
			<path fill-rule="evenodd" clip-rule="evenodd" fill="#D6E1F1" d="M580.514,196.615c-0.035,0.092-0.079,0.293-0.174,0.462
				c-3.266,5.654-6.527,11.312-9.808,16.957c-0.153,0.267-0.442,0.511-0.728,0.628c-2.155,0.893-4.324,1.748-6.488,2.612
				c-0.439,0.176-0.677,0.042-0.744-0.419c-0.337-2.306-0.668-4.611-1-6.926c-0.052-0.346,0.007-0.674,0.188-0.98
				c3.264-5.646,6.521-11.295,9.786-16.938c0.34-0.595,0.861-0.736,1.447-0.396c2.338,1.341,4.669,2.692,7.002,4.038
				C580.323,195.848,580.506,196.123,580.514,196.615z M577.256,197.429c-0.023-0.396-0.196-0.68-0.583-0.909
				c-0.926-0.537-1.854-1.074-2.783-1.607c-0.603-0.346-1.122-0.205-1.472,0.398c-0.415,0.721-0.83,1.439-1.244,2.158
				c-1.961,3.394-3.917,6.78-5.875,10.176c-0.362,0.624-0.227,1.128,0.395,1.492c0.928,0.538,1.856,1.072,2.783,1.607
				c0.547,0.313,1.086,0.176,1.394-0.357c2.402-4.152,4.8-8.307,7.194-12.461C577.15,197.774,577.193,197.592,577.256,197.429z"/>
		</g>
		<g>
			<path fill="#D6E1F1" d="M553.517,202.658v3.445h-2.235v-3.445h-3.422v-2.235h3.422v-3.44h2.235v3.44h3.442v2.235H553.517z"/>
		</g>
	</g>
</g>
<g>
	<rect x="379.16" y="295.005" fill="#72BE9B" width="56.793" height="56.794"/>
	<path fill="#FFFFFF" d="M409.283,318.035h-3.908v-10.966l-15.17,14.946l15.17,14.957v-10.98h3.937c2.092,0,4.235,0.906,5.496,2.824
		c0.696,1.07,1.131,2.852,1.131,4.107l7.588-4.107C422.92,325.743,420.281,318.035,409.283,318.035"/>
</g>
<g>
	<rect x="549.597" y="295.005" fill="#FFFFFF" width="56.792" height="56.794"/>
	<path fill="#D6E1F1" d="M579.72,318.035h-3.908v-10.966l-15.17,14.946l15.17,14.957v-10.98h3.935c2.092,0,4.236,0.906,5.496,2.824
		c0.697,1.07,1.131,2.852,1.131,4.107l7.588-4.107C593.354,325.743,590.718,318.035,579.72,318.035"/>
</g>
<g id="aaAgVB.tif_1_">
	<g>
		<path fill="#D6E1F1" d="M805.769,26.502c0-8.076,0-16.15,0-24.225c0.096-0.223,0.18-0.451,0.297-0.662
			c0.504-0.914,1.28-1.396,2.329-1.402c1.396-0.011,2.792-0.004,4.235-0.004c0-0.562,0.033-1.049-0.01-1.529
			c-0.051-0.598,0.119-1.068,0.609-1.418c0.245,0,0.49,0,0.734,0c0.488,0.351,0.66,0.818,0.611,1.417
			c-0.045,0.493-0.011,0.997-0.011,1.489c2.01,0,3.931,0,5.896,0c0-0.522,0.033-1.01-0.008-1.49
			c-0.055-0.598,0.118-1.066,0.607-1.416c0.244,0,0.49,0,0.734,0c0.488,0.351,0.662,0.818,0.61,1.417
			c-0.042,0.493-0.011,0.997-0.011,1.489c2.01,0,3.932,0,5.896,0c0-0.523,0.032-1.01-0.009-1.49
			c-0.053-0.598,0.118-1.068,0.608-1.416c0.244,0,0.49,0,0.733,0c0.491,0.351,0.661,0.822,0.61,1.422
			c-0.042,0.494-0.01,0.996-0.01,1.525c1.416,0,2.738-0.002,4.059,0c1.719,0.006,2.791,1.066,2.793,2.775
			c0.002,7.594,0.001,15.188-0.004,22.783c0,0.281-0.021,0.57-0.084,0.844c-0.251,1.062-1.023,1.611-1.98,1.969
			c-9.053,0-18.107,0-27.16,0C806.808,28.233,806.114,27.543,805.769,26.502z M812.63,2.145c-1.341,0-2.583-0.002-3.826,0
			c-0.928,0.002-1.09,0.167-1.09,1.111c0,7.422,0,14.846,0,22.265c0,0.964,0.154,1.114,1.149,1.114c8.38,0,16.759,0,25.14,0
			c0.982-0.001,1.137-0.152,1.137-1.127c0-7.422,0-14.842,0-22.265c0-0.163,0.055-0.368-0.023-0.479
			c-0.156-0.229-0.383-0.574-0.594-0.582c-1.416-0.052-2.836-0.027-4.299-0.027c0,0.638,0.006,1.206-0.002,1.773
			c-0.006,0.725-0.373,1.155-0.973,1.15c-0.6-0.004-0.951-0.43-0.957-1.166c-0.006-0.581-0.002-1.162-0.002-1.717
			c-2.024,0-3.949,0-5.896,0c0,0.621,0.006,1.193-0.001,1.762c-0.007,0.687-0.368,1.107-0.943,1.121
			c-0.599,0.016-0.981-0.418-0.989-1.135c-0.006-0.583,0-1.168,0-1.76c-2.002,0-3.926,0-5.896,0c0,0.627,0.007,1.217-0.003,1.805
			c-0.009,0.673-0.393,1.095-0.971,1.09c-0.58-0.004-0.949-0.423-0.96-1.104C812.624,3.389,812.63,2.801,812.63,2.145z"/>
		<path fill-rule="evenodd" clip-rule="evenodd" fill="#D6E1F1" d="M826.366,18.824c1.289,0,2.527,0,3.812,0
			c0,0.937,0,1.863,0,2.846c-1.242,0-2.51,0-3.812,0C826.366,20.74,826.366,19.812,826.366,18.824z"/>
		<path fill-rule="evenodd" clip-rule="evenodd" fill="#D6E1F1" d="M819.511,21.672c0-0.941,0-1.869,0-2.832c1.273,0,2.525,0,3.82,0
			c0,0.932,0,1.858,0,2.832C822.077,21.672,820.81,21.672,819.511,21.672z"/>
		<path fill-rule="evenodd" clip-rule="evenodd" fill="#D6E1F1" d="M816.505,18.84c0,0.963,0,1.877,0,2.836
			c-1.267,0-2.521,0-3.824,0c0-0.92,0-1.861,0-2.836C813.938,18.84,815.191,18.84,816.505,18.84z"/>
		<path fill-rule="evenodd" clip-rule="evenodd" fill="#D6E1F1" d="M830.203,13.961c0,0.959,0,1.873,0,2.824
			c-1.272,0-2.526,0-3.826,0c0-0.916,0-1.844,0-2.824C827.619,13.961,828.888,13.961,830.203,13.961z"/>
		<path fill-rule="evenodd" clip-rule="evenodd" fill="#D6E1F1" d="M823.333,16.795c-1.286,0-2.539,0-3.822,0
			c0-0.959,0-1.886,0-2.848c1.275,0,2.529,0,3.822,0C823.333,14.879,823.333,15.806,823.333,16.795z"/>
		<path fill-rule="evenodd" clip-rule="evenodd" fill="#D6E1F1" d="M816.493,13.955c0,0.949,0,1.875,0,2.836
			c-1.279,0-2.532,0-3.826,0c0-0.938,0-1.863,0-2.836C813.915,13.955,815.169,13.955,816.493,13.955z"/>
		<path fill-rule="evenodd" clip-rule="evenodd" fill="#D6E1F1" d="M826.38,9.05c1.264,0,2.518,0,3.809,0c0,0.943,0,1.87,0,2.841
			c-1.254,0-2.508,0-3.809,0C826.38,10.963,826.38,10.022,826.38,9.05z"/>
		<path fill-rule="evenodd" clip-rule="evenodd" fill="#D6E1F1" d="M819.501,11.881c0-0.961,0-1.871,0-2.824
			c1.274,0,2.528,0,3.826,0c0,0.918,0,1.845,0,2.824C822.087,11.881,820.817,11.881,819.501,11.881z"/>
		<path fill-rule="evenodd" clip-rule="evenodd" fill="#D6E1F1" d="M816.475,11.908c-1.292,0-2.531,0-3.808,0
			c0-0.949,0-1.877,0-2.848c1.252,0,2.504,0,3.808,0C816.475,9.984,816.475,10.925,816.475,11.908z"/>
	</g>
</g>
<g id="IuInrN.tif_1_">
	<g>
		<path fill="#D6E1F1" d="M1007.585,25.551c-1.086,0-2.174,0-3.26,0c-0.225-0.07-0.443-0.158-0.67-0.206
			c-5.264-1.116-8.658-4.28-10.289-9.378c-0.172-0.536-0.305-1.084-0.455-1.626c0-1.224,0-2.446,0-3.668
			c0.071-0.182,0.17-0.356,0.212-0.545c1.125-5.132,4.201-8.499,9.175-10.148c0.599-0.198,1.214-0.346,1.823-0.517
			c1.222,0,2.444,0,3.668,0c0.181,0.071,0.354,0.171,0.542,0.212c4.719,1.008,7.994,3.751,9.806,8.209
			c0.388,0.955,0.58,1.992,0.862,2.991c0,1.088,0,2.176,0,3.262c-0.072,0.256-0.16,0.509-0.218,0.767
			c-1.137,5.101-4.184,8.473-9.144,10.108C1008.968,25.233,1008.271,25.374,1007.585,25.551z M995.54,12.467
			c-0.01,5.748,4.649,10.441,10.375,10.452c5.742,0.012,10.443-4.655,10.452-10.378c0.009-5.747-4.652-10.44-10.378-10.449
			C1000.237,2.083,995.55,6.738,995.54,12.467z"/>
		<path fill-rule="evenodd" clip-rule="evenodd" fill="#D6E1F1" d="M1012.482,16.283c-0.376,0.612-0.691,1.125-1.046,1.705
			c-2.193-1.345-4.322-2.641-6.434-3.969c-0.188-0.117-0.346-0.438-0.349-0.664c-0.024-2.404-0.017-4.807-0.017-7.287
			c0.652,0,1.24,0,1.955,0c0,1.895,0.033,3.781-0.018,5.665c-0.02,0.732,0.197,1.169,0.848,1.535
			C1009.102,14.215,1010.737,15.237,1012.482,16.283z"/>
	</g>
</g>
</svg>
