<?xml version="1.0" encoding="utf-8"?>
<!-- Generator: Adobe Illustrator 16.0.4, SVG Export Plug-In . SVG Version: 6.00 Build 0)  -->
<!DOCTYPE svg PUBLIC "-//W3C//DTD SVG 1.1//EN" "http://www.w3.org/Graphics/SVG/1.1/DTD/svg11.dtd">
<svg version="1.1" id="Layer_1" xmlns="http://www.w3.org/2000/svg" xmlns:xlink="http://www.w3.org/1999/xlink" x="0px" y="0px"
	 width="24px" height="24px" viewBox="0 0 24 24" enable-background="new 0 0 24 24" xml:space="preserve">
<g>
	<path fill="#F7B632" d="M23.385,5.097c0-2.589-2.099-4.688-4.688-4.688H5.072c-2.589,0-4.688,2.099-4.688,4.688v13.625
		c0,2.589,2.099,4.688,4.688,4.688h13.625c2.589,0,4.688-2.099,4.688-4.688V5.097z"/>
</g>
<text transform="matrix(1 0 0 1 4.0864 9.2031)" fill="#FFFFFF" font-family="'Montserrat-SemiBold'" font-size="10.5379">+</text>
<g>
	<path fill="#FFFFFF" d="M13.378,12.115c0.04,0,0.081-0.008,0.119-0.027c0.149-0.068,0.215-0.24,0.149-0.389l-0.174-0.38
		c-0.066-0.149-0.239-0.216-0.388-0.149c-0.149,0.069-0.214,0.24-0.149,0.388l0.175,0.383
		C13.158,12.048,13.268,12.115,13.378,12.115z"/>
	<path fill="#FFFFFF" d="M21.956,5.697c-0.085-0.179-0.294-0.261-0.478-0.189l-7.715,2.97c-0.102-0.053-0.21-0.095-0.318-0.128
		c-0.002-0.013-0.002-0.024-0.01-0.04l-0.541-1.757c-0.044-0.141-0.167-0.243-0.316-0.265c-0.145-0.016-0.289,0.052-0.369,0.179
		l-1.486,2.418c-0.008,0.014-0.014,0.03-0.021,0.047L9.5,9.352c-1.27,0.444-2.286,1.417-2.79,2.666L5.022,16.21
		c-0.062,0.159-0.016,0.341,0.122,0.444l5.604,4.248c0.067,0.051,0.149,0.079,0.229,0.079c0.055,0,0.105-0.013,0.155-0.035
		c0.127-0.054,0.212-0.175,0.224-0.313l0.288-3.729c0.019-0.209-0.139-0.389-0.347-0.406c-0.209-0.012-0.392,0.14-0.406,0.348
		l-0.236,3.038l-4.823-3.657l1.577-3.924c0.424-1.045,1.275-1.86,2.342-2.235l2.797-0.978c0.471-0.164,0.99,0.007,1.271,0.42
		l3.071,4.501c0.373,0.55,0.401,1.254,0.076,1.834l-0.316,0.565c-0.191,0.341-0.619,0.471-0.97,0.288l-4.079-2.109
		c-0.244-0.129-0.404-0.368-0.43-0.642l-0.203-2.38c-0.018-0.21-0.199-0.365-0.408-0.346c-0.208,0.019-0.363,0.202-0.344,0.411
		l0.201,2.377c0.047,0.539,0.358,1.005,0.836,1.251l4.081,2.109c0.713,0.37,1.584,0.111,1.977-0.594l0.317-0.565
		c0.467-0.828,0.424-1.837-0.115-2.626l-2.433-3.568l6.723-3.829C21.973,6.09,22.043,5.875,21.956,5.697z M12.301,8.375
		l-0.476,0.166l0.593-0.965l0.223,0.716C12.525,8.31,12.412,8.335,12.301,8.375z M14.654,9.389l-0.213-0.31
		c-0.008-0.013-0.02-0.028-0.027-0.042l2.643-1.017L14.654,9.389z"/>
</g>
</svg>
