<svg id="Layer_1" data-name="Layer 1" xmlns="http://www.w3.org/2000/svg" viewBox="0 0 41.06 41.06"><defs><style>.cls-1{fill:#f7b632;}.cls-2,.cls-3{fill:#37474f;}.cls-3{font-size:21.44px;font-family:Montserrat-Bold, Montserrat;font-weight:700;}</style></defs><title>Artboard 12</title><rect class="cls-1" x="0.06" y="0.06" width="41" height="41" rx="8.44" ry="8.44"/><path class="cls-2" d="M36.33,19.69a.57.57,0,0,0-.77-.24l-3.13,1.64a.57.57,0,0,0,.53,1l3.13-1.64A.57.57,0,0,0,36.33,19.69Z"/><path class="cls-2" d="M29.53,17a.57.57,0,0,0,.4-.16l2.74-2.67a.57.57,0,0,0-.8-.82l-2.74,2.67a.57.57,0,0,0,.4,1Z"/><path class="cls-2" d="M24.45,14a.56.56,0,0,0,.23,0,.57.57,0,0,0,.52-.34l1.48-3.37a.57.57,0,0,0-1-.46l-1.48,3.37A.57.57,0,0,0,24.45,14Z"/><path class="cls-2" d="M19.46,15.05a1.07,1.07,0,0,0-.78.28,1.15,1.15,0,0,0-.27.69c-.25,2.17-1.54,6.51-4,8.94l-.77.77a1.52,1.52,0,0,0-.22,1.76l-.36.36a2.4,2.4,0,0,0,0,3.39l.77.77a2.4,2.4,0,0,0,3.39,0l.36-.36a1.55,1.55,0,0,0,1.59-.08l3.33,3.32a1.31,1.31,0,0,0,1.85,0l.77-.77a1.86,1.86,0,0,0,0-2.62.79.79,0,0,0-1.08,0l-.19.19s-.05,0-.07,0a1,1,0,0,1,.1-.25,1,1,0,0,0-.1-1.3.89.89,0,0,0-.64-.28,1.59,1.59,0,0,0-.65.18l-.25.11a1,1,0,0,1,.11-.26,1,1,0,0,0,.13-1,18.73,18.73,0,0,1,6.57-2.22,1,1,0,0,0,.69-.28c1-1-.69-4.08-3.85-7.24C23.45,16.71,20.85,15.05,19.46,15.05ZM23,31.12a1,1,0,0,0,.1,1.27,1.05,1.05,0,0,0,1.47,0l0,0a.87.87,0,0,1-.13,1.05l-.77.77a.33.33,0,0,1-.46,0l-3.31-3.31.23-.23a9.88,9.88,0,0,1,1.33-1.11l0,0a1,1,0,0,0,.11,1.26,1.05,1.05,0,0,0,1.47,0,.05.05,0,0,1,.07,0A1,1,0,0,1,23,31.12ZM14.06,29.2l-.39.39a.48.48,0,0,0,0,.7.48.48,0,0,0,.7,0l.39-.39a.49.49,0,0,0,.15-.35.46.46,0,0,0,0-.16l.42.43a12.81,12.81,0,0,0,1.49,1.28l-.22.22a1.42,1.42,0,0,1-2,0l-.77-.77a1.41,1.41,0,0,1,0-2l.22-.22c.18.25.39.51.62.78A.48.48,0,0,0,14.06,29.2Zm9-8.57a1.41,1.41,0,0,1,1.17,2.21c-.34-.31-.67-.61-1-1s-.64-.66-1-1A1.42,1.42,0,0,1,23.07,20.62Zm1.7-.28a2.39,2.39,0,0,0-3.13-.23c-1.81-2.25-2.42-3.9-2.26-4.08a.17.17,0,0,1,.1,0c.67,0,3.17,1.29,5.75,3.87,2.89,2.89,4.1,5.6,3.85,5.85a.16.16,0,0,1-.09,0c-.49,0-2-.71-4-2.28A2.39,2.39,0,0,0,24.77,20.34Zm-2.24,2.24A20.1,20.1,0,0,0,27,26.06,17.12,17.12,0,0,0,19.45,30l-.77.77a.37.37,0,0,1-.27.1c-.7,0-1.95-1.25-2.42-1.72a12.57,12.57,0,0,1-1.26-1.41c-.31-.43-.63-1-.36-1.28l.77-.77A17.14,17.14,0,0,0,19,18.09,20.11,20.11,0,0,0,22.53,22.58Z"/><text class="cls-3" transform="translate(4.77 19.38)">+</text></svg>