<svg id="Layer_1" data-name="Layer 1" xmlns="http://www.w3.org/2000/svg" viewBox="0 0 41.06 41.06"><defs><style>.cls-1{fill:#f7b632;}.cls-2,.cls-3{fill:#37474f;}.cls-3{font-size:21.44px;font-family:Montserrat-Bold, Montserrat;font-weight:700;}</style></defs><title>Artboard 4</title><rect class="cls-1" y="0.06" width="41" height="41" rx="8.44" ry="8.44"/><path class="cls-2" d="M21,25.7l-1.84-.1a2.58,2.58,0,1,0-4.22-.22l-2.21-.12a1.56,1.56,0,0,0-1.64,1.48l-.16,3.1a.37.37,0,0,0,.66.24,1.84,1.84,0,1,1-.11,2,.37.37,0,0,0-.68.17L10.66,35a1.56,1.56,0,0,0,1.48,1.64l8.28.43a1.56,1.56,0,0,0,1.64-1.48l.12-2.31a.37.37,0,0,0-.6-.31,1.84,1.84,0,1,1,.14-2.73.37.37,0,0,0,.63-.24l.14-2.68A1.56,1.56,0,0,0,21,25.7Zm.64,3.6a2.58,2.58,0,1,0-.24,4.64l-.09,1.63a.82.82,0,0,1-.87.78l-8.28-.43a.82.82,0,0,1-.78-.87l.1-1.84A2.58,2.58,0,1,0,11.71,29l.12-2.21a.82.82,0,0,1,.87-.78l3.1.16A.37.37,0,0,0,16,25.5a1.84,1.84,0,1,1,2,.11.37.37,0,0,0,.17.68l2.74.14a.82.82,0,0,1,.78.87Z"/><path class="cls-2" d="M32.31,15.89a1.28,1.28,0,0,0-.73-.66l-6.15-2.16a1.28,1.28,0,0,0-1.64.79l-.44,1.27a2.08,2.08,0,1,0-1.17,3.34L21.63,20a1.29,1.29,0,0,0,.79,1.64l1.27.44A2.08,2.08,0,1,0,27,23.27l1.54.54A1.28,1.28,0,0,0,30.21,23L31,20.72a.35.35,0,0,0-.54-.39A1.39,1.39,0,1,1,31,18.88a.35.35,0,0,0,.32.26h0a.35.35,0,0,0,.34-.23l.71-2A1.27,1.27,0,0,0,32.31,15.89Zm-.6.75-.44,1.27a2.08,2.08,0,1,0-1.17,3.34l-.54,1.54a.59.59,0,0,1-.75.36l-2.31-.81a.35.35,0,0,0-.39.54,1.39,1.39,0,1,1-1.45-.51.35.35,0,0,0,0-.67l-2-.71a.59.59,0,0,1-.36-.75l.81-2.31a.35.35,0,0,0-.54-.39,1.38,1.38,0,0,1-1.3.2h0a1.39,1.39,0,1,1,1.81-1.65.35.35,0,0,0,.32.26h0a.35.35,0,0,0,.34-.23l.71-2a.59.59,0,0,1,.75-.36l6.15,2.16a.59.59,0,0,1,.36.75Z"/><path class="cls-2" d="M23.29,34.51a1.35,1.35,0,0,0,.7.77l6.24,2.93A1.36,1.36,0,0,0,32,37.56l.6-1.29a2.2,2.2,0,1,0,1.59-3.39L35,31.32a1.36,1.36,0,0,0-.65-1.81L33,28.91a2.2,2.2,0,1,0-3.39-1.59l-1.56-.73a1.36,1.36,0,0,0-1.81.65l-1.1,2.34a.37.37,0,0,0,.52.47A1.47,1.47,0,1,1,25,31.51a.37.37,0,0,0-.31-.31h0a.37.37,0,0,0-.39.21l-1,2.06A1.35,1.35,0,0,0,23.29,34.51Zm.71-.73.6-1.29a2.2,2.2,0,1,0,1.59-3.39l.73-1.56a.62.62,0,0,1,.83-.3l2.34,1.1a.37.37,0,0,0,.47-.52,1.47,1.47,0,1,1,1.47.69.37.37,0,0,0-.1.7l2.06,1a.62.62,0,0,1,.3.83l-1.1,2.34a.37.37,0,0,0,.52.47,1.46,1.46,0,0,1,1.39-.07h0A1.47,1.47,0,1,1,33,35.29a.37.37,0,0,0-.31-.31h0a.37.37,0,0,0-.39.21l-1,2.06a.62.62,0,0,1-.83.3l-6.24-2.93a.62.62,0,0,1-.3-.83Z"/><text class="cls-3" transform="translate(4.56 19.19)">+</text></svg>