<?xml version="1.0" encoding="utf-8"?>
<!-- Generator: Adobe Illustrator 16.0.4, SVG Export Plug-In . SVG Version: 6.00 Build 0)  -->
<!DOCTYPE svg PUBLIC "-//W3C//DTD SVG 1.1//EN" "http://www.w3.org/Graphics/SVG/1.1/DTD/svg11.dtd">
<svg version="1.1" id="Layer_1" xmlns="http://www.w3.org/2000/svg" xmlns:xlink="http://www.w3.org/1999/xlink" x="0px" y="0px"
	 width="302px" height="52.581px" viewBox="0 0 302 52.581" enable-background="new 0 0 302 52.581" xml:space="preserve">
<path fill="#56473B" d="M6.477,9.557H37.15v7.908H17.948v5.887h17.812v7.555H17.948v7.302h19.758v8.388H6.477V9.557z"/>
<path fill="#56473B" d="M44.023,46.597V9.557h19.076c3.538,0,6.241,0.304,8.11,0.91c1.87,0.606,3.377,1.73,4.523,3.373
	s1.718,3.643,1.718,6c0,2.056-0.438,3.828-1.315,5.319c-0.876,1.49-2.082,2.699-3.615,3.625c-0.977,0.589-2.317,1.078-4.02,1.465
	c1.364,0.455,2.356,0.911,2.979,1.365c0.42,0.304,1.031,0.953,1.831,1.948c0.799,0.995,1.334,1.762,1.604,2.302l5.542,10.732H67.524
	l-6.118-11.319c-0.775-1.465-1.465-2.417-2.072-2.855c-0.826-0.573-1.76-0.859-2.805-0.859h-1.01v15.033H44.023z M55.52,24.565
	h4.826c0.521,0,1.533-0.168,3.032-0.505c0.758-0.152,1.377-0.54,1.857-1.163c0.48-0.623,0.72-1.339,0.72-2.147
	c0-1.196-0.378-2.114-1.137-2.754c-0.757-0.64-2.182-0.96-4.271-0.96H55.52V24.565z"/>
<path fill="#56473B" d="M86.252,9.557h30.674v7.908H97.724v5.887h17.813v7.555H97.724v7.302h19.758v8.388H86.252V9.557z"/>
<path fill="#56473B" d="M123.266,9.557h11.446v12.962h12.506V9.557h11.497v37.041h-11.497V31.615h-12.506v14.982h-11.446V9.557z"/>
<path fill="#56473B" d="M164.662,9.557h10.871l3.914,20.736l5.728-20.736h10.832l5.743,20.708l3.918-20.708h10.815l-8.165,37.041
	h-11.224l-6.497-23.321l-6.471,23.321h-11.224L164.662,9.557z"/>
<path fill="#56473B" d="M261.715,9.557h10.688l13.947,20.493V9.557h10.789v37.041H286.35l-13.871-20.338v20.338h-10.764V9.557z"/>
<g>
	<path fill="#508971" d="M247.379,42.337c0.503-0.288,1.089-0.321,1.758-0.099c0.668,0.222,1.242,0.647,1.721,1.275
		s0.737,1.294,0.774,1.998c0.037,0.704-0.15,1.26-0.561,1.67l-0.613-0.437c0.229-0.174,0.284-0.503,0.169-0.988
		c-0.115-0.485-0.367-0.983-0.755-1.491s-0.801-0.883-1.238-1.123c-0.437-0.239-0.768-0.273-0.997-0.099L247.379,42.337z"/>
	<path fill="#508971" d="M247.554,48.171l-1.968-3.96l1.173-0.582l1.447,2.911l0.527-0.405l0.41,0.825L247.554,48.171z"/>
	<path fill="#508971" d="M244.403,44.665l-0.791,1.554c0.582-0.106,1.107-0.062,1.572,0.133c0.465,0.194,0.746,0.489,0.839,0.884
		c0.097,0.414-0.036,0.82-0.4,1.219c-0.364,0.398-0.853,0.669-1.463,0.813c-0.61,0.145-1.168,0.121-1.675-0.072
		c-0.506-0.193-0.806-0.497-0.903-0.911c-0.057-0.243-0.028-0.492,0.087-0.748c0.011-0.022,0.028-0.057,0.046-0.104
		c0.018-0.046,0.035-0.082,0.047-0.101l1.188-2.321L244.403,44.665z M243.656,47.115c-0.264,0.062-0.473,0.18-0.629,0.349
		c-0.155,0.169-0.214,0.344-0.172,0.522c0.041,0.176,0.171,0.306,0.386,0.391c0.215,0.084,0.455,0.095,0.718,0.033
		c0.264-0.062,0.473-0.18,0.628-0.352c0.155-0.172,0.21-0.346,0.168-0.522c-0.042-0.179-0.172-0.309-0.386-0.391
		c-0.215-0.082-0.454-0.093-0.718-0.03L243.656,47.115z"/>
	<path fill="#508971" d="M238.346,49.147c-0.018-0.454,0.514-0.843,1.185-0.868s1.231,0.323,1.249,0.776
		c0.018,0.453-0.514,0.842-1.185,0.868C238.924,49.948,238.364,49.6,238.346,49.147z M240.061,49.085
		c-0.007-0.186-0.235-0.328-0.51-0.317s-0.492,0.169-0.484,0.355c0.007,0.186,0.236,0.327,0.511,0.317
		S240.068,49.271,240.061,49.085z"/>
	<path fill="#508971" d="M232.732,49.232l0.861-4.329l1.281,0.256l-0.633,3.182l0.664,0.001l-0.18,0.902L232.732,49.232z"/>
	<path fill="#508971" d="M229.597,46.856c-0.039,0.091-0.018,0.195,0.043,0.29c0.063,0.099,0.167,0.186,0.301,0.243
		c0.115,0.05,0.235,0.068,0.336,0.058c0.102-0.01,0.188-0.047,0.243-0.113l1.118,0.684c-0.199,0.228-0.513,0.361-0.876,0.396
		c-0.363,0.035-0.777-0.03-1.175-0.201c-0.469-0.202-0.838-0.513-1.057-0.855c-0.219-0.342-0.286-0.71-0.149-1.028
		c0.11-0.257,0.335-0.44,0.626-0.542c-0.012-0.014-0.023-0.028-0.031-0.041c-0.266-0.398-0.35-0.828-0.192-1.195
		s0.528-0.603,1-0.683c0.463-0.081,1.025-0.012,1.572,0.223c0.455,0.195,0.838,0.483,1.106,0.804
		c0.271,0.325,0.419,0.688,0.403,1.033l-1.264-0.302c0.005-0.126-0.055-0.263-0.16-0.388s-0.259-0.24-0.445-0.32
		c-0.224-0.096-0.449-0.125-0.631-0.092c-0.176,0.029-0.314,0.115-0.373,0.251c-0.173,0.392,0.192,0.969,1.121,1.405l-0.397,0.226
		c-0.663-0.192-1.03-0.088-1.132,0.149L229.597,46.856z"/>
	<path fill="#508971" d="M225.661,45.909l0.98-1.059l0.79,0.58l-0.715,1.253L225.661,45.909z"/>
	<path fill="#508971" d="M221.41,41.258l3.616-2.534l0.749,1.069l-2.658,1.863l0.479,0.459l-0.753,0.528L221.41,41.258z"/>
	<path fill="#508971" d="M224.707,38.454l-0.551-0.028c-1.197-1.14-2.856-2.264-3.317-2.088c-0.177,0.067-0.295,0.234-0.345,0.448
		c-0.05,0.214-0.031,0.48,0.069,0.741s0.262,0.468,0.442,0.595c0.181,0.126,0.38,0.171,0.557,0.104l0.468,1.223
		c-0.405,0.154-0.864,0.052-1.282-0.24s-0.789-0.771-1.018-1.369s-0.272-1.202-0.157-1.697c0.116-0.495,0.39-0.877,0.795-1.031
		c0.484-0.185,1.135,0.071,1.784,0.5c0.245,0.163,0.476,0.313,0.713,0.513l-0.646-1.688l0.828-0.315L224.707,38.454z"/>
	<path fill="#508971" d="M218.563,33.475l1.436-0.1l0.181,0.964l-1.375,0.422L218.563,33.475z"/>
	<path fill="#508971" d="M218.283,31.35l1.438,0.014l0.103,0.975l-1.403,0.312L218.283,31.35z"/>
	<path fill="#508971" d="M221.815,25.721c0.038-0.359-0.131-0.678-0.373-0.704c-0.188-0.02-0.318,0.076-0.396,0.292
		c-0.167,0.455-0.127,0.345-0.282,0.789c-0.162,0.467-0.429,0.887-0.735,1.156c-0.182,0.16-0.392,0.227-0.634,0.201
		c-0.364-0.039-0.656-0.265-0.875-0.68s-0.301-0.892-0.243-1.436c0.057-0.54,0.237-0.989,0.539-1.348s0.635-0.519,0.999-0.48
		l-0.139,1.309c-0.239-0.025-0.472,0.251-0.509,0.605c-0.038,0.359,0.131,0.678,0.373,0.704c0.158,0.017,0.287-0.063,0.388-0.244
		c0.209-0.369,0.172-0.328,0.314-0.781c0.15-0.489,0.408-0.918,0.709-1.2c0.177-0.165,0.39-0.235,0.637-0.209
		c0.367,0.039,0.659,0.266,0.878,0.681s0.301,0.892,0.244,1.431c-0.058,0.544-0.237,0.993-0.539,1.352s-0.634,0.519-1.001,0.48
		l0.139-1.313c0.245,0.026,0.474-0.247,0.512-0.609L221.815,25.721z"/>
	<path fill="#508971" d="M222.246,22.397c0.122-0.462,0.494-0.788,0.805-0.705c0.114,0.03,0.265,0.066,0.424,0.268
		c0.159,0.198,0.296,0.448,0.284,0.957c-0.005,0.158-0.158,0.521-0.209,0.553c-0.083,0.049-0.052-0.572-0.303-0.53
		c-0.157,0.307-0.409,0.509-0.654,0.443c-0.311-0.083-0.465-0.527-0.343-0.989L222.246,22.397z"/>
	<path fill="#508971" d="M221.694,15.377l3.788,2.238l-0.666,1.124l-2.784-1.645l-0.222,0.625l-0.789-0.466L221.694,15.377z"/>
	<path fill="#508971" d="M225.507,14.185c-0.429,0.441-0.519,0.607-0.658,1.183l-0.688,0.341l-1.412-1.83l2.419-2.485l0.632,0.612
		l-1.666,1.71l0.321,0.413c0.145-0.231,0.22-0.316,0.438-0.54c0.827-0.849,2.105-1.16,2.7-0.584
		c0.305,0.295,0.404,0.712,0.296,1.256c-0.108,0.543-0.39,1.048-0.844,1.515c-0.339,0.348-0.707,0.6-1.104,0.761
		s-0.758,0.212-1.082,0.152l0.703-1.127c0.296,0.011,0.578-0.122,0.849-0.4c0.195-0.2,0.316-0.415,0.362-0.646
		c0.046-0.231,0.003-0.408-0.127-0.534c-0.13-0.125-0.308-0.163-0.541-0.112c-0.233,0.05-0.402,0.118-0.596,0.318L225.507,14.185z"
		/>
	<path fill="#508971" d="M229.616,13.561l0.382-1.698c-0.538,0.248-1.058,0.334-1.557,0.262c-0.499-0.073-0.844-0.288-1.031-0.646
		c-0.196-0.376-0.167-0.802,0.086-1.278c0.254-0.476,0.661-0.859,1.217-1.149c0.556-0.291,1.103-0.407,1.641-0.346
		s0.904,0.28,1.101,0.656c0.115,0.221,0.149,0.469,0.101,0.744c-0.005,0.024-0.013,0.062-0.019,0.112
		c-0.006,0.049-0.014,0.087-0.021,0.109l-0.578,2.539L229.616,13.561z M229.734,11.006c0.24-0.125,0.414-0.291,0.523-0.493
		c0.109-0.202,0.123-0.385,0.038-0.548c-0.083-0.16-0.242-0.253-0.471-0.282c-0.229-0.028-0.464,0.021-0.704,0.146
		c-0.24,0.125-0.415,0.291-0.522,0.496c-0.108,0.205-0.118,0.386-0.035,0.546c0.085,0.163,0.243,0.256,0.471,0.282
		s0.463-0.023,0.703-0.148L229.734,11.006z"/>
	<path fill="#508971" d="M234.5,7.769c0.114,0.441-0.323,0.937-0.974,1.107c-0.651,0.169-1.273-0.051-1.387-0.492
		c-0.114-0.44,0.323-0.937,0.974-1.107C233.764,7.107,234.386,7.328,234.5,7.769z M232.836,8.199c0.047,0.181,0.3,0.271,0.567,0.201
		c0.267-0.07,0.444-0.272,0.398-0.453c-0.047-0.181-0.3-0.27-0.567-0.201S232.79,8.019,232.836,8.199z"/>
	<path fill="#508971" d="M240.296,8.827c-0.615-0.023-0.798,0.022-1.32,0.303l-0.714-0.281l0.421-2.268l3.465,0.13l-0.034,0.877
		l-2.386-0.09l-0.093,0.513c0.27-0.047,0.383-0.048,0.694-0.037c1.185,0.045,2.269,0.783,2.237,1.608
		c-0.016,0.423-0.261,0.775-0.738,1.058c-0.477,0.283-1.041,0.412-1.691,0.388c-0.485-0.019-0.918-0.122-1.304-0.309
		c-0.385-0.187-0.664-0.419-0.835-0.699l1.309-0.232c0.19,0.226,0.477,0.346,0.865,0.361c0.279,0.01,0.52-0.043,0.723-0.165
		c0.203-0.121,0.306-0.27,0.313-0.45c0.007-0.18-0.084-0.337-0.277-0.476c-0.193-0.139-0.356-0.219-0.635-0.229V8.827z"/>
	<path fill="#508971" d="M245.415,9.646c-0.589-0.181-0.779-0.185-1.356-0.046l-0.619-0.457l0.993-2.094l3.322,1.02l-0.26,0.842
		l-2.287-0.702l-0.223,0.475c0.273,0.023,0.383,0.052,0.681,0.143c1.136,0.349,1.996,1.345,1.751,2.138
		c-0.125,0.407-0.453,0.685-0.987,0.837s-1.114,0.132-1.738-0.06c-0.465-0.143-0.857-0.355-1.183-0.636s-0.535-0.578-0.628-0.894
		l1.328,0.111c0.125,0.269,0.372,0.459,0.744,0.573c0.267,0.082,0.515,0.092,0.742,0.027c0.228-0.065,0.366-0.184,0.42-0.357
		c0.053-0.173,0.005-0.349-0.146-0.533c-0.151-0.184-0.288-0.304-0.556-0.386L245.415,9.646z"/>
	<path fill="#508971" d="M250.229,9.377l-0.87,1.152l-0.846-0.499l0.586-1.319L250.229,9.377z"/>
	<path fill="#508971" d="M255.843,15.146l-2.931,0.231l0.753,1.167l1.44-0.925l0.708,1.096l-1.44,0.925l0.356,0.551l-0.742,0.477
		l-0.356-0.551l-0.791,0.508l-0.707-1.096l0.79-0.508l-1.817-2.814l3.976-0.249L255.843,15.146z"/>
	<path fill="#508971" d="M255.597,22.993c-0.38,0.105-0.759-0.004-1.141-0.331c-0.382-0.327-0.648-0.77-0.802-1.332
		s-0.15-1.081,0.011-1.559c0.162-0.478,0.432-0.767,0.812-0.872c0.396-0.11,0.793,0.015,1.189,0.372
		c0.142-0.279,0.341-0.456,0.597-0.527c0.322-0.09,0.643,0.002,0.965,0.278s0.547,0.651,0.677,1.127
		c0.13,0.477,0.128,0.915-0.009,1.318s-0.365,0.647-0.687,0.737c-0.256,0.071-0.517,0.021-0.781-0.145
		C256.273,22.57,255.995,22.882,255.597,22.993z M255.559,20.789c-0.06-0.219-0.163-0.388-0.31-0.511
		c-0.147-0.123-0.292-0.163-0.437-0.123c-0.148,0.041-0.251,0.153-0.312,0.334c-0.062,0.181-0.06,0.382,0,0.601
		c0.059,0.215,0.163,0.388,0.309,0.516c0.146,0.127,0.294,0.17,0.441,0.129c0.146-0.041,0.25-0.154,0.313-0.339
		s0.065-0.384,0.007-0.599L255.559,20.789z M256.42,20.562c0.035,0.129,0.098,0.233,0.187,0.31c0.089,0.076,0.179,0.102,0.266,0.077
		c0.087-0.024,0.148-0.091,0.186-0.203s0.04-0.229,0.004-0.358c-0.036-0.129-0.097-0.229-0.186-0.306s-0.176-0.103-0.263-0.079
		c-0.087,0.024-0.148,0.092-0.186,0.203s-0.039,0.233-0.003,0.362L256.42,20.562z"/>
	<path fill="#508971" d="M258.683,24.15l-1.442,0.019l-0.125-0.971l1.4-0.344L258.683,24.15z"/>
	<path fill="#508971" d="M258.856,26.284l-1.438-0.078l-0.059-0.979l1.418-0.25L258.856,26.284z"/>
	<path fill="#508971" d="M258.405,34.134l-0.875-0.113l0.334-2.584l-0.877-0.113l-0.25,1.938l-0.875-0.113l0.251-1.938l-0.875-0.113
		l-0.334,2.584l-0.877-0.113l0.334-2.584l0.167-1.296l4.378,0.565L258.405,34.134z"/>
	<path fill="#508971" d="M254.192,34.904c0.372,0.332,0.864,0.59,1.472,0.779s1.16,0.253,1.653,0.19
		c0.494-0.063,0.782-0.229,0.865-0.5l0.618,0.425c-0.241,0.524-0.697,0.892-1.367,1.101c-0.669,0.208-1.38,0.196-2.132-0.037
		s-1.345-0.625-1.782-1.176s-0.607-1.113-0.512-1.683l0.749-0.001C253.675,34.272,253.82,34.572,254.192,34.904z"/>
</g>
</svg>
