<?xml version="1.0" encoding="utf-8"?>
<!-- Generator: Adobe Illustrator 16.0.4, SVG Export Plug-In . SVG Version: 6.00 Build 0)  -->
<!DOCTYPE svg PUBLIC "-//W3C//DTD SVG 1.1//EN" "http://www.w3.org/Graphics/SVG/1.1/DTD/svg11.dtd">
<svg version="1.1" id="Layer_1" xmlns="http://www.w3.org/2000/svg" xmlns:xlink="http://www.w3.org/1999/xlink" x="0px" y="0px"
	 width="37.385px" height="24px" viewBox="0 0 37.385 24" enable-background="new 0 0 37.385 24" xml:space="preserve">
<path fill="#FAB733" d="M36.854,17.513c0,2.42-1.963,4.383-4.383,4.383H4.735c-2.42,0-4.383-1.963-4.383-4.383V6.486
	c0-2.419,1.963-4.383,4.383-4.383h27.735c2.42,0,4.383,1.963,4.383,4.383V17.513z"/>
<path fill="#FFFFFF" d="M18.704,15.81c0,2.232-1.809,4.043-4.042,4.043H7.043C4.811,19.853,3,18.042,3,15.81v-7.62
	c0-2.231,1.811-4.042,4.043-4.042h7.619c2.233,0,4.042,1.811,4.042,4.042V15.81z"/>
</svg>
