<?xml version="1.0" encoding="utf-8"?>
<!-- Generator: Adobe Illustrator 16.0.4, SVG Export Plug-In . SVG Version: 6.00 Build 0)  -->
<!DOCTYPE svg PUBLIC "-//W3C//DTD SVG 1.1//EN" "http://www.w3.org/Graphics/SVG/1.1/DTD/svg11.dtd">
<svg version="1.1" id="Layer_1" xmlns="http://www.w3.org/2000/svg" xmlns:xlink="http://www.w3.org/1999/xlink" x="0px" y="0px"
	 width="26.167px" height="24px" viewBox="0 0 26.167 24" enable-background="new 0 0 26.167 24" xml:space="preserve">
<g>
	<circle fill="#FFFFFF" cx="19.703" cy="18.302" r="3.087"/>
	<circle fill="#FFFFFF" cx="12.715" cy="12.96" r="4.622"/>
	<circle fill="#FFFFFF" cx="13.363" cy="20.919" r="2.532"/>
	<circle fill="#FFFFFF" cx="8.323" cy="18.808" r="1.5"/>
	<circle fill="#FFFFFF" cx="20.113" cy="12.442" r="1.237"/>
	<circle fill="#FFFFFF" cx="23.511" cy="14.042" r="1.52"/>
	<path fill="#FFFFFF" d="M6.195,0.748C6.023,0.575,5.788,0.521,5.563,0.561c-0.224-0.04-0.46,0.014-0.632,0.188L0.861,4.817
		c-0.281,0.282-0.281,0.738,0,1.018c0.28,0.281,0.735,0.281,1.018,0L4.843,2.87v7.617c0,0.395,0.322,0.719,0.72,0.719
		c0.396,0,0.719-0.324,0.719-0.719V2.87l2.966,2.965c0.281,0.281,0.735,0.281,1.017,0c0.282-0.28,0.282-0.736,0-1.018L6.195,0.748
		L6.195,0.748z"/>
</g>
</svg>
