<svg id="Layer_1" data-name="Layer 1" xmlns="http://www.w3.org/2000/svg" viewBox="0 0 41.06 41.06"><defs><style>.cls-1{fill:#f7b632;}.cls-2,.cls-3{fill:#37474f;}.cls-3{font-size:21.44px;font-family:Montserrat-Bold, Montserrat;font-weight:700;}</style></defs><title>Artboard 11</title><rect class="cls-1" y="0.06" width="41" height="41" rx="8.44" ry="8.44"/><path class="cls-2" d="M26.37,24a.42.42,0,0,0,.18,0,.43.43,0,0,0,.22-.57l-.25-.56a.43.43,0,0,0-.79.35l.25.56A.43.43,0,0,0,26.37,24Z"/><path class="cls-2" d="M39,14.6a.56.56,0,0,0-.7-.28L26.93,18.69a2.83,2.83,0,0,0-.47-.19.4.4,0,0,0,0-.06l-.8-2.59a.56.56,0,0,0-1-.13l-2.19,3.56,0,.07L20.66,20a6.87,6.87,0,0,0-4.1,3.92l-2.48,6.17a.56.56,0,0,0,.18.65L22.5,37a.56.56,0,0,0,.34.11.57.57,0,0,0,.23,0,.56.56,0,0,0,.33-.46l.43-5.48A.56.56,0,0,0,22.71,31l-.35,4.47-7.1-5.38,2.32-5.77A5.76,5.76,0,0,1,21,21l4.11-1.44A1.62,1.62,0,0,1,27,20.2l4.52,6.63a2.54,2.54,0,0,1,.12,2.69l-.47.83a1.07,1.07,0,0,1-1.43.43l-6-3.1a1.17,1.17,0,0,1-.63-.94l-.3-3.5a.56.56,0,1,0-1.11.09l.3,3.5a2.28,2.28,0,0,0,1.23,1.84l6,3.1a2.18,2.18,0,0,0,2.91-.87l.47-.83a3.65,3.65,0,0,0-.17-3.87L28.87,21l9.89-5.63A.56.56,0,0,0,39,14.6Zm-14.2,3.94-.7.24L25,17.36l.33,1.05A2.67,2.67,0,0,0,24.78,18.54ZM28.24,20l-.31-.45,0-.06L31.78,18Z"/><text class="cls-3" transform="translate(4.57 19.38)">+</text></svg>