<?xml version="1.0" encoding="utf-8"?>
<!-- Generator: Adobe Illustrator 16.0.4, SVG Export Plug-In . SVG Version: 6.00 Build 0)  -->
<!DOCTYPE svg PUBLIC "-//W3C//DTD SVG 1.1//EN" "http://www.w3.org/Graphics/SVG/1.1/DTD/svg11.dtd">
<svg version="1.1" id="Layer_1" xmlns="http://www.w3.org/2000/svg" xmlns:xlink="http://www.w3.org/1999/xlink" x="0px" y="0px"
	 width="24px" height="24px" viewBox="0 0 24 24" enable-background="new 0 0 24 24" xml:space="preserve">
<g>
	<path fill="#F7B632" d="M23.385,5.193c0-2.642-2.142-4.784-4.784-4.784H5.169c-2.642,0-4.784,2.142-4.784,4.784v13.432
		c0,2.643,2.142,4.784,4.784,4.784h13.432c2.643,0,4.784-2.142,4.784-4.784V5.193z"/>
</g>
<text transform="matrix(1 0 0 1 4.0859 9.2031)" fill="#FFFFFF" font-family="'Montserrat-SemiBold'" font-size="10.7552">+</text>
<g id="XMLID_1_">
	<g>
		<path fill="#FFFFFF" d="M7.583,15.549H6.58l0.034,4.271c-0.01,0.093-0.01,0.343,0,0.343h4.583c0.007,0-0.152-0.238-0.152-0.318
			v-1.259l0.114-0.211l0.205-0.175l0.34,0.038l0.032,0.049c0.239,0.338,0.549,0.463,0.971,0.387
			c0.334-0.119,0.533-0.386,0.575-0.796c-0.031-0.38-0.25-0.633-0.662-0.775c-0.037-0.003-0.096-0.014-0.152-0.014
			c-0.281,0-0.524,0.143-0.739,0.427l-0.032,0.043l-0.053,0.013c-0.079,0.019-0.19,0.019-0.304,0l-0.102-0.01l-0.193-0.226v-1.772
			c0-0.01-0.066-0.015-0.205-0.015h-0.747c0.232,0.404,0.207,0.964-0.073,1.481c-0.393,0.531-0.938,0.732-1.616,0.604l-0.038-0.014
			c-0.5-0.237-0.81-0.56-0.925-0.938C7.333,16.352,7.378,15.953,7.583,15.549z M11.044,11.585v-1.182L6.5,10.436l0.104,4.533
			l1.74-0.031l0.024,0.025c0.047,0.038,0.059,0.068,0.083,0.079l0.016,0.035v0.334l-0.012,0.045
			c-0.414,0.245-0.504,0.598-0.394,1.077c0.158,0.354,0.446,0.528,0.87,0.528l0.021-0.001c0.312-0.093,0.5-0.312,0.618-0.671
			c0.049-0.382-0.163-0.688-0.543-0.935l-0.152-0.044v-0.317l0.143-0.062c0.079-0.05,0.261-0.108,0.348-0.126l0.03-0.044h1.501
			c0.12,0-0.118,0.083,0.148,0.072V14.16c-0.813,0.344-1.418,0.08-1.891-0.769l0.069-0.021c-0.212-0.625-0.087-1.191,0.438-1.668
			l-0.018-0.011C10.106,11.394,10.64,11.358,11.044,11.585z M15.428,13.771c0.123,0.334,0.076,0.726-0.131,1.164l1.08-0.021
			l0.478,0.048l0.01,5.33l-0.031,0.244l-0.205,0.152L6.206,20.685c-0.068-0.023-0.156-0.068-0.217-0.124l-0.104-0.039v-0.055
			l0.042-10.376l0.08-0.009c0.041-0.075,0.097-0.104,0.168-0.162l0.04,0.057h5.583l0.008,2.532l-0.056-0.038
			c-0.076,0.057-0.178,0.086-0.303,0.086h-0.062l-0.04-0.048c-0.496-0.598-0.971-0.622-1.486-0.055
			c-0.114,0.273-0.133,0.51-0.056,0.7c0.091,0.213,0.301,0.4,0.638,0.533l0.018,0.01c0.342,0,0.629-0.135,0.886-0.447l0.04-0.012
			h0.062c0.104,0,0.201-0.007,0.292,0.05l0.056-0.001l0.007,0.057c0.034,0.148,0.041,0.323,0.024,0.548v1.077l0.966-0.023
			c-0.239-0.47-0.219-0.967,0.065-1.483c0.368-0.501,0.874-0.703,1.53-0.622l0.031,0.007C14.957,13.076,15.297,13.388,15.428,13.771
			z M16.148,20.066c0.007-0.066-0.073-0.142-0.073-0.222v-4.31l-1.414,0.024c-0.014,0.007,0.046,0.008,0.018,0.008
			c-0.107,0-0.208-0.031-0.31-0.091l-0.052-0.027l-0.011-0.057c-0.023-0.076-0.023-0.169-0.003-0.273l0.009-0.063l0.056-0.031
			c0.386-0.219,0.532-0.548,0.463-1.001c-0.153-0.39-0.445-0.583-0.903-0.583h-0.031c-0.056,0.013-0.129,0.044-0.216,0.091
			l-0.062,0.03c-0.268,0.244-0.394,0.497-0.382,0.723c0.014,0.237,0.188,0.483,0.5,0.724l0.045,0.03l0.069,0.279l-0.034,0.045
			c-0.035,0.062-0.098,0.111-0.16,0.166l-0.038,0.021h-1.791c-0.013,0.268-0.104,0.205-0.104,0.345v0.701
			c0.405-0.205,1.026-0.162,1.531,0.129l0.069,0.014c0.465,0.387,0.646,0.91,0.531,1.563l-0.014,0.032
			c-0.417,0.938-1.108,1.227-2.026,0.827c-0.01,0.09-0.018,0.193-0.01,0.305l-0.021,0.63L16.148,20.066z"/>
		<path fill="#FFFFFF" d="M15.448,7.491c0.037-0.39-0.023-0.672-0.181-0.849c-0.163-0.179-0.44-0.255-0.822-0.24
			c-0.278,0.111-0.455,0.266-0.537,0.451c-0.092,0.213-0.068,0.491,0.075,0.829c0.239,0.245,0.556,0.349,0.962,0.314l0.066-0.005
			l0.045,0.045c0.073,0.066,0.124,0.159,0.148,0.266l0.012,0.054l-0.028,0.05c-0.084,0.124-0.212,0.261-0.368,0.403l-0.768,0.768
			l0.705,0.7c0.096-0.51,0.464-0.859,1.084-1.043c0.11-0.016,0.191-0.026,0.271-0.026c0.486,0,0.906,0.224,1.247,0.67l0.021,0.027
			c0.225,0.546,0.246,1.004,0.069,1.369c-0.159,0.319-0.465,0.566-0.925,0.732l0.671,0.668l3.207-3.208l-3.167-3.125l-1.402,1.419
			l-0.061-0.01c-0.104-0.019-0.196-0.066-0.278-0.152l-0.046-0.043V7.491z M15.504,11.619c0.04-0.068,0.106-0.132,0.188-0.194
			l0.057-0.037l0.059,0.016c0.432,0.121,0.767,0,1.036-0.372c0.174-0.396,0.092-0.752-0.254-1.083
			c-0.045-0.026-0.118-0.057-0.208-0.08l-0.06-0.026c-0.375-0.01-0.646,0.071-0.792,0.247c-0.163,0.177-0.212,0.47-0.153,0.863
			l0.007,0.043l-0.146,0.254l-0.057,0.011c-0.068,0.011-0.149,0.011-0.238,0l-0.043-0.002l-1.706-1.706l0.988-0.997
			c-0.826-0.338-1.12-1.004-0.854-1.935l0.014-0.023c0.296-0.585,0.805-0.871,1.516-0.839l0.027,0.004
			c0.539,0.117,0.914,0.447,1.122,0.976l0.93-0.932c0.087-0.091,0.2-0.14,0.312-0.14c0.189,0,0.332,0.136,0.345,0.149l3.474,3.479
			l0.078,0.281l-3.941,3.94l-0.332-0.331l-1.182-1.13c-0.09-0.071-0.162-0.182-0.207-0.33l-0.014-0.053L15.504,11.619z"/>
	</g>
</g>
</svg>
