<?xml version="1.0" encoding="utf-8"?>
<!-- Generator: Adobe Illustrator 20.1.0, SVG Export Plug-In . SVG Version: 6.00 Build 0)  -->
<svg version="1.1" id="Layer_1" xmlns="http://www.w3.org/2000/svg" xmlns:xlink="http://www.w3.org/1999/xlink" x="0px" y="0px"
	 viewBox="0 0 640 135.3" style="enable-background:new 0 0 640 135.3;" xml:space="preserve">
<style type="text/css">
	.st0{fill:#4FB6AC;}
	.st1{font-family:'Montserrat-Regular';}
	.st2{font-size:13.9593px;}
	.st3{font-size:13.96px;}
	.st4{font-size:13.9601px;}
	.st5{font-size:13.9598px;}
	.st6{font-size:13.9585px;}
	.st7{font-size:13.9589px;}
	.st8{fill:#37474F;}
	.st9{fill:none;}
</style>
<text transform="matrix(-0.9617 1.1243 -0.7599 -0.65 527.4376 92.6813)" class="st0 st1 st2"> </text>
<text transform="matrix(-1.0976 0.992 -0.6705 -0.7419 524.6918 95.0529)" class="st0 st1 st2"> </text>
<text transform="matrix(-1.2339 0.8164 -0.5518 -0.834 522.3057 97.4621)" class="st0 st1 st2">(</text>
<text transform="matrix(-1.3887 0.5104 -0.345 -0.9386 518.3948 100.2728)" class="st0 st1 st2">3</text>
<text transform="matrix(-1.4719 0.1496 -0.1011 -0.9949 509.687 103.3381)" class="st0 st1 st2">8</text>
<text transform="matrix(-1.4764 -9.467065e-02 6.399000e-02 -0.998 500.4757 104.3746)" class="st0 st1 st3">°</text>
<text transform="matrix(-1.4324 -0.3702 0.2502 -0.9682 494.6037 104.2978)" class="st0 st1 st2">4</text>
<text transform="matrix(-1.2694 -0.7598 0.5136 -0.8581 485.9019 102.0797)" class="st0 st1 st4">3</text>
<text transform="matrix(-1.0535 -1.0388 0.7021 -0.7121 478.0545 97.1156)" class="st0 st1 st2">.</text>
<text transform="matrix(-0.7842 -1.2546 0.848 -0.53 474.657 94.1975)" class="st0 st1 st2">0</text>
<text transform="matrix(-0.4189 -1.419 0.9591 -0.2831 470.0468 86.8894)" class="st0 st1 st2">0</text>
<text transform="matrix(-0.122 -1.4745 0.9966 -8.245999e-02 467.032 77.5577)" class="st0 st1 st2">0</text>
<text transform="matrix(0.1274 -1.474 0.9963 8.611000e-02 466.8338 68.7253)" class="st0 st1 st2">2</text>
<text transform="matrix(0.3401 -1.4399 0.9732 0.2299 467.2013 58.9974)" class="st0 st1 st2">’</text>
<text transform="matrix(0.4746 -1.4012 0.9472 0.3208 468.1679 55.493)" class="st0 st1 st3"> </text>
<text transform="matrix(0.7568 -1.2713 0.8593 0.5115 468.6981 51.8247)" class="st0 st1 st2">N</text>
<text transform="matrix(1.0419 -1.0504 0.71 0.7042 474.8549 42.7327)" class="st0 st1 st2">,</text>
<text transform="matrix(1.1526 -0.9276 0.6269 0.7791 477.5634 40.3069)" class="st0 st1 st2"> </text>
<text transform="matrix(1.3158 -0.6764 0.4572 0.8894 480.0651 37.7506)" class="st0 st1 st5">9</text>
<text transform="matrix(1.4452 -0.3168 0.2141 0.9768 487.9687 33.5742)" class="st0 st1 st2">9</text>
<text transform="matrix(1.4786 -5.191601e-02 3.509000e-02 0.9994 496.8133 31.513)" class="st0 st1 st2">°</text>
<text transform="matrix(1.4658 0.2007 -0.1356 0.9908 503.3927 31.4761)" class="st0 st1 st5">7</text>
<text transform="matrix(1.3985 0.4829 -0.3264 0.9452 512.7751 32.9384)" class="st0 st1 st2">.</text>
<text transform="matrix(1.2442 0.8005 -0.5411 0.841 516.2291 33.4625)" class="st0 st1 st5">9</text>
<text transform="matrix(0.8955 1.1779 -0.796 0.6052 524.0461 38.5938)" class="st0 st1 st6">9</text>
<text transform="matrix(0.5113 1.3883 -0.9384 0.3456 529.6177 45.8262)" class="st0 st1 st2">9</text>
<text transform="matrix(0.2047 1.4653 -0.9904 0.1384 532.6113 54.3897)" class="st0 st1 st2">8</text>
<text transform="matrix(4.163285e-02 1.4789 -0.9996 2.814000e-02 533.6659 63.5379)" class="st0 st1 st2">’</text>
<text transform="matrix(-4.222493e-02 1.4789 -0.9996 -2.854000e-02 533.8756 67.4798)" class="st0 st1 st2"> </text>
<text transform="matrix(-0.2898 1.4509 -0.9806 -0.1959 534.7483 71.1537)" class="st0 st1 st2">W</text>
<text transform="matrix(-0.6399 1.334 -0.9016 -0.4325 530.9401 84.7244)" class="st0 st1 st7">)</text>
<polygon class="st8" points="11.3,28.5 76,28.5 76,45.2 35.5,45.2 35.5,57.6 73.1,57.6 73.1,73.5 35.5,73.5 35.5,88.9 77.2,88.9 
	77.2,106.6 11.3,106.6 "/>
<path class="st8" d="M90.5,106.6V28.5h40.2c7.5,0,13.2,0.6,17.1,1.9c3.9,1.3,7.1,3.6,9.5,7.1s3.6,7.7,3.6,12.6
	c0,4.3-0.9,8.1-2.8,11.2c-1.8,3.1-4.4,5.7-7.6,7.6c-2.1,1.2-4.9,2.3-8.5,3.1c2.9,1,5,1.9,6.3,2.9c0.9,0.6,2.2,2,3.9,4.1
	s2.8,3.7,3.4,4.8l11.7,22.6H140l-12.9-23.9c-1.6-3.1-3.1-5.1-4.4-6c-1.7-1.2-3.7-1.8-5.9-1.8h-2.1v31.7H90.5V106.6z M114.7,60.2
	h10.2c1.1,0,3.2-0.4,6.4-1.1c1.6-0.3,2.9-1.1,3.9-2.5c1-1.3,1.5-2.8,1.5-4.5c0-2.5-0.8-4.5-2.4-5.8c-1.6-1.3-4.6-2-9-2h-10.6
	L114.7,60.2z"/>
<polygon class="st8" points="179.5,28.5 244.1,28.5 244.1,45.2 203.6,45.2 203.6,57.6 241.2,57.6 241.2,73.5 203.6,73.5 203.6,88.9 
	245.3,88.9 245.3,106.6 179.5,106.6 "/>
<polygon class="st8" points="257.5,28.5 281.6,28.5 281.6,55.9 307.9,55.9 307.9,28.5 332.2,28.5 332.2,106.6 307.9,106.6 307.9,75 
	281.6,75 281.6,106.6 257.5,106.6 "/>
<polygon class="st8" points="344.7,28.5 367.6,28.5 375.9,72.2 387.9,28.5 410.8,28.5 422.9,72.2 431.1,28.5 453.9,28.5 
	436.7,106.6 413,106.6 399.4,57.5 385.7,106.6 362.1,106.6 "/>
<polygon class="st8" points="549.2,28.5 571.7,28.5 601.1,71.7 601.1,28.5 623.9,28.5 623.9,106.6 601.1,106.6 571.9,63.7 
	571.9,106.6 549.2,106.6 "/>
</svg>
