<svg id="Layer_1" data-name="Layer 1" xmlns="http://www.w3.org/2000/svg" viewBox="0 0 23.78 17.84"><defs><style>.cls-1,.cls-2{fill:#37474f;}.cls-2{fill-rule:evenodd;}</style></defs><title>Artboard 1</title><g id="_4qj3gc.tif" data-name="4qj3gc.tif"><path class="cls-1" d="M14.1,12.73a2.57,2.57,0,0,1,.51,1.78c0,.63,0,1.27,0,1.91,0,.36.17.5.52.44a2.06,2.06,0,0,0,.34-.1A8.19,8.19,0,1,0,4.36,8.84a7.91,7.91,0,0,0,3.43,6.91,12.54,12.54,0,0,0,2,1.07c.36.17.66,0,.68-.26,0-.52,0-1,0-1.51-.4,0-.74,0-1.08,0a1.81,1.81,0,0,1-1.73-1.17,2.29,2.29,0,0,0-.91-1.12,1.72,1.72,0,0,1-.29-.31l.05-.13a3.66,3.66,0,0,1,.71.06,1.77,1.77,0,0,1,1,.84,1.64,1.64,0,0,0,2.12.68.44.44,0,0,0,.22-.2c.14-.31.25-.63.38-1l0,0-.21,0a4.89,4.89,0,0,1-2.06-.78A4.08,4.08,0,0,1,8,6.71a.68.68,0,0,0,.13-.55,15.06,15.06,0,0,1,.05-1.56c0-.35.26-.42.53-.31.54.21,1.07.46,1.61.68a.86.86,0,0,0,.45.08,8.37,8.37,0,0,1,3.63,0A.85.85,0,0,0,14.82,5c.56-.23,1.11-.48,1.68-.7.24-.09.4,0,.47.28A3.32,3.32,0,0,1,17,6.23a.46.46,0,0,0,0,.36,3.59,3.59,0,0,1,.71,2.56,3.38,3.38,0,0,1-2.61,3.36C14.84,12.6,14.5,12.65,14.1,12.73Z"/><path class="cls-2" d="M14.1,12.73c.39-.08.73-.13,1.07-.22a3.38,3.38,0,0,0,2.61-3.36,3.59,3.59,0,0,0-.71-2.56.46.46,0,0,1,0-.36A3.32,3.32,0,0,0,17,4.56c-.07-.27-.24-.37-.47-.28-.56.22-1.11.47-1.68.7a.85.85,0,0,1-.46.07,8.37,8.37,0,0,0-3.63,0A.86.86,0,0,1,10.28,5c-.54-.22-1.07-.47-1.61-.68-.27-.11-.51,0-.53.31a15.06,15.06,0,0,0-.05,1.56A.68.68,0,0,1,8,6.71a4.08,4.08,0,0,0,.65,5.18,4.89,4.89,0,0,0,2.06.78l.21,0,0,0c-.13.32-.24.64-.38,1a.44.44,0,0,1-.22.2,1.64,1.64,0,0,1-2.12-.68,1.77,1.77,0,0,0-1-.84,3.66,3.66,0,0,0-.71-.06l-.05.13a1.72,1.72,0,0,0,.29.31,2.29,2.29,0,0,1,.91,1.12A1.81,1.81,0,0,0,9.42,15c.34,0,.69,0,1.08,0,0,.47,0,1,0,1.51,0,.29-.33.42-.68.26a12.54,12.54,0,0,1-2-1.07A7.91,7.91,0,0,1,4.36,8.84a8.2,8.2,0,1,1,11.11,7.91,2.06,2.06,0,0,1-.34.1c-.35.06-.52-.08-.52-.44,0-.64,0-1.27,0-1.91A2.57,2.57,0,0,0,14.1,12.73Z"/></g></svg>