<?xml version="1.0" encoding="utf-8"?>
<!-- Generator: Adobe Illustrator 16.0.4, SVG Export Plug-In . SVG Version: 6.00 Build 0)  -->
<!DOCTYPE svg PUBLIC "-//W3C//DTD SVG 1.1//EN" "http://www.w3.org/Graphics/SVG/1.1/DTD/svg11.dtd">
<svg version="1.1" id="Layer_1" xmlns="http://www.w3.org/2000/svg" xmlns:xlink="http://www.w3.org/1999/xlink" x="0px" y="0px"
	 width="24px" height="24px" viewBox="0 0 24 24" enable-background="new 0 0 24 24" xml:space="preserve">
<g id="_x34_qj3gc.tif_28_">
	<g>
		<path fill="#FFFFFF" d="M13.441,15.583c0.413,0.504,0.486,1.072,0.477,1.664s-0.008,1.184-0.004,1.777
			c0.002,0.338,0.162,0.467,0.49,0.408c0.107-0.018,0.215-0.059,0.318-0.098c3.391-1.285,5.425-4.832,4.827-8.404
			c-0.696-4.156-4.62-6.967-8.778-6.291C7.146,5.231,4.433,8.278,4.35,11.946c-0.061,2.686,1.021,4.867,3.201,6.449
			c0.572,0.412,1.246,0.691,1.889,0.996c0.336,0.156,0.621,0.035,0.639-0.24c0.031-0.486,0.009-0.973,0.009-1.408
			c-0.37,0-0.692,0.016-1.014-0.004c-0.751-0.041-1.319-0.357-1.616-1.092c-0.174-0.432-0.443-0.795-0.85-1.051
			c-0.107-0.068-0.182-0.193-0.271-0.289c0.017-0.041,0.032-0.082,0.048-0.123c0.223,0.018,0.455,0,0.662,0.061
			c0.409,0.119,0.664,0.434,0.889,0.779c0.464,0.717,1.201,0.953,1.98,0.637c0.08-0.035,0.166-0.111,0.201-0.191
			c0.128-0.289,0.238-0.586,0.355-0.887c0-0.004-0.018-0.023-0.035-0.025c-0.066-0.016-0.133-0.021-0.199-0.031
			c-0.689-0.113-1.336-0.32-1.921-0.729c-1.294-0.902-1.646-3.609-0.61-4.836C7.844,9.8,7.831,9.649,7.824,9.452
			C7.805,8.97,7.843,8.481,7.873,7.999c0.022-0.32,0.242-0.391,0.497-0.293c0.505,0.197,0.997,0.432,1.501,0.637
			c0.133,0.053,0.293,0.1,0.426,0.074c1.131-0.248,2.258-0.25,3.389-0.002c0.133,0.027,0.295-0.016,0.427-0.068
			c0.524-0.211,1.038-0.449,1.564-0.652c0.22-0.086,0.374,0.008,0.439,0.26c0.135,0.518,0.188,1.029,0.059,1.555
			c-0.026,0.105-0.024,0.262,0.035,0.334c0.568,0.707,0.712,1.516,0.667,2.395c-0.084,1.629-0.925,2.73-2.438,3.139
			C14.129,15.46,13.809,15.507,13.441,15.583z"/>
		<path fill-rule="evenodd" clip-rule="evenodd" fill="#FFFFFF" d="M13.441,15.583c0.367-0.076,0.688-0.123,0.998-0.207
			c1.513-0.408,2.354-1.51,2.438-3.139c0.045-0.879-0.099-1.688-0.667-2.395c-0.06-0.072-0.062-0.229-0.035-0.334
			c0.129-0.525,0.076-1.037-0.059-1.555c-0.065-0.252-0.22-0.346-0.439-0.26c-0.526,0.203-1.04,0.441-1.564,0.652
			c-0.132,0.053-0.294,0.096-0.427,0.068c-1.131-0.248-2.258-0.246-3.389,0.002c-0.133,0.025-0.293-0.021-0.426-0.074
			C9.367,8.138,8.875,7.903,8.37,7.706C8.115,7.608,7.896,7.679,7.873,7.999C7.843,8.481,7.805,8.97,7.824,9.452
			c0.007,0.197,0.02,0.348-0.117,0.51c-1.035,1.227-0.684,3.934,0.61,4.836c0.585,0.408,1.231,0.615,1.921,0.729
			c0.066,0.01,0.133,0.016,0.199,0.031c0.018,0.002,0.035,0.021,0.035,0.025c-0.117,0.301-0.228,0.598-0.355,0.887
			c-0.035,0.08-0.121,0.156-0.201,0.191c-0.779,0.316-1.517,0.08-1.98-0.637c-0.225-0.346-0.479-0.66-0.889-0.779
			c-0.207-0.061-0.439-0.043-0.662-0.061c-0.016,0.041-0.031,0.082-0.048,0.123c0.089,0.096,0.163,0.221,0.271,0.289
			c0.406,0.256,0.676,0.619,0.85,1.051c0.297,0.734,0.865,1.051,1.616,1.092c0.321,0.02,0.644,0.004,1.014,0.004
			c0,0.436,0.022,0.922-0.009,1.408c-0.018,0.275-0.303,0.396-0.639,0.24c-0.643-0.305-1.316-0.584-1.889-0.996
			c-2.18-1.582-3.262-3.764-3.201-6.449c0.083-3.668,2.797-6.715,6.422-7.307c4.158-0.676,8.082,2.135,8.778,6.291
			c0.598,3.572-1.437,7.119-4.827,8.404c-0.104,0.039-0.211,0.08-0.318,0.098c-0.328,0.059-0.488-0.07-0.49-0.408
			c-0.004-0.594-0.006-1.186,0.004-1.777S13.854,16.087,13.441,15.583z"/>
	</g>
</g>
</svg>
