<?xml version="1.0" encoding="utf-8"?>
<!-- Generator: Adobe Illustrator 16.0.4, SVG Export Plug-In . SVG Version: 6.00 Build 0)  -->
<!DOCTYPE svg PUBLIC "-//W3C//DTD SVG 1.1//EN" "http://www.w3.org/Graphics/SVG/1.1/DTD/svg11.dtd">
<svg version="1.1" id="Layer_1" xmlns="http://www.w3.org/2000/svg" xmlns:xlink="http://www.w3.org/1999/xlink" x="0px" y="0px"
	 width="662.91px" height="148.837px" viewBox="0 0 662.91 148.837" enable-background="new 0 0 662.91 148.837"
	 xml:space="preserve">
<g>
	<path fill="#56473B" d="M6.477,31.394h71.104v18.333H33.068v13.647H74.36v17.513H33.068v16.927H78.87v19.445H6.477V31.394z"/>
	<path fill="#56473B" d="M93.513,117.258V31.394h44.22c8.2,0,14.467,0.703,18.801,2.109c4.334,1.405,7.828,4.012,10.484,7.819
		c2.655,3.807,3.983,8.444,3.983,13.911c0,4.764-1.016,8.873-3.047,12.329c-2.032,3.456-4.826,6.258-8.38,8.405
		c-2.266,1.367-5.372,2.499-9.318,3.397c3.16,1.056,5.462,2.111,6.907,3.166c0.976,0.704,2.389,2.208,4.244,4.515
		c1.853,2.306,3.092,4.084,3.716,5.334l12.849,24.88h-29.979l-14.182-26.24c-1.797-3.397-3.397-5.603-4.803-6.618
		c-1.914-1.327-4.081-1.991-6.501-1.991h-2.343v34.849H93.513z M120.162,66.185h11.187c1.209,0,3.552-0.39,7.028-1.171
		c1.757-0.352,3.192-1.25,4.305-2.694c1.113-1.444,1.669-3.104,1.669-4.979c0-2.772-0.878-4.9-2.636-6.384
		c-1.757-1.483-5.057-2.226-9.898-2.226h-11.655V66.185z"/>
	<path fill="#56473B" d="M186.405,31.394h71.104v18.333h-44.514v13.647h41.292v17.513h-41.292v16.927h45.802v19.445h-72.393V31.394z
		"/>
	<path fill="#56473B" d="M273.207,31.394h26.532v30.047h28.992V31.394h26.65v85.864h-26.65V82.526h-28.992v34.732h-26.532V31.394z"
		/>
	<path fill="#56473B" d="M364.166,31.394h25.201l9.073,48.069l13.279-48.069h25.11l13.312,48.005l9.083-48.005h25.07l-18.928,85.864
		h-26.018l-15.061-54.061l-15.001,54.061h-26.018L364.166,31.394z"/>
	<path fill="#56473B" d="M573.145,31.394h24.775l32.331,47.504V31.394h25.01v85.864h-25.01l-32.155-47.146v47.146h-24.951V31.394z"
		/>
</g>
<g>
	<path fill="#508971" d="M558.423,106.214l-0.688,0.449c-0.15-0.66-0.338-1.182-0.562-1.564s-0.54-0.744-0.947-1.083
		c-0.469-0.389-0.921-0.67-1.356-0.843c-0.437-0.173-0.991-0.286-1.665-0.341l0.254-0.744c1.251,0.048,2.312,0.434,3.185,1.159
		c0.458,0.381,0.829,0.793,1.111,1.237C558.037,104.929,558.26,105.505,558.423,106.214z"/>
	<path fill="#508971" d="M554.698,105.776l-1.871,1.808l-0.448-0.463l1.872-1.808L554.698,105.776z"/>
	<path fill="#508971" d="M552.181,111.876l-2.645,1.835l-0.372-0.536l2.026-1.407l-0.211-0.979
		c-0.223,0.179-0.352,0.281-0.389,0.307c-0.517,0.358-1.063,0.532-1.641,0.521s-0.995-0.204-1.254-0.577
		c-0.278-0.4-0.295-0.891-0.05-1.473c0.245-0.582,0.683-1.091,1.312-1.528c0.802-0.556,1.613-0.771,2.436-0.643l-0.505,0.807
		c-0.561-0.054-1.084,0.088-1.569,0.425c-0.399,0.277-0.672,0.591-0.817,0.942s-0.129,0.655,0.05,0.912
		c0.173,0.249,0.454,0.364,0.845,0.347c0.391-0.018,0.784-0.164,1.18-0.439c0.237-0.165,0.423-0.336,0.559-0.514
		c0.135-0.179,0.266-0.404,0.392-0.676L552.181,111.876z"/>
	<path fill="#508971" d="M546.524,115.258l-1.699,0.748l-1.939-4.406l0.883-0.389l1.684,3.823l1.113-0.49L546.524,115.258z"/>
	<path fill="#508971" d="M540.192,113.079c0.04,0.133,0.004,0.269-0.108,0.409c-0.112,0.139-0.269,0.239-0.469,0.299
		c-0.197,0.06-0.382,0.062-0.554,0.009c-0.173-0.054-0.279-0.147-0.319-0.28c-0.04-0.136-0.005-0.272,0.108-0.411
		c0.112-0.138,0.269-0.237,0.47-0.298c0.2-0.06,0.386-0.064,0.555-0.013C540.045,112.846,540.151,112.94,540.192,113.079z"/>
	<path fill="#508971" d="M536.94,118.471l-3.165,0.588l-0.119-0.641l2.426-0.45l0.209-0.979c-0.276,0.072-0.437,0.112-0.48,0.12
		c-0.618,0.115-1.188,0.048-1.709-0.199c-0.522-0.247-0.824-0.594-0.907-1.041c-0.089-0.479,0.098-0.934,0.56-1.363
		s1.07-0.715,1.823-0.854c0.96-0.178,1.788-0.041,2.484,0.414l-0.792,0.529c-0.489-0.279-1.024-0.365-1.604-0.257
		c-0.479,0.088-0.855,0.263-1.132,0.524c-0.277,0.26-0.387,0.544-0.33,0.852c0.056,0.297,0.265,0.519,0.628,0.663
		s0.782,0.172,1.257,0.084c0.282-0.052,0.522-0.132,0.72-0.239c0.196-0.107,0.408-0.259,0.634-0.456L536.94,118.471z"/>
	<path fill="#508971" d="M529.228,119.572c-0.784,0.038-1.433-0.169-1.947-0.622c-0.514-0.452-0.789-1.058-0.825-1.818
		c-0.038-0.788,0.196-1.428,0.702-1.92c0.506-0.493,1.128-0.756,1.867-0.792c0.77-0.037,1.421,0.171,1.954,0.625
		c0.532,0.454,0.816,1.05,0.853,1.79c0.039,0.82-0.192,1.472-0.695,1.956c-0.502,0.483-1.12,0.743-1.852,0.778L529.228,119.572z
		 M527.475,117.091c0.026,0.545,0.207,0.985,0.541,1.321c0.334,0.336,0.742,0.492,1.224,0.469c0.497-0.024,0.894-0.217,1.19-0.579
		c0.298-0.362,0.433-0.827,0.405-1.395c-0.027-0.563-0.208-1.008-0.542-1.334c-0.334-0.327-0.753-0.478-1.257-0.454
		c-0.485,0.023-0.874,0.217-1.165,0.582C527.58,116.064,527.447,116.528,527.475,117.091z"/>
	<path fill="#508971" d="M525.354,119.55l-5.88-0.411l5.369-4.714l0.724,0.386l-4.315,3.814l4.146,0.29L525.354,119.55z"/>
	<path fill="#508971" d="M516.99,114.4l-2.663-0.553l0.131-0.631l4.777,0.992l-4.096,1.821c-0.308,0.143-0.487,0.333-0.536,0.57
		c-0.058,0.28,0.032,0.551,0.271,0.815c0.239,0.264,0.55,0.435,0.931,0.514c0.314,0.065,0.624,0.059,0.929-0.02
		s0.528-0.251,0.672-0.519l0.923,0.191c-0.188,0.446-0.535,0.752-1.041,0.917s-1.064,0.184-1.676,0.057s-1.11-0.4-1.497-0.82
		c-0.386-0.42-0.533-0.853-0.44-1.298c0.045-0.215,0.144-0.401,0.296-0.556c0.152-0.156,0.396-0.309,0.731-0.458L516.99,114.4z"/>
	<path fill="#508971" d="M510.437,115.608c0.405,0.144,0.716,0.365,0.932,0.662s0.275,0.581,0.179,0.852
		c-0.097,0.271-0.322,0.454-0.677,0.546s-0.733,0.067-1.139-0.078c-0.401-0.143-0.711-0.361-0.928-0.656s-0.276-0.579-0.179-0.853
		c0.097-0.271,0.322-0.454,0.678-0.547C509.657,115.44,510.035,115.465,510.437,115.608z M509.87,117.201
		c0.246,0.088,0.477,0.104,0.69,0.049c0.215-0.055,0.352-0.166,0.41-0.333c0.06-0.167,0.023-0.34-0.108-0.521
		s-0.319-0.315-0.562-0.401c-0.247-0.088-0.478-0.103-0.692-0.045s-0.353,0.17-0.412,0.336c-0.059,0.167-0.022,0.339,0.11,0.518
		S509.627,117.114,509.87,117.201z"/>
	<path fill="#508971" d="M503.346,114.093l-2.192-6.048l-2.009,2.838l-0.797-0.564l2.919-4.125l2.202,6.034l1.981-2.8l0.796,0.563
		L503.346,114.093z"/>
	<path fill="#508971" d="M499.342,105.799l-0.635-1.073l2.305-0.453l0.457,0.775L499.342,105.799z"/>
	<path fill="#508971" d="M491.125,101.943c-0.415-0.667-0.55-1.334-0.405-2.004c0.145-0.669,0.539-1.205,1.185-1.606
		c0.67-0.417,1.343-0.524,2.02-0.322c0.676,0.202,1.21,0.617,1.602,1.246c0.407,0.654,0.542,1.324,0.405,2.01
		c-0.137,0.687-0.52,1.225-1.148,1.617c-0.696,0.434-1.379,0.549-2.046,0.346c-0.667-0.203-1.194-0.616-1.582-1.238L491.125,101.943
		z M492.438,99.203c-0.463,0.288-0.76,0.66-0.89,1.116c-0.131,0.456-0.068,0.888,0.187,1.297c0.263,0.422,0.625,0.675,1.086,0.757
		c0.461,0.083,0.933-0.025,1.415-0.326c0.479-0.298,0.779-0.672,0.902-1.123c0.122-0.451,0.05-0.89-0.217-1.319
		c-0.257-0.413-0.615-0.657-1.075-0.734C493.386,98.794,492.916,98.905,492.438,99.203z"/>
	<path fill="#508971" d="M493.274,96.448c-0.126,0.058-0.267,0.042-0.42-0.05c-0.153-0.092-0.274-0.233-0.362-0.423
		c-0.086-0.187-0.114-0.369-0.085-0.547c0.029-0.178,0.107-0.296,0.233-0.354c0.129-0.059,0.27-0.042,0.422,0.05
		s0.272,0.234,0.359,0.424c0.088,0.19,0.118,0.373,0.09,0.548C493.484,96.27,493.405,96.388,493.274,96.448z"/>
	<path fill="#508971" d="M487.631,94.346l-0.582-1.762l4.571-1.511l0.303,0.916l-3.967,1.311l0.382,1.156L487.631,94.346z"/>
	<path fill="#508971" d="M489.706,86.1l-0.491-2.675l0.634-0.116l0.882,4.799L487.5,85c-0.248-0.232-0.491-0.326-0.73-0.282
		c-0.28,0.052-0.498,0.238-0.652,0.559c-0.154,0.321-0.196,0.673-0.126,1.055c0.058,0.316,0.181,0.601,0.369,0.853
		c0.188,0.252,0.432,0.395,0.733,0.427l0.17,0.927c-0.484-0.006-0.897-0.212-1.241-0.619c-0.343-0.406-0.571-0.917-0.684-1.531
		c-0.113-0.614-0.048-1.179,0.195-1.695s0.589-0.815,1.036-0.897c0.217-0.04,0.425-0.019,0.627,0.064
		c0.201,0.083,0.435,0.251,0.7,0.505L489.706,86.1z"/>
	<path fill="#508971" d="M484.869,82.63l-0.401-5.881l5.407,4.671l-0.282,0.769l-4.371-3.75l0.283,4.147L484.869,82.63z"/>
	<path fill="#508971" d="M484.524,73.979l0.096-3.218l0.652,0.02l-0.074,2.466l0.913,0.412c-0.012-0.285-0.017-0.45-0.016-0.495
		c0.019-0.628,0.204-1.171,0.557-1.629c0.352-0.458,0.755-0.679,1.209-0.666c0.487,0.015,0.892,0.293,1.214,0.836
		c0.322,0.542,0.472,1.197,0.449,1.963c-0.029,0.976-0.34,1.755-0.932,2.34l-0.349-0.886c0.377-0.418,0.574-0.923,0.592-1.514
		c0.015-0.486-0.076-0.892-0.272-1.217s-0.45-0.494-0.763-0.503c-0.303-0.009-0.563,0.149-0.781,0.473
		c-0.218,0.325-0.334,0.728-0.349,1.21c-0.008,0.288,0.019,0.54,0.082,0.754c0.063,0.215,0.167,0.454,0.311,0.716L484.524,73.979z"
		/>
	<path fill="#508971" d="M486.282,67.427c-0.055,0.427-0.204,0.777-0.447,1.051c-0.244,0.274-0.509,0.393-0.795,0.356
		s-0.512-0.218-0.678-0.545s-0.221-0.703-0.167-1.129c0.055-0.423,0.202-0.771,0.444-1.046c0.241-0.274,0.506-0.393,0.794-0.356
		c0.286,0.037,0.513,0.218,0.68,0.545S486.337,67.004,486.282,67.427z M484.605,67.212c-0.033,0.26,0,0.488,0.1,0.686
		c0.1,0.198,0.237,0.308,0.412,0.33c0.176,0.022,0.338-0.05,0.487-0.218c0.148-0.167,0.239-0.379,0.271-0.635
		c0.033-0.26-0.001-0.488-0.103-0.686c-0.103-0.198-0.241-0.308-0.417-0.331c-0.175-0.022-0.336,0.05-0.482,0.218
		C484.728,66.745,484.639,66.957,484.605,67.212z"/>
	<path fill="#508971" d="M487.765,55.495l4.158-0.842l-2.354-3.239l0.367-0.938l3.478,4.76l-4.164,0.838l2.488,3.444l-5.787,1.141
		l0.367-0.938l3.968-0.782L487.765,55.495z"/>
	<path fill="#508971" d="M491.031,49.398l0.206-0.779c1.201-0.182,2.332,0.063,3.392,0.735c0.941,0.596,1.646,1.49,2.114,2.681
		l-0.648,0.505c-0.357-0.78-0.671-1.321-0.939-1.625c-0.269-0.303-0.616-0.589-1.043-0.86c-0.481-0.305-0.951-0.512-1.407-0.62
		C492.248,49.329,491.69,49.316,491.031,49.398z"/>
	<path fill="#508971" d="M498.298,40.227l0.746-0.345c0.055,0.675,0.164,1.218,0.33,1.629s0.427,0.814,0.781,1.208
		c0.407,0.453,0.814,0.796,1.221,1.03s0.939,0.426,1.598,0.578l-0.358,0.7c-1.23-0.228-2.226-0.763-2.983-1.606
		c-0.398-0.443-0.706-0.905-0.922-1.385C498.494,41.554,498.357,40.952,498.298,40.227z"/>
	<path fill="#508971" d="M501.938,38.859l-0.863,0.586c-0.173-0.375-0.151-0.764,0.064-1.168c0.216-0.404,0.562-0.769,1.038-1.092
		c0.548-0.372,1.072-0.574,1.574-0.606c0.503-0.033,0.861,0.11,1.077,0.427c0.268,0.395,0.176,0.898-0.276,1.511
		c0.86-0.23,1.436-0.132,1.725,0.294c0.227,0.334,0.234,0.753,0.021,1.255c-0.212,0.503-0.578,0.931-1.098,1.283
		c-0.523,0.355-1.035,0.574-1.537,0.656s-0.943-0.027-1.324-0.328l0.882-0.598c0.473,0.284,1.007,0.224,1.601-0.179
		c0.303-0.206,0.52-0.456,0.649-0.75s0.132-0.536,0.004-0.724c-0.134-0.197-0.359-0.307-0.678-0.33
		c-0.319-0.023-0.718,0.122-1.195,0.437l-0.336-0.496c0.359-0.25,0.603-0.502,0.729-0.758s0.129-0.474,0.006-0.655
		c-0.126-0.186-0.329-0.278-0.608-0.277c-0.279,0.001-0.557,0.095-0.832,0.282c-0.26,0.176-0.438,0.361-0.532,0.554
		C501.934,38.377,501.903,38.602,501.938,38.859z"/>
	<path fill="#508971" d="M510.64,35.441c0.396-0.022,0.72,0.029,0.972,0.153c0.253,0.124,0.425,0.29,0.519,0.498
		c0.163,0.365,0.084,0.775-0.236,1.23c-0.32,0.456-0.793,0.823-1.417,1.103c-0.632,0.283-1.223,0.393-1.772,0.33
		c-0.551-0.062-0.908-0.278-1.073-0.647c-0.2-0.445-0.047-0.953,0.46-1.524c-0.341-0.038-0.606-0.106-0.799-0.206
		c-0.191-0.099-0.334-0.252-0.427-0.459c-0.151-0.338-0.08-0.724,0.216-1.158c0.295-0.433,0.72-0.774,1.272-1.021
		s1.09-0.339,1.61-0.273c0.521,0.065,0.855,0.264,1.005,0.598C511.144,34.452,511.033,34.912,510.64,35.441z M510.044,34.51
		c-0.092-0.207-0.28-0.333-0.563-0.382c-0.284-0.048-0.581-0.002-0.892,0.137c-0.308,0.138-0.538,0.329-0.693,0.573
		c-0.154,0.245-0.186,0.47-0.093,0.677s0.281,0.333,0.566,0.38c0.286,0.047,0.582,0.002,0.889-0.135
		c0.311-0.139,0.543-0.331,0.695-0.574C510.106,34.942,510.137,34.716,510.044,34.51z M511.187,36.499
		c-0.099-0.221-0.316-0.353-0.651-0.393c-0.336-0.041-0.69,0.022-1.062,0.189c-0.362,0.162-0.631,0.377-0.806,0.645
		s-0.21,0.518-0.105,0.751c0.103,0.228,0.316,0.361,0.642,0.397c0.326,0.037,0.682-0.031,1.067-0.204
		c0.358-0.161,0.626-0.375,0.803-0.642C511.252,36.975,511.289,36.727,511.187,36.499z"/>
	<path fill="#508971" d="M513.543,36.574c-0.042-0.132-0.009-0.269,0.102-0.411c0.11-0.141,0.265-0.243,0.465-0.307
		c0.195-0.062,0.38-0.068,0.554-0.017c0.173,0.051,0.28,0.143,0.322,0.275c0.043,0.135,0.01,0.272-0.101,0.412
		c-0.111,0.14-0.266,0.242-0.465,0.305c-0.2,0.063-0.385,0.071-0.556,0.021C513.693,36.804,513.587,36.711,513.543,36.574z"/>
	<path fill="#508971" d="M514.797,31.51l5.772-1.192l-3.897,5.989l-0.801-0.176l3.125-4.837l-4.071,0.841L514.797,31.51z"/>
	<path fill="#508971" d="M523.012,30.133l1.852-0.129l0.336,4.802l-0.962,0.067l-0.291-4.167l-1.215,0.085L523.012,30.133z"/>
	<path fill="#508971" d="M529.825,30.984l-1.042-0.052c0.088-0.403,0.339-0.701,0.755-0.895c0.416-0.193,0.911-0.275,1.486-0.247
		c0.661,0.033,1.201,0.187,1.622,0.463s0.621,0.606,0.603,0.989c-0.023,0.477-0.4,0.823-1.13,1.04
		c0.826,0.334,1.226,0.759,1.2,1.273c-0.02,0.404-0.266,0.743-0.738,1.016c-0.472,0.274-1.021,0.395-1.648,0.364
		c-0.632-0.031-1.172-0.165-1.623-0.401c-0.45-0.236-0.737-0.589-0.86-1.058l1.064,0.053c0.207,0.511,0.669,0.784,1.386,0.82
		c0.366,0.018,0.689-0.051,0.971-0.208s0.427-0.349,0.438-0.576c0.012-0.237-0.103-0.461-0.343-0.671
		c-0.241-0.211-0.646-0.334-1.218-0.37l0.03-0.598c0.437,0.017,0.783-0.039,1.038-0.167c0.256-0.127,0.389-0.301,0.399-0.52
		c0.011-0.224-0.096-0.42-0.319-0.588c-0.224-0.167-0.502-0.259-0.834-0.276c-0.313-0.016-0.566,0.025-0.759,0.122
		C530.112,30.596,529.952,30.757,529.825,30.984z"/>
	<path fill="#508971" d="M536.558,35.668l-0.682-0.497l1.837-1.219c-0.221-0.021-0.388-0.043-0.502-0.065
		c-0.693-0.133-1.245-0.402-1.654-0.809s-0.569-0.841-0.48-1.306c0.085-0.449,0.417-0.792,0.993-1.029
		c0.576-0.237,1.206-0.291,1.889-0.16c0.676,0.129,1.235,0.413,1.679,0.852s0.622,0.884,0.535,1.335
		c-0.069,0.365-0.31,0.685-0.72,0.958L536.558,35.668z M539.172,32.625c0.057-0.292-0.048-0.573-0.312-0.841
		c-0.265-0.268-0.608-0.442-1.03-0.523c-0.448-0.085-0.843-0.054-1.184,0.096c-0.341,0.149-0.541,0.378-0.6,0.686
		c-0.054,0.283,0.06,0.556,0.34,0.819c0.281,0.264,0.647,0.438,1.1,0.525c0.414,0.079,0.785,0.045,1.112-0.102
		C538.925,33.138,539.116,32.918,539.172,32.625z"/>
	<path fill="#508971" d="M543.271,33.504c-0.406-0.142-0.718-0.36-0.936-0.655c-0.218-0.295-0.28-0.579-0.186-0.851
		c0.095-0.272,0.319-0.456,0.673-0.55c0.354-0.095,0.733-0.072,1.14,0.069c0.402,0.14,0.714,0.357,0.933,0.65
		c0.218,0.292,0.28,0.576,0.185,0.851c-0.095,0.272-0.319,0.457-0.674,0.553C544.052,33.667,543.673,33.644,543.271,33.504z
		 M543.826,31.908c-0.247-0.086-0.478-0.101-0.691-0.044c-0.214,0.057-0.35,0.169-0.407,0.336c-0.059,0.167-0.021,0.341,0.112,0.521
		s0.321,0.312,0.565,0.397c0.247,0.086,0.478,0.1,0.692,0.04c0.215-0.059,0.351-0.172,0.409-0.339s0.021-0.34-0.114-0.518
		C544.259,32.124,544.07,31.992,543.826,31.908z"/>
	<path fill="#508971" d="M550.462,35.071l2.075,6.089l2.062-2.799l0.786,0.579l-2.998,4.067l-2.085-6.076l-2.035,2.761l-0.785-0.579
		L550.462,35.071z"/>
	<path fill="#508971" d="M554.271,43.456l0.6,1.094l-2.318,0.377l-0.432-0.79L554.271,43.456z"/>
	<path fill="#508971" d="M557.565,49.844l-0.062-0.842l2.118,0.612c-0.126-0.182-0.218-0.324-0.274-0.424
		c-0.348-0.615-0.499-1.21-0.454-1.785c0.045-0.575,0.273-0.979,0.685-1.211c0.398-0.225,0.874-0.195,1.428,0.091
		s1.002,0.732,1.344,1.337c0.339,0.599,0.484,1.209,0.437,1.831c-0.048,0.622-0.271,1.046-0.672,1.272
		c-0.323,0.183-0.723,0.207-1.196,0.071L557.565,49.844z M561.577,49.87c0.26-0.147,0.405-0.408,0.438-0.783
		c0.033-0.375-0.056-0.75-0.268-1.124c-0.225-0.397-0.504-0.677-0.839-0.84c-0.334-0.163-0.638-0.167-0.91-0.013
		c-0.251,0.142-0.386,0.405-0.405,0.79c-0.02,0.385,0.084,0.777,0.311,1.177c0.208,0.368,0.474,0.629,0.798,0.783
		C561.025,50.013,561.317,50.017,561.577,49.87z"/>
	<path fill="#508971" d="M559.96,53.03c0.129-0.053,0.268-0.031,0.418,0.067c0.149,0.098,0.265,0.244,0.345,0.437
		c0.078,0.19,0.1,0.374,0.063,0.55c-0.037,0.177-0.119,0.292-0.248,0.345c-0.131,0.054-0.271,0.032-0.419-0.066
		c-0.148-0.099-0.263-0.244-0.343-0.438c-0.08-0.193-0.103-0.377-0.067-0.551C559.743,53.199,559.827,53.085,559.96,53.03z"/>
	<path fill="#508971" d="M565.504,55.311l0.522,1.781l-4.619,1.355l-0.271-0.926l4.008-1.176l-0.342-1.168L565.504,55.311z"/>
	<path fill="#508971" d="M566.115,62.2l-0.166-1.03c0.413,0.002,0.757,0.186,1.031,0.553c0.275,0.367,0.459,0.834,0.55,1.403
		c0.104,0.653,0.065,1.214-0.117,1.683c-0.184,0.469-0.465,0.733-0.844,0.794c-0.471,0.076-0.888-0.221-1.251-0.89
		c-0.156,0.877-0.488,1.356-0.997,1.438c-0.399,0.064-0.781-0.106-1.146-0.512c-0.366-0.405-0.599-0.918-0.698-1.538
		c-0.1-0.624-0.081-1.181,0.057-1.67s0.424-0.843,0.857-1.061l0.169,1.052c-0.458,0.308-0.63,0.816-0.516,1.525
		c0.058,0.362,0.192,0.664,0.404,0.906c0.212,0.243,0.43,0.346,0.654,0.31c0.234-0.038,0.43-0.196,0.586-0.474
		c0.156-0.279,0.193-0.701,0.109-1.268l0.592-0.095c0.074,0.431,0.2,0.758,0.378,0.982c0.178,0.223,0.374,0.317,0.591,0.283
		c0.222-0.036,0.392-0.18,0.509-0.434c0.117-0.253,0.15-0.544,0.098-0.873c-0.05-0.31-0.143-0.549-0.276-0.717
		C566.554,62.4,566.362,62.277,566.115,62.2z"/>
	<path fill="#508971" d="M563.004,69.78l0.314-0.783l1.633,1.482c-0.033-0.219-0.054-0.386-0.061-0.502
		c-0.041-0.705,0.085-1.306,0.379-1.802s0.676-0.758,1.148-0.786c0.456-0.027,0.87,0.21,1.241,0.711
		c0.371,0.5,0.577,1.098,0.618,1.792c0.04,0.687-0.099,1.299-0.415,1.836s-0.704,0.819-1.163,0.846
		c-0.371,0.022-0.739-0.133-1.105-0.463L563.004,69.78z M566.595,71.569c0.297-0.018,0.544-0.188,0.738-0.51
		c0.195-0.322,0.28-0.698,0.255-1.127c-0.026-0.455-0.154-0.83-0.383-1.124c-0.229-0.293-0.499-0.431-0.812-0.413
		c-0.287,0.017-0.524,0.194-0.711,0.531s-0.267,0.735-0.239,1.194c0.024,0.421,0.148,0.773,0.371,1.054
		C566.036,71.455,566.297,71.587,566.595,71.569z"/>
	<path fill="#508971" d="M568.302,78.4l-3.463-0.094l-0.019,0.689l-0.564-0.015l0.019-0.689l-0.947-0.026l0.023-0.875l0.947,0.025
		l0.108-4.002L568.302,78.4z M566.79,77.461l-1.865-2.32l-0.062,2.291l1.927,0.052L566.79,77.461z"/>
	<path fill="#508971" d="M566.53,82.167c0.049-0.427,0.193-0.78,0.435-1.057c0.24-0.277,0.503-0.399,0.79-0.367
		c0.286,0.033,0.514,0.211,0.684,0.536c0.171,0.324,0.231,0.7,0.182,1.127c-0.048,0.423-0.191,0.774-0.43,1.051
		c-0.237,0.278-0.501,0.4-0.789,0.367c-0.287-0.033-0.516-0.211-0.687-0.536C566.543,82.964,566.481,82.59,566.53,82.167z
		 M568.21,82.359c0.03-0.26-0.006-0.488-0.108-0.684s-0.241-0.304-0.417-0.324c-0.176-0.021-0.337,0.054-0.483,0.224
		s-0.234,0.382-0.264,0.639c-0.03,0.26,0.007,0.488,0.112,0.685c0.104,0.196,0.244,0.305,0.42,0.325
		c0.176,0.02,0.336-0.055,0.48-0.225C568.094,82.829,568.181,82.616,568.21,82.359z"/>
	<path fill="#508971" d="M565.318,94.086l-4.132,0.96l2.444,3.17l-0.341,0.948l-3.611-4.659l4.139-0.957l-2.586-3.372l5.752-1.306
		l-0.34,0.948l-3.943,0.895L565.318,94.086z"/>
	<path fill="#508971" d="M562.214,100.306l-0.186,0.784c-1.195,0.215-2.332,0-3.41-0.642c-0.956-0.57-1.685-1.444-2.186-2.622
		l0.634-0.523c0.379,0.77,0.707,1.303,0.983,1.598s0.632,0.573,1.065,0.831c0.49,0.292,0.966,0.486,1.425,0.582
		S561.557,100.406,562.214,100.306z"/>
</g>
</svg>
