<?xml version="1.0" encoding="utf-8"?>
<!-- Generator: Adobe Illustrator 16.0.4, SVG Export Plug-In . SVG Version: 6.00 Build 0)  -->
<!DOCTYPE svg PUBLIC "-//W3C//DTD SVG 1.1//EN" "http://www.w3.org/Graphics/SVG/1.1/DTD/svg11.dtd">
<svg version="1.1" id="Layer_1" xmlns="http://www.w3.org/2000/svg" xmlns:xlink="http://www.w3.org/1999/xlink" x="0px" y="0px"
	 width="37.385px" height="24px" viewBox="0 0 37.385 24" enable-background="new 0 0 37.385 24" xml:space="preserve">
<g>
	<path fill="#FFFFFF" d="M36.943,17.251c0,2.413-1.957,4.37-4.37,4.37H4.912c-2.415,0-4.372-1.957-4.372-4.37V6.256
		c0-2.415,1.957-4.372,4.372-4.372h27.661c2.413,0,4.37,1.957,4.37,4.372V17.251z"/>
	<path fill="#FCB830" d="M34.404,15.552c0,2.227-1.804,4.032-4.031,4.032h-7.598c-2.228,0-4.033-1.806-4.033-4.032V7.953
		c0-2.227,1.806-4.032,4.033-4.032h7.598c2.228,0,4.031,1.805,4.031,4.032V15.552z"/>
	<text transform="matrix(1 0 0 1 4.4111 13.6787)" fill="#FCB830" font-family="'Montserrat-Regular'" font-size="4.9173">MAP</text>
</g>
</svg>
