<?xml version="1.0" encoding="utf-8"?>
<!-- Generator: Adobe Illustrator 16.0.4, SVG Export Plug-In . SVG Version: 6.00 Build 0)  -->
<!DOCTYPE svg PUBLIC "-//W3C//DTD SVG 1.1//EN" "http://www.w3.org/Graphics/SVG/1.1/DTD/svg11.dtd">
<svg version="1.1" id="Layer_1" xmlns="http://www.w3.org/2000/svg" xmlns:xlink="http://www.w3.org/1999/xlink" x="0px" y="0px"
	 width="36.184px" height="19.619px" viewBox="0 0 36.184 19.619" enable-background="new 0 0 36.184 19.619" xml:space="preserve">
<g>
	<path fill="#FAB733" d="M36.184,15.273c0,2.4-1.945,4.346-4.345,4.346H4.344C1.945,19.619,0,17.673,0,15.273V4.344
		C0,1.945,1.945,0,4.344,0h27.495c2.399,0,4.345,1.945,4.345,4.344V15.273z"/>
	<path fill="#FFFFFF" d="M18.002,13.585c0,2.213-1.795,4.008-4.008,4.008H6.441c-2.214,0-4.008-1.795-4.008-4.008V6.031
		c0-2.213,1.794-4.006,4.008-4.006h7.553c2.213,0,4.008,1.793,4.008,4.006V13.585z"/>
</g>
</svg>
