<?xml version="1.0" encoding="utf-8"?>
<!-- Generator: Adobe Illustrator 16.0.4, SVG Export Plug-In . SVG Version: 6.00 Build 0)  -->
<!DOCTYPE svg PUBLIC "-//W3C//DTD SVG 1.1//EN" "http://www.w3.org/Graphics/SVG/1.1/DTD/svg11.dtd">
<svg version="1.1" id="Layer_1" xmlns="http://www.w3.org/2000/svg" xmlns:xlink="http://www.w3.org/1999/xlink" x="0px" y="0px"
	 width="24px" height="24px" viewBox="0 0 24 24" enable-background="new 0 0 24 24" xml:space="preserve">
<g>
	<g>
		<path fill="#FFFFFF" d="M2.052,11.023l7.722,3.935c0.681,0.363,0.981,0.379,1.752,0.087l8.066-3.161
			c0.399-0.163,0.584-1.011,0.608-1.471c-0.521,0.229-1.257,0.556-1.271,0.558l-8.246,3.323l-7.882-4.112
			c0.029,0.02-0.696-0.354-1.209-0.681C1.572,9.951,1.644,10.78,2.052,11.023L2.052,11.023z"/>
		<path fill="#FFFFFF" d="M10.502,18.011l-7.88-4.112c0.025,0.02-0.699-0.353-1.21-0.68c-0.021,0.448,0.05,1.278,0.458,1.521
			l7.721,3.935c0.681,0.363,0.982,0.378,1.754,0.086l8.068-3.16c0.397-0.162,0.583-1.01,0.605-1.47
			c-0.521,0.228-1.257,0.556-1.271,0.558L10.502,18.011L10.502,18.011z"/>
		<path fill="#FFFFFF" d="M2.235,7.306l7.72,3.936c0.682,0.363,0.983,0.378,1.754,0.086l8.068-3.163
			c0.596-0.243,0.669-1.394,0.084-1.752l-7.687-4.556C11.57,1.46,11.133,1.458,10.42,1.772L2.319,5.553
			C1.701,5.911,1.631,6.947,2.235,7.306L2.235,7.306z"/>
	</g>
	<g>
		<circle fill="#FAB733" cx="17.733" cy="16.592" r="4.897"/>
		<text transform="matrix(1 0 0 1 16.3945 18.4727)" fill="#FFFFFF" font-family="'Montserrat-SemiBold'" font-size="5.651">4</text>
	</g>
</g>
</svg>
