<svg id="Layer_1" data-name="Layer 1" xmlns="http://www.w3.org/2000/svg" viewBox="0 0 23.78 19.33"><defs><style>.cls-1{fill:#37474f;}</style></defs><title>Artboard 3</title><path class="cls-1" d="M2.15,10.75l8.56,4.36a1.87,1.87,0,0,0,1.94.1l8.94-3.5c.44-.18.65-1.12.67-1.63l-1.41.62-9.14,3.68L3,9.81s-.77-.39-1.34-.76c0,.5.06,1.42.51,1.69Z"/><path class="cls-1" d="M11.52,18.49,2.79,13.93s-.78-.39-1.34-.75c0,.5.06,1.42.51,1.69l8.56,4.36a1.86,1.86,0,0,0,1.94.1l8.95-3.51c.44-.18.65-1.12.67-1.63l-1.41.62-9.14,3.68Z"/><path class="cls-1" d="M2.36,6.63,10.91,11a1.87,1.87,0,0,0,1.95.1L21.8,7.58a1.21,1.21,0,0,0,.09-1.94L13.38.59a1.74,1.74,0,0,0-1.95-.1l-9,4.19a1.19,1.19,0,0,0-.09,1.94Z"/></svg>