<?xml version="1.0" encoding="utf-8"?>
<!-- Generator: Adobe Illustrator 16.0.4, SVG Export Plug-In . SVG Version: 6.00 Build 0)  -->
<!DOCTYPE svg PUBLIC "-//W3C//DTD SVG 1.1//EN" "http://www.w3.org/Graphics/SVG/1.1/DTD/svg11.dtd">
<svg version="1.1" id="Layer_1" xmlns="http://www.w3.org/2000/svg" xmlns:xlink="http://www.w3.org/1999/xlink" x="0px" y="0px"
	 width="26.167px" height="24px" viewBox="0 0 26.167 24" enable-background="new 0 0 26.167 24" xml:space="preserve">
<circle fill="#FFFFFF" cx="19.703" cy="18.302" r="3.087"/>
<circle fill="#FFFFFF" cx="12.715" cy="12.96" r="4.622"/>
<circle fill="#FFFFFF" cx="13.363" cy="20.919" r="2.532"/>
<circle fill="#FFFFFF" cx="8.323" cy="18.808" r="1.5"/>
<circle fill="#FFFFFF" cx="20.113" cy="12.442" r="1.237"/>
<circle fill="#FFFFFF" cx="23.511" cy="14.042" r="1.52"/>
<path fill="#FFFFFF" d="M6.195,10.899c-0.172,0.17-0.407,0.222-0.632,0.184c-0.225,0.038-0.46-0.014-0.633-0.184L0.862,6.915
	c-0.281-0.275-0.281-0.723,0-0.996c0.279-0.275,0.734-0.275,1.018,0l2.963,2.902V1.364c0-0.387,0.322-0.704,0.721-0.704
	c0.396,0,0.719,0.317,0.719,0.704v7.457l2.967-2.902c0.28-0.275,0.734-0.275,1.016,0c0.283,0.273,0.283,0.721,0,0.996L6.195,10.899
	L6.195,10.899z"/>
</svg>
