<?xml version="1.0" encoding="utf-8"?>
<!-- Generator: Adobe Illustrator 16.0.4, SVG Export Plug-In . SVG Version: 6.00 Build 0)  -->
<!DOCTYPE svg PUBLIC "-//W3C//DTD SVG 1.1//EN" "http://www.w3.org/Graphics/SVG/1.1/DTD/svg11.dtd">
<svg version="1.1" id="Layer_1" xmlns="http://www.w3.org/2000/svg" xmlns:xlink="http://www.w3.org/1999/xlink" x="0px" y="0px"
	 width="37.385px" height="24px" viewBox="0 0 37.385 24" enable-background="new 0 0 37.385 24" xml:space="preserve">
<g>
	<path fill="#FFFFFF" d="M36.784,17.464c0,2.4-1.945,4.346-4.345,4.346H4.944c-2.398,0-4.344-1.945-4.344-4.346V6.535
		c0-2.398,1.945-4.344,4.344-4.344h27.495c2.399,0,4.345,1.945,4.345,4.344V17.464z"/>
	<path fill="#FAB733" d="M18.603,15.776c0,2.213-1.795,4.008-4.008,4.008H7.042c-2.214,0-4.008-1.795-4.008-4.008V8.222
		c0-2.213,1.794-4.007,4.008-4.007h7.553c2.213,0,4.008,1.794,4.008,4.007V15.776z"/>
</g>
</svg>
