<?xml version="1.0" encoding="utf-8"?>
<!-- Generator: Adobe Illustrator 16.0.4, SVG Export Plug-In . SVG Version: 6.00 Build 0)  -->
<!DOCTYPE svg PUBLIC "-//W3C//DTD SVG 1.1//EN" "http://www.w3.org/Graphics/SVG/1.1/DTD/svg11.dtd">
<svg version="1.1" id="Layer_1" xmlns="http://www.w3.org/2000/svg" xmlns:xlink="http://www.w3.org/1999/xlink" x="0px" y="0px"
	 width="24px" height="24px" viewBox="0 0 24 24" enable-background="new 0 0 24 24" xml:space="preserve">
<path fill-rule="evenodd" clip-rule="evenodd" fill="#FFFFFF" d="M18.93,6.236c-0.367,0.15-0.663,0.256-0.943,0.393
	c-0.57,0.275-1.05,0.256-1.602-0.154c-1.294-0.963-3.327-0.467-4.193,1.029c-0.354,0.617-0.434,1.271-0.379,1.957
	c0.016,0.203-0.027,0.25-0.248,0.229C9.894,9.514,8.398,8.918,7.08,7.875C6.565,7.469,6.113,6.996,5.623,6.521
	C5.13,7.676,5.094,8.768,5.804,9.812c0.116,0.172,0.269,0.316,0.398,0.479c0.046,0.057,0.13,0.115,0.085,0.195
	c-0.056,0.098-0.16,0.047-0.237,0.025c-0.2-0.053-0.397-0.117-0.592-0.189c-0.222-0.082-0.298-0.018-0.259,0.217
	c0.189,1.141,0.777,1.994,1.816,2.527c0.111,0.059,0.246,0.082,0.369,0.262c-0.246,0-0.445-0.002-0.646,0
	c-0.413,0.002-0.472,0.088-0.27,0.453c0.389,0.713,1.004,1.166,1.744,1.463c0.232,0.09,0.467,0.168,0.721,0.258
	c-1.236,0.951-2.661,1.152-4.15,1.18c0.07,0.164,0.159,0.189,0.234,0.23c2.223,1.195,4.537,1.414,6.961,0.699
	c3.037-0.896,5.673-4.09,5.863-7.949c0.021-0.408,0.131-0.734,0.431-1.016c0.278-0.262,0.528-0.551,0.788-0.832
	c0.07-0.076,0.202-0.166,0.139-0.27c-0.066-0.115-0.195-0.018-0.293,0.012c-0.188,0.061-0.371,0.127-0.559,0.184
	c-0.115,0.033-0.27,0.102-0.34,0.008c-0.09-0.119,0.072-0.207,0.143-0.291C18.443,7.105,18.738,6.76,18.93,6.236z"/>
</svg>
