<svg id="Layer_1" data-name="Layer 1" xmlns="http://www.w3.org/2000/svg" viewBox="0 0 23.78 17.84"><defs><style>.cls-1{fill:#37474f;fill-rule:evenodd;}</style></defs><title>Artboard 2</title><path class="cls-1" d="M20.68,3.42c-.41.17-.75.29-1.06.44a1.56,1.56,0,0,1-1.8-.17,3.33,3.33,0,0,0-4.71,1.16A3.67,3.67,0,0,0,12.68,7c0,.23,0,.28-.28.26a9.55,9.55,0,0,1-5-2A22.23,22.23,0,0,1,5.73,3.74a3.63,3.63,0,0,0,.2,3.7c.13.19.3.36.45.54s.15.13.09.22-.18.05-.27,0S5.76,8.09,5.54,8s-.33,0-.29.24a3.69,3.69,0,0,0,2,2.84.84.84,0,0,1,.41.29H7c-.46,0-.53.1-.3.51a3.68,3.68,0,0,0,2,1.64l.81.29a7.5,7.5,0,0,1-4.67,1.32.46.46,0,0,0,.27.26,10,10,0,0,0,7.82.79,9.86,9.86,0,0,0,6.59-8.94,1.55,1.55,0,0,1,.48-1.14c.31-.29.59-.62.89-.93.08-.09.23-.19.16-.3s-.22,0-.33,0L20,5.11c-.13,0-.3.11-.38,0s.08-.23.16-.32A4.5,4.5,0,0,0,20.68,3.42Z"/></svg>