<?xml version="1.0" encoding="utf-8"?>
<!-- Generator: Adobe Illustrator 16.0.4, SVG Export Plug-In . SVG Version: 6.00 Build 0)  -->
<!DOCTYPE svg PUBLIC "-//W3C//DTD SVG 1.1//EN" "http://www.w3.org/Graphics/SVG/1.1/DTD/svg11.dtd">
<svg version="1.1" id="Layer_1" xmlns="http://www.w3.org/2000/svg" xmlns:xlink="http://www.w3.org/1999/xlink" x="0px" y="0px"
	 width="704px" height="148.837px" viewBox="0 0 704 148.837" enable-background="new 0 0 704 148.837" xml:space="preserve">
<path fill="#56473B" d="M12.477,31.394h71.104v18.333H39.068v13.647H80.36v17.513H39.068v16.927H84.87v19.445H12.477V31.394z"/>
<path fill="#56473B" d="M99.513,117.258V31.394h44.22c8.2,0,14.467,0.703,18.801,2.109c4.334,1.405,7.828,4.012,10.484,7.819
	c2.655,3.807,3.983,8.444,3.983,13.911c0,4.764-1.016,8.873-3.047,12.329c-2.032,3.456-4.826,6.258-8.38,8.405
	c-2.266,1.367-5.372,2.499-9.318,3.397c3.16,1.056,5.462,2.111,6.907,3.166c0.976,0.704,2.389,2.208,4.244,4.515
	c1.853,2.306,3.092,4.084,3.716,5.334l12.849,24.88h-29.979l-14.182-26.24c-1.797-3.397-3.397-5.603-4.803-6.618
	c-1.914-1.327-4.081-1.991-6.501-1.991h-2.343v34.849H99.513z M126.162,66.185h11.187c1.209,0,3.552-0.39,7.028-1.171
	c1.757-0.352,3.192-1.25,4.305-2.694c1.113-1.444,1.669-3.104,1.669-4.979c0-2.772-0.878-4.9-2.636-6.384
	c-1.757-1.483-5.057-2.226-9.898-2.226h-11.655V66.185z"/>
<path fill="#56473B" d="M197.405,31.394h71.104v18.333h-44.514v13.647h41.292v17.513h-41.292v16.927h45.802v19.445h-72.393V31.394z"
	/>
<path fill="#56473B" d="M283.207,31.394h26.532v30.047h28.992V31.394h26.65v85.864h-26.65V82.526h-28.992v34.732h-26.532V31.394z"/>
<path fill="#56473B" d="M379.166,31.394h25.201l9.073,48.069l13.279-48.069h25.11l13.312,48.005l9.083-48.005h25.07l-18.928,85.864
	h-26.018l-15.061-54.061l-15.001,54.061h-26.018L379.166,31.394z"/>
<path fill="#56473B" d="M604.146,31.394h24.775l32.331,47.504V31.394h25.01v85.864h-25.01l-32.155-47.146v47.146h-24.951V31.394z"/>
<path fill="none" d="M587.402,74.549c0,26.021-14.352,40.094-36.889,40.094c-22.533,0-37.154-13.599-37.154-39.617
	c0-26.017,16.377-40.308,38.914-40.308C574.797,34.718,587.402,48.533,587.402,74.549z"/>
<text transform="matrix(-0.9666 1.1201 -0.757 -0.6534 579.8145 101.6157)" fill="#508971" font-family="'AvenirNextCondensed-Medium'" font-size="16"> </text>
<text transform="matrix(-1.1318 0.9529 -0.6441 -0.765 577.2363 104.7534)" fill="#508971" font-family="'AvenirNextCondensed-Medium'" font-size="16">(</text>
<text transform="matrix(-1.3371 0.6333 -0.4281 -0.9037 573.3408 108.5718)" fill="#508971" font-family="'AvenirNextCondensed-Medium'" font-size="16">1</text>
<text transform="matrix(-1.4613 0.2316 -0.1565 -0.9877 563.6943 113.1782)" fill="#508971" font-family="'AvenirNextCondensed-Medium'" font-size="16">9</text>
<text transform="matrix(-1.479 -0.038 0.0257 -0.9997 552.8916 114.7227)" fill="#508971" font-family="'AvenirNextCondensed-Medium'" font-size="16">°</text>
<text transform="matrix(-1.4646 -0.2092 0.1414 -0.9899 545.6377 114.4751)" fill="#508971" font-family="'AvenirNextCondensed-Medium'" font-size="16"> </text>
<text transform="matrix(-1.4018 -0.4731 0.3198 -0.9475 541.6006 114.2881)" fill="#508971" font-family="'AvenirNextCondensed-Medium'" font-size="16">1</text>
<text transform="matrix(-1.1805 -0.8918 0.6028 -0.7979 531.4688 111.0576)" fill="#508971" font-family="'AvenirNextCondensed-Medium'" font-size="16">3</text>
<text transform="matrix(-0.9304 -1.1504 0.7775 -0.6289 523.1104 104.3286)" fill="#508971" font-family="'AvenirNextCondensed-Medium'" font-size="16">’</text>
<text transform="matrix(-0.769 -1.264 0.8543 -0.5197 520.3721 100.9648)" fill="#508971" font-family="'AvenirNextCondensed-Medium'" font-size="16"> </text>
<text transform="matrix(-0.4952 -1.3942 0.9423 -0.3347 517.9766 97.7705)" fill="#508971" font-family="'AvenirNextCondensed-Medium'" font-size="16">1</text>
<text transform="matrix(-0.1638 -1.4704 0.9939 -0.1107 514.3604 87.5811)" fill="#508971" font-family="'AvenirNextCondensed-Medium'" font-size="16">2</text>
<text transform="matrix(0.0192 -1.4794 0.9999 0.013 513.335 76.5728)" fill="#508971" font-family="'AvenirNextCondensed-Medium'" font-size="16">‘</text>
<text transform="matrix(0.1353 -1.4733 0.9958 0.0914 513.3818 72.082)" fill="#508971" font-family="'AvenirNextCondensed-Medium'" font-size="16">’</text>
<text transform="matrix(0.2604 -1.4564 0.9844 0.176 513.7764 67.6675)" fill="#508971" font-family="'AvenirNextCondensed-Medium'" font-size="16"> </text>
<text transform="matrix(0.4888 -1.3964 0.9439 0.3304 514.2168 63.5835)" fill="#508971" font-family="'AvenirNextCondensed-Medium'" font-size="16">S</text>
<text transform="matrix(0.7515 -1.2745 0.8614 0.5079 517.6475 54.3188)" fill="#508971" font-family="'AvenirNextCondensed-Medium'" font-size="16">,</text>
<text transform="matrix(0.9137 -1.1636 0.7865 0.6176 520.1953 50.0015)" fill="#508971" font-family="'AvenirNextCondensed-Medium'" font-size="16"> </text>
<text transform="matrix(1.147 -0.9345 0.6316 0.7753 522.2871 46.6147)" fill="#508971" font-family="'AvenirNextCondensed-Medium'" font-size="16">1</text>
<text transform="matrix(1.3739 -0.549 0.3711 0.9286 530.5117 39.812)" fill="#508971" font-family="'AvenirNextCondensed-Medium'" font-size="16">5</text>
<text transform="matrix(1.4683 -0.1822 0.1231 0.9924 540.4766 35.792)" fill="#508971" font-family="'AvenirNextCondensed-Medium'" font-size="16">9</text>
<text transform="matrix(1.4773 0.0808 -0.0546 0.9985 551.3389 34.5879)" fill="#508971" font-family="'AvenirNextCondensed-Medium'" font-size="16">°</text>
<text transform="matrix(1.455 0.2681 -0.1812 0.9834 558.5342 35.0435)" fill="#508971" font-family="'AvenirNextCondensed-Medium'" font-size="16"> </text>
<text transform="matrix(1.3674 0.565 -0.3819 0.9242 562.5479 35.3281)" fill="#508971" font-family="'AvenirNextCondensed-Medium'" font-size="16">5</text>
<text transform="matrix(1.0787 1.0126 -0.6844 0.7291 572.373 39.1733)" fill="#508971" font-family="'AvenirNextCondensed-Medium'" font-size="16">5</text>
<text transform="matrix(0.7916 1.2499 -0.8448 0.535 579.9141 46.7339)" fill="#508971" font-family="'AvenirNextCondensed-Medium'" font-size="16">’</text>
<text transform="matrix(0.6249 1.3411 -0.9064 0.4223 582.252 50.4062)" fill="#508971" font-family="'AvenirNextCondensed-Medium'" font-size="16"> </text>
<text transform="matrix(0.3674 1.4332 -0.9687 0.2483 584.2588 53.9307)" fill="#508971" font-family="'AvenirNextCondensed-Medium'" font-size="16">4</text>
<text transform="matrix(0.0866 1.477 -0.9983 0.0586 586.9434 64.479)" fill="#508971" font-family="'AvenirNextCondensed-Medium'" font-size="16">8</text>
<text transform="matrix(-0.074 1.4777 -0.9987 -0.05 587.4375 75.5703)" fill="#508971" font-family="'AvenirNextCondensed-Medium'" font-size="16">’</text>
<text transform="matrix(-0.185 1.4679 -0.9922 -0.125 587.2236 80.0557)" fill="#508971" font-family="'AvenirNextCondensed-Medium'" font-size="16">’</text>
<text transform="matrix(-0.3075 1.4472 -0.9782 -0.2079 586.6768 84.4722)" fill="#508971" font-family="'AvenirNextCondensed-Medium'" font-size="16"> </text>
</svg>
