<?xml version="1.0" encoding="utf-8"?>
<!-- Generator: Adobe Illustrator 16.0.4, SVG Export Plug-In . SVG Version: 6.00 Build 0)  -->
<!DOCTYPE svg PUBLIC "-//W3C//DTD SVG 1.1//EN" "http://www.w3.org/Graphics/SVG/1.1/DTD/svg11.dtd">
<svg version="1.1" id="Layer_1" xmlns="http://www.w3.org/2000/svg" xmlns:xlink="http://www.w3.org/1999/xlink" x="0px" y="0px"
	 width="24px" height="24px" viewBox="0 0 24 24" enable-background="new 0 0 24 24" xml:space="preserve">
<g>
	<path fill="#FAB733" d="M117.133-73.622c0,2.4-1.945,4.346-4.345,4.346H85.293c-2.398,0-4.344-1.945-4.344-4.346V-84.55
		c0-2.398,1.945-4.344,4.344-4.344h27.495c2.399,0,4.345,1.945,4.345,4.344V-73.622z"/>
	<path fill="#FFFFFF" d="M98.951-75.309c0,2.213-1.795,4.008-4.008,4.008h-7.553c-2.214,0-4.008-1.795-4.008-4.008v-7.554
		c0-2.213,1.794-4.007,4.008-4.007h7.553c2.213,0,4.008,1.794,4.008,4.007V-75.309z"/>
</g>
<g>
	<path fill="#FFFFFF" d="M-180.064-63.505c-1.638,0-3.174-0.092-4.501-0.848c-2.555,1.067-4.656,2.175-5.958,5.762h16.316
		l2.804-3.146c-1.142-1.15-2.523-2.233-4.055-2.85C-176.812-63.79-178.385-63.505-180.064-63.505"/>
	<path fill="#FFFFFF" d="M-180.064-80.2c-4.187,0-7.578,3.393-7.578,7.576c0,4.185,3.391,7.576,7.578,7.576
		c4.183,0,7.575-3.392,7.575-7.576C-172.489-76.807-175.881-80.2-180.064-80.2"/>
</g>
<g>
	<g>
		<path fill="#FFFFFF" d="M-156.948-69.977l7.722,3.935c0.681,0.363,0.981,0.379,1.752,0.087l8.066-3.161
			c0.399-0.163,0.584-1.011,0.608-1.471c-0.521,0.229-1.257,0.556-1.271,0.558l-8.246,3.323l-7.882-4.112
			c0.029,0.02-0.696-0.354-1.209-0.681C-157.428-71.049-157.356-70.22-156.948-69.977L-156.948-69.977z"/>
		<path fill="#FFFFFF" d="M-148.498-62.989l-7.88-4.112c0.025,0.02-0.699-0.353-1.21-0.68c-0.021,0.448,0.05,1.278,0.458,1.521
			l7.721,3.935c0.681,0.363,0.982,0.378,1.754,0.086l8.068-3.16c0.397-0.162,0.583-1.01,0.605-1.47
			c-0.521,0.228-1.257,0.556-1.271,0.558L-148.498-62.989L-148.498-62.989z"/>
		<path fill="#FFFFFF" d="M-156.765-73.694l7.72,3.936c0.682,0.363,0.983,0.378,1.754,0.086l8.068-3.163
			c0.596-0.243,0.669-1.394,0.084-1.752l-7.687-4.556c-0.604-0.397-1.042-0.399-1.754-0.086l-8.101,3.781
			C-157.299-75.089-157.369-74.053-156.765-73.694L-156.765-73.694z"/>
	</g>
	<g>
		<circle fill="#FAB733" cx="-141.267" cy="-64.408" r="4.897"/>
		<text transform="matrix(1 0 0 1 -142.6055 -62.5273)" fill="#FFFFFF" font-family="'Montserrat-SemiBold'" font-size="5.651">4</text>
	</g>
</g>
<g>
	<path fill="#F7B632" d="M43.385,48.85c0-4.661-3.779-8.44-8.44-8.44H10.825c-4.662,0-8.44,3.779-8.44,8.44v24.119
		c0,4.661,3.779,8.44,8.44,8.44h24.119c4.661,0,8.44-3.779,8.44-8.44V48.85z"/>
</g>
<g>
	<path fill="#F7B632" d="M85.385,48.85c0-4.661-3.779-8.44-8.44-8.44H52.825c-4.661,0-8.44,3.779-8.44,8.44v24.119
		c0,4.661,3.779,8.44,8.44,8.44h24.119c4.661,0,8.44-3.779,8.44-8.44V48.85z"/>
</g>
<g>
	<path fill="#F7B632" d="M135.385,48.85c0-4.661-3.779-8.44-8.44-8.44h-24.119c-4.661,0-8.44,3.779-8.44,8.44v24.119
		c0,4.661,3.779,8.44,8.44,8.44h24.119c4.661,0,8.44-3.779,8.44-8.44V48.85z"/>
</g>
<g>
	<path fill="#FFFFFF" d="M127.422,59.072c-0.123-0.235-0.414-0.327-0.65-0.204l-2.638,1.377c-0.235,0.122-0.327,0.414-0.204,0.649
		c0.086,0.165,0.254,0.259,0.428,0.259c0.075,0,0.151-0.018,0.223-0.055l2.638-1.375C127.453,59.6,127.545,59.31,127.422,59.072z"/>
	<path fill="#FFFFFF" d="M121.695,56.839c0.122,0,0.244-0.045,0.338-0.137l2.304-2.248c0.189-0.188,0.192-0.492,0.007-0.682
		c-0.187-0.191-0.49-0.195-0.681-0.009l-2.304,2.249c-0.19,0.187-0.193,0.492-0.009,0.682
		C121.445,56.791,121.57,56.839,121.695,56.839z"/>
	<path fill="#FFFFFF" d="M117.421,54.257c0.063,0.027,0.129,0.041,0.194,0.041c0.186,0,0.362-0.107,0.441-0.287l1.248-2.837
		c0.107-0.243-0.004-0.527-0.248-0.634c-0.242-0.107-0.526,0.002-0.634,0.246l-1.248,2.836
		C117.066,53.864,117.178,54.149,117.421,54.257z"/>
	<path fill="#FFFFFF" d="M113.224,55.173c-0.281,0-0.504,0.078-0.66,0.234c-0.124,0.125-0.213,0.35-0.23,0.582
		c-0.207,1.825-1.295,5.48-3.333,7.52l-0.648,0.648c-0.376,0.375-0.45,1.011-0.188,1.483l-0.299,0.3
		c-0.381,0.38-0.59,0.887-0.59,1.427s0.209,1.046,0.59,1.427l0.648,0.648c0.381,0.381,0.888,0.59,1.428,0.59
		c0.539,0,1.046-0.209,1.427-0.59l0.3-0.299c0.406,0.229,0.967,0.199,1.34-0.067l2.799,2.797c0.206,0.208,0.484,0.322,0.778,0.322
		c0.295,0,0.571-0.114,0.777-0.321l0.65-0.648c0.606-0.609,0.606-1.6,0-2.207c-0.245-0.242-0.668-0.242-0.911,0l-0.162,0.162
		c-0.022,0.023-0.044,0.012-0.057,0.012c-0.004-0.033,0.054-0.154,0.081-0.212c0.122-0.256,0.326-0.685-0.087-1.097
		c-0.158-0.158-0.341-0.239-0.539-0.239c-0.206,0-0.393,0.085-0.545,0.154c-0.074,0.034-0.175,0.08-0.21,0.09
		c-0.005-0.034,0.065-0.163,0.094-0.218c0.114-0.209,0.28-0.514,0.11-0.831c1.662-0.942,3.821-1.673,5.53-1.864
		c0.265-0.021,0.443-0.094,0.584-0.232c0.813-0.814-0.58-3.434-3.241-6.096C116.581,56.569,114.396,55.173,113.224,55.173z
		 M116.207,68.695c-0.12,0.272-0.301,0.687,0.085,1.071c0.333,0.334,0.898,0.334,1.233,0l0.015-0.015
		c0.168,0.282,0.126,0.647-0.113,0.888l-0.649,0.648c-0.103,0.102-0.283,0.102-0.386,0l-2.786-2.787l0.193-0.193
		c0.33-0.33,0.714-0.648,1.121-0.932c-0.006,0.012-0.012,0.023-0.017,0.035c-0.111,0.25-0.298,0.67,0.092,1.059
		c0.335,0.335,0.899,0.335,1.234,0c0.023-0.023,0.043-0.016,0.058-0.008C116.295,68.497,116.237,68.626,116.207,68.695z
		 M108.676,67.073l-0.324,0.326c-0.17,0.168-0.17,0.415,0,0.586c0.082,0.081,0.187,0.127,0.292,0.127
		c0.107,0,0.212-0.047,0.294-0.129l0.324-0.324c0.082-0.082,0.127-0.186,0.127-0.293c0-0.047-0.009-0.094-0.025-0.137
		c0.114,0.125,0.232,0.248,0.35,0.365c0.395,0.396,0.855,0.791,1.253,1.078l-0.184,0.184c-0.225,0.225-0.524,0.348-0.841,0.348
		c-0.319,0-0.618-0.123-0.842-0.348l-0.648-0.648c-0.464-0.463-0.464-1.219,0.001-1.682l0.183-0.184
		c0.149,0.206,0.327,0.43,0.521,0.652C109,66.911,108.807,66.942,108.676,67.073z M116.259,59.86c0.32,0,0.62,0.123,0.843,0.346
		c0.412,0.412,0.467,1.045,0.143,1.514c-0.285-0.258-0.565-0.516-0.853-0.805c-0.273-0.271-0.537-0.558-0.802-0.852
		C115.784,59.933,116.018,59.86,116.259,59.86z M117.688,59.62c-0.384-0.383-0.893-0.594-1.431-0.594
		c-0.435,0-0.856,0.141-1.203,0.399c-1.526-1.89-2.034-3.278-1.904-3.433c0.007-0.006,0.031-0.018,0.088-0.018
		c0.565,0,2.667,1.09,4.836,3.258c2.434,2.434,3.45,4.715,3.24,4.924c0,0-0.017,0.014-0.076,0.014c-0.413,0-1.72-0.595-3.354-1.916
		C118.486,61.478,118.407,60.341,117.688,59.62z M115.807,61.503c1.277,1.278,2.636,2.332,3.772,2.934
		c-2.031,0.504-4.688,1.607-6.366,3.285l-0.647,0.648c-0.06,0.06-0.134,0.088-0.23,0.088c-0.588,0-1.641-1.053-2.036-1.449
		c-0.252-0.252-0.724-0.722-1.061-1.189c-0.264-0.365-0.53-0.848-0.301-1.076l0.647-0.648c1.679-1.678,2.783-4.336,3.287-6.365
		C113.473,58.866,114.527,60.225,115.807,61.503z"/>
</g>
<text transform="matrix(1 0 0 1 15.3486 56.9453)" fill="#FFFFFF" font-family="'Montserrat-SemiBold'" font-size="14.0445">+</text>
<text transform="matrix(1 0 0 1 59.6689 56.9453)" fill="#FFFFFF" font-family="'Montserrat-SemiBold'" font-size="14.0445">+</text>
<text transform="matrix(1 0 0 1 103.2002 56.4209)" fill="#FFFFFF" font-family="'Montserrat-SemiBold'" font-size="14.0445">+</text>
<g>
	<path fill="#FFFFFF" d="M73.149,61.874c0.046,0,0.095-0.01,0.139-0.029c0.171-0.078,0.248-0.278,0.171-0.451l-0.199-0.441
		c-0.077-0.172-0.277-0.248-0.449-0.17c-0.171,0.076-0.248,0.277-0.171,0.449l0.199,0.442C72.896,61.8,73.019,61.874,73.149,61.874z
		"/>
	<path fill="#FFFFFF" d="M83.08,54.446c-0.098-0.207-0.34-0.303-0.554-0.221l-8.931,3.439c-0.119-0.061-0.242-0.109-0.369-0.146
		c-0.003-0.016-0.003-0.029-0.008-0.045l-0.631-2.036c-0.05-0.163-0.192-0.282-0.363-0.306c-0.169-0.02-0.338,0.061-0.428,0.205
		l-1.72,2.802c-0.012,0.018-0.019,0.036-0.026,0.054l-1.391,0.486c-1.471,0.515-2.648,1.64-3.23,3.086l-1.954,4.854
		c-0.073,0.184-0.016,0.393,0.142,0.513l6.489,4.921c0.078,0.059,0.172,0.089,0.265,0.089c0.062,0,0.123-0.013,0.181-0.038
		c0.146-0.066,0.244-0.205,0.257-0.366l0.337-4.315c0.019-0.242-0.162-0.451-0.403-0.471c-0.241-0.018-0.452,0.162-0.47,0.402
		l-0.274,3.516l-5.585-4.233l1.828-4.542c0.488-1.213,1.476-2.156,2.71-2.587l3.237-1.134c0.545-0.189,1.147,0.01,1.472,0.484
		l3.554,5.215c0.434,0.636,0.469,1.449,0.092,2.119l-0.367,0.654c-0.223,0.398-0.716,0.547-1.122,0.337l-4.724-2.443
		c-0.283-0.147-0.469-0.425-0.496-0.743l-0.235-2.754c-0.02-0.241-0.231-0.421-0.474-0.4c-0.24,0.021-0.421,0.233-0.398,0.475
		l0.233,2.754c0.054,0.621,0.415,1.162,0.968,1.447l4.724,2.442c0.827,0.429,1.834,0.128,2.29-0.687l0.366-0.652
		c0.541-0.963,0.49-2.129-0.133-3.043l-2.816-4.131l7.781-4.432C83.1,54.901,83.179,54.653,83.08,54.446z M71.901,57.546
		l-0.55,0.191l0.686-1.117l0.258,0.829C72.162,57.47,72.03,57.499,71.901,57.546z M74.627,58.72l-0.243-0.357
		c-0.012-0.016-0.025-0.031-0.036-0.048l3.059-1.179L74.627,58.72z"/>
</g>
<g id="XMLID_1_">
	<g>
		<path fill="#FFFFFF" d="M28.719,56.935c0.141-0.024,0.253-0.035,0.364-0.035c0.649,0,1.213,0.303,1.672,0.896l0.027,0.04
			c0.3,0.731,0.329,1.348,0.09,1.838c-0.21,0.429-0.626,0.759-1.24,0.979l0.899,0.898l4.305-4.305l-4.25-4.19l-1.877,1.898
			l-0.091-0.013c-0.137-0.023-0.263-0.09-0.376-0.201l-0.06-0.058l0.007-0.086c0.05-0.521-0.032-0.904-0.248-1.144
			c-0.219-0.237-0.593-0.343-1.103-0.319c-0.37,0.148-0.613,0.354-0.723,0.607c-0.118,0.284-0.084,0.658,0.103,1.107
			c0.324,0.333,0.751,0.472,1.296,0.423l0.086-0.008l0.059,0.061c0.095,0.093,0.16,0.213,0.197,0.357l0.018,0.074l-0.042,0.068
			c-0.109,0.167-0.275,0.348-0.496,0.541l-1.024,1.026l0.946,0.941C27.391,57.652,27.88,57.185,28.719,56.935z M29.354,57.751
			c-0.5-0.011-0.861,0.101-1.063,0.336c-0.21,0.24-0.275,0.629-0.199,1.156l0.01,0.062l-0.203,0.338l-0.078,0.014
			c-0.087,0.017-0.191,0.017-0.312,0l-0.061-0.005l-2.294-2.287l1.335-1.334c-1.108-0.458-1.504-1.354-1.144-2.599l0.012-0.033
			c0.397-0.791,1.085-1.172,2.036-1.129l0.033,0.006c0.728,0.16,1.232,0.6,1.508,1.31l1.249-1.249
			c0.12-0.124,0.267-0.187,0.418-0.187c0.255,0,0.442,0.181,0.463,0.2l4.664,4.665l0.104,0.379l-5.292,5.29l-0.441-0.443
			l-1.581-1.519c-0.127-0.095-0.228-0.246-0.278-0.439l-0.022-0.075l0.04-0.067c0.055-0.091,0.141-0.181,0.261-0.264l0.069-0.05
			l0.082,0.022c0.578,0.16,1.028,0,1.388-0.502c0.235-0.53,0.126-1.005-0.332-1.446c-0.065-0.04-0.164-0.082-0.289-0.112
			L29.354,57.751z"/>
		<path fill="#FFFFFF" d="M29.125,71.477c0.009-0.092-0.101-0.189-0.101-0.296v-5.789l-1.896,0.038v0.002
			c0.005,0.002,0.016,0.004,0.025,0.006c-0.143,0-0.285-0.041-0.424-0.123l-0.065-0.034l-0.018-0.076
			c-0.027-0.104-0.027-0.225-0.004-0.369l0.015-0.085l0.072-0.044c0.521-0.294,0.727-0.733,0.628-1.339
			c-0.204-0.528-0.602-0.784-1.215-0.784h-0.042c-0.076,0.019-0.173,0.057-0.286,0.122l-0.086,0.035
			c-0.357,0.339-0.528,0.669-0.514,0.976c0.018,0.321,0.246,0.649,0.678,0.972l0.052,0.038l0.095,0.378l-0.046,0.062
			c-0.049,0.079-0.126,0.148-0.221,0.218l-0.047,0.027h-2.398c-0.015,0.36-0.139,0.276-0.139,0.465v0.944
			c0.547-0.277,1.368-0.217,2.05,0.171l0.095,0.019c0.626,0.517,0.864,1.222,0.715,2.097l-0.017,0.044
			c-0.562,1.259-1.493,1.646-2.726,1.114c-0.008,0.12-0.021,0.254-0.01,0.401l-0.027,0.854L29.125,71.477z M29.771,72.313
			l-13.993-0.009c-0.087-0.029-0.213-0.086-0.292-0.163l-0.137-0.055v-0.074l0.055-13.926l0.104-0.011
			c0.051-0.104,0.13-0.141,0.232-0.218l0.049,0.075h7.493l0.016,3.396l-0.072-0.057c-0.109,0.084-0.246,0.126-0.407,0.126h-0.083
			l-0.055-0.066c-0.674-0.811-1.306-0.837-1.99-0.072c-0.156,0.362-0.184,0.682-0.08,0.938c0.117,0.287,0.403,0.531,0.85,0.717
			l0.027,0.011c0.456,0,0.847-0.179,1.193-0.596l0.055-0.021h0.083c0.134,0,0.265-0.005,0.393,0.071l0.065-0.006l0.017,0.077
			c0.044,0.197,0.055,0.436,0.032,0.734v1.444l1.29-0.029c-0.312-0.631-0.283-1.298,0.091-1.989c0.488-0.673,1.178-0.94,2.052-0.837
			l0.047,0.011c0.726,0.309,1.184,0.725,1.358,1.238c0.157,0.45,0.095,0.976-0.179,1.562l1.444-0.023l0.644,0.062l0.013,7.149
			l-0.045,0.334L29.771,72.313z M20.899,67.401c-0.531,0.715-1.26,0.984-2.177,0.812l-0.047-0.018
			c-0.669-0.325-1.088-0.752-1.245-1.259c-0.139-0.444-0.073-0.98,0.195-1.527h-1.34l0.042,5.738
			c-0.013,0.12-0.013,0.457,0.004,0.457h6.146c0.008,0-0.2-0.318-0.2-0.425v-1.688l0.146-0.28l0.283-0.239l0.454,0.051l0.045,0.066
			c0.315,0.457,0.738,0.623,1.301,0.52c0.454-0.164,0.715-0.517,0.771-1.07c-0.042-0.509-0.33-0.85-0.888-1.043
			c-0.049-0.004-0.128-0.012-0.202-0.012c-0.381,0-0.708,0.187-0.99,0.573l-0.046,0.053l-0.076,0.017
			c-0.104,0.025-0.25,0.027-0.396,0.002l-0.146-0.015l-0.255-0.301v-2.38c0-0.015-0.092-0.023-0.275-0.023h-1.003
			C21.306,65.957,21.273,66.712,20.899,67.401z M18.647,64.593l0.029,0.036c0.067,0.052,0.078,0.086,0.113,0.103l0.024,0.049v0.454
			l-0.017,0.053c-0.556,0.33-0.68,0.805-0.53,1.446c0.221,0.478,0.6,0.709,1.174,0.709l0.027-0.001
			c0.417-0.124,0.667-0.42,0.826-0.899c0.064-0.513-0.219-0.925-0.726-1.258l-0.208-0.055v-0.427l0.199-0.08
			c0.101-0.073,0.341-0.148,0.465-0.174l0.036-0.055h2.017c0.161,0-0.164,0.109,0.199,0.093v-1.039
			c-1.093,0.465-1.911,0.109-2.54-1.03l0.091-0.027c-0.279-0.843-0.117-1.596,0.593-2.239l-0.029-0.019
			c0.626-0.397,1.341-0.448,1.886-0.142v-1.585l-6.103,0.044l0.142,6.083L18.647,64.593z"/>
	</g>
	<g>
	</g>
</g>
<path fill="#FFFFFF" d="M-81.04-66.508h-0.927l-0.328-0.316c1.149-1.337,1.841-3.072,1.841-4.96c0-4.209-3.412-7.622-7.621-7.622
	s-7.621,3.413-7.621,7.622s3.412,7.621,7.621,7.621c1.887,0,3.623-0.691,4.96-1.841l0.316,0.329v0.926l5.862,5.851l1.748-1.747
	L-81.04-66.508z M-88.075-66.508c-2.92,0-5.276-2.357-5.276-5.276c0-2.92,2.356-5.276,5.276-5.276s5.276,2.356,5.276,5.276
	C-82.799-68.865-85.155-66.508-88.075-66.508z"/>
<path fill="none" d="M7.225-86.153h48.16v48.16H7.225V-86.153z"/>
<path fill="#FFFFFF" d="M-124.034-63.901v3.75h3.75l11.061-11.06l-3.75-3.75L-124.034-63.901z M-106.325-74.11
	c0.391-0.391,0.391-1.021,0-1.41l-2.339-2.34c-0.39-0.391-1.021-0.391-1.41,0l-1.83,1.83l3.75,3.75L-106.325-74.11z"/>
<path fill="none" d="M-159.246-88.085h24v24h-24V-88.085z"/>
<path fill-rule="evenodd" clip-rule="evenodd" fill="#FFFFFF" d="M-176.377-18.593c-0.367,0.15-0.663,0.256-0.943,0.393
	c-0.57,0.275-1.05,0.256-1.602-0.154c-1.294-0.963-3.327-0.467-4.193,1.029c-0.354,0.617-0.434,1.271-0.379,1.957
	c0.016,0.203-0.027,0.25-0.248,0.229c-1.671-0.176-3.166-0.771-4.484-1.814c-0.515-0.406-0.967-0.879-1.457-1.354
	c-0.493,1.154-0.529,2.246,0.181,3.291c0.116,0.172,0.269,0.316,0.398,0.479c0.046,0.057,0.13,0.115,0.085,0.195
	c-0.056,0.098-0.16,0.047-0.237,0.025c-0.2-0.053-0.397-0.117-0.592-0.189c-0.222-0.082-0.298-0.018-0.259,0.217
	c0.189,1.141,0.777,1.994,1.816,2.527c0.111,0.059,0.246,0.082,0.369,0.262c-0.246,0-0.445-0.002-0.646,0
	c-0.413,0.002-0.472,0.088-0.27,0.453c0.389,0.713,1.004,1.166,1.744,1.463c0.232,0.09,0.467,0.168,0.721,0.258
	c-1.236,0.951-2.661,1.152-4.15,1.18c0.07,0.164,0.159,0.189,0.234,0.23c2.223,1.195,4.537,1.414,6.961,0.699
	c3.037-0.896,5.673-4.09,5.863-7.949c0.021-0.408,0.131-0.734,0.431-1.016c0.278-0.262,0.528-0.551,0.788-0.832
	c0.07-0.076,0.202-0.166,0.139-0.27c-0.066-0.115-0.195-0.018-0.293,0.012c-0.188,0.061-0.371,0.127-0.559,0.184
	c-0.115,0.033-0.27,0.102-0.34,0.008c-0.09-0.119,0.072-0.207,0.143-0.291C-176.863-17.724-176.568-18.07-176.377-18.593z"/>
<g id="_x34_qj3gc.tif_28_">
	<g>
		<path fill="#FFFFFF" d="M13.441,15.583c0.413,0.504,0.486,1.072,0.477,1.664s-0.008,1.184-0.004,1.777
			c0.002,0.338,0.162,0.467,0.49,0.408c0.107-0.018,0.215-0.059,0.318-0.098c3.391-1.285,5.425-4.832,4.827-8.404
			c-0.696-4.156-4.62-6.967-8.778-6.291c-3.625,0.592-6.339,3.639-6.422,7.307c-0.061,2.685,1.021,4.867,3.201,6.449
			c0.572,0.412,1.246,0.691,1.889,0.996c0.336,0.156,0.621,0.035,0.639-0.24c0.031-0.486,0.009-0.973,0.009-1.408
			c-0.37,0-0.692,0.016-1.014-0.004c-0.751-0.041-1.319-0.357-1.616-1.092c-0.174-0.432-0.443-0.795-0.85-1.051
			c-0.107-0.068-0.182-0.193-0.271-0.289c0.017-0.041,0.032-0.082,0.048-0.123c0.223,0.018,0.455,0,0.662,0.061
			c0.409,0.119,0.664,0.434,0.889,0.779c0.464,0.717,1.201,0.953,1.98,0.637c0.08-0.035,0.166-0.111,0.201-0.191
			c0.128-0.289,0.238-0.586,0.355-0.887c0-0.004-0.018-0.023-0.035-0.025c-0.066-0.016-0.133-0.021-0.199-0.031
			c-0.689-0.113-1.336-0.32-1.921-0.729c-1.294-0.902-1.646-3.609-0.61-4.835C7.843,9.8,7.831,9.65,7.824,9.453
			C7.804,8.97,7.842,8.482,7.873,8c0.022-0.32,0.242-0.391,0.497-0.293c0.505,0.197,0.997,0.432,1.501,0.637
			c0.133,0.053,0.293,0.1,0.426,0.074c1.131-0.248,2.258-0.25,3.389-0.002c0.133,0.027,0.295-0.016,0.427-0.068
			c0.524-0.211,1.038-0.449,1.564-0.652c0.22-0.086,0.374,0.008,0.439,0.26c0.135,0.518,0.188,1.029,0.059,1.555
			c-0.026,0.105-0.024,0.262,0.035,0.334c0.568,0.707,0.712,1.516,0.667,2.395c-0.084,1.628-0.925,2.73-2.438,3.138
			C14.128,15.46,13.808,15.507,13.441,15.583z"/>
		<path fill-rule="evenodd" clip-rule="evenodd" fill="#FFFFFF" d="M13.441,15.583c0.367-0.076,0.688-0.123,0.998-0.207
			c1.513-0.408,2.354-1.51,2.438-3.138c0.045-0.879-0.099-1.688-0.667-2.395c-0.06-0.072-0.062-0.229-0.035-0.334
			c0.129-0.525,0.076-1.037-0.059-1.555c-0.065-0.252-0.22-0.346-0.439-0.26c-0.526,0.203-1.04,0.441-1.564,0.652
			C13.98,8.4,13.818,8.443,13.685,8.416c-1.131-0.248-2.258-0.246-3.389,0.002c-0.133,0.025-0.293-0.021-0.426-0.074
			C9.367,8.138,8.875,7.904,8.37,7.707C8.115,7.609,7.895,7.679,7.873,8C7.842,8.482,7.804,8.97,7.824,9.453
			C7.831,9.65,7.843,9.8,7.707,9.962c-1.035,1.227-0.684,3.933,0.61,4.835c0.585,0.408,1.231,0.615,1.921,0.729
			c0.066,0.01,0.133,0.016,0.199,0.031c0.018,0.002,0.035,0.021,0.035,0.025c-0.117,0.301-0.228,0.598-0.355,0.887
			c-0.035,0.08-0.121,0.156-0.201,0.191c-0.779,0.316-1.517,0.08-1.98-0.637c-0.225-0.346-0.479-0.66-0.889-0.779
			c-0.207-0.061-0.439-0.043-0.662-0.061c-0.016,0.041-0.031,0.082-0.048,0.123c0.089,0.096,0.163,0.221,0.271,0.289
			c0.406,0.256,0.676,0.619,0.85,1.051c0.297,0.734,0.865,1.051,1.616,1.092c0.321,0.02,0.644,0.004,1.014,0.004
			c0,0.436,0.022,0.922-0.009,1.408c-0.018,0.275-0.303,0.396-0.639,0.24c-0.643-0.305-1.316-0.584-1.889-0.996
			c-2.18-1.582-3.262-3.764-3.201-6.449c0.083-3.668,2.797-6.715,6.422-7.307c4.158-0.676,8.082,2.135,8.778,6.291
			c0.598,3.572-1.437,7.119-4.827,8.404c-0.104,0.039-0.211,0.08-0.318,0.098c-0.328,0.059-0.488-0.07-0.49-0.408
			c-0.004-0.594-0.006-1.186,0.004-1.777S13.854,16.087,13.441,15.583z"/>
	</g>
</g>
<path fill="#FFFFFF" d="M-46.749-79.468h-16c-1.1,0-1.99,0.9-1.99,2l-0.01,18l4-4h14c1.1,0,2-0.9,2-2v-12
	C-44.749-78.568-45.649-79.468-46.749-79.468z M-48.749-67.468h-12v-2h12V-67.468z M-48.749-70.468h-12v-2h12V-70.468z
	 M-48.749-73.468h-12v-2h12V-73.468z"/>
<path fill="none" d="M250.885-79.085h24v24h-24V-79.085z"/>
</svg>
